<mxfile host="Electron" agent="Mozilla/5.0 (Macintosh; Intel Mac OS X 10_15_7) AppleWebKit/537.36 (KHTML, like Gecko) draw.io/27.0.2 Chrome/134.0.6998.205 Electron/35.3.0 Safari/537.36" version="27.0.2">
  <diagram name="Page-1" id="8FF__Mn4cMCOBpUtsBYe">
    <mxGraphModel dx="701" dy="521" grid="1" gridSize="10" guides="1" tooltips="1" connect="1" arrows="1" fold="1" page="1" pageScale="1" pageWidth="850" pageHeight="1100" math="0" shadow="0">
      <root>
        <mxCell id="0" />
        <mxCell id="1" parent="0" />
        <mxCell id="meBygZaOMEilaG3QBi70-2" value="" style="html=1;verticalLabelPosition=bottom;align=center;labelBackgroundColor=#ffffff;verticalAlign=top;strokeWidth=1;strokeColor=#333333;shadow=0;shape=mxgraph.ios7.icons.message;" vertex="1" parent="1">
          <mxGeometry x="120" y="244" width="60" height="50" as="geometry" />
        </mxCell>
        <mxCell id="meBygZaOMEilaG3QBi70-32" value="" style="edgeStyle=orthogonalEdgeStyle;rounded=0;orthogonalLoop=1;jettySize=auto;html=1;" edge="1" parent="1" source="meBygZaOMEilaG3QBi70-3" target="meBygZaOMEilaG3QBi70-6">
          <mxGeometry relative="1" as="geometry" />
        </mxCell>
        <mxCell id="meBygZaOMEilaG3QBi70-3" value="Mua hành 5k" style="text;html=1;align=center;verticalAlign=middle;whiteSpace=wrap;rounded=0;" vertex="1" parent="1">
          <mxGeometry x="120" y="250" width="60" height="30" as="geometry" />
        </mxCell>
        <mxCell id="meBygZaOMEilaG3QBi70-5" value="" style="sketch=0;points=[[0,0,0],[0.25,0,0],[0.5,0,0],[0.75,0,0],[1,0,0],[0,1,0],[0.25,1,0],[0.5,1,0],[0.75,1,0],[1,1,0],[0,0.25,0],[0,0.5,0],[0,0.75,0],[1,0.25,0],[1,0.5,0],[1,0.75,0]];outlineConnect=0;fontColor=#232F3E;fillColor=#FFFFFF;strokeColor=#333333;dashed=0;verticalLabelPosition=bottom;verticalAlign=top;align=center;html=1;fontSize=12;fontStyle=0;aspect=fixed;shape=mxgraph.aws4.resourceIcon;resIcon=mxgraph.aws4.augmented_ai;" vertex="1" parent="1">
          <mxGeometry x="204" y="245" width="40" height="40" as="geometry" />
        </mxCell>
        <mxCell id="meBygZaOMEilaG3QBi70-33" value="" style="edgeStyle=orthogonalEdgeStyle;rounded=0;orthogonalLoop=1;jettySize=auto;html=1;entryX=0.786;entryY=0;entryDx=0;entryDy=0;entryPerimeter=0;" edge="1" parent="1" source="meBygZaOMEilaG3QBi70-6" target="meBygZaOMEilaG3QBi70-9">
          <mxGeometry relative="1" as="geometry" />
        </mxCell>
        <mxCell id="meBygZaOMEilaG3QBi70-6" value="&lt;div&gt;&lt;font face=&quot;Courier New&quot;&gt;{&lt;/font&gt;&lt;/div&gt;&lt;div&gt;&lt;font face=&quot;Courier New&quot;&gt;&quot;note&quot;: mua đồ ăn thuộc chi tiêu hàng ngày&lt;/font&gt;&lt;/div&gt;&lt;div&gt;&lt;font face=&quot;Courier New&quot;&gt;&quot;date&quot;: &quot;2025-&lt;/font&gt;&lt;span style=&quot;font-family: &amp;quot;Courier New&amp;quot;; background-color: transparent; color: light-dark(rgb(0, 0, 0), rgb(255, 255, 255));&quot;&gt;11-05&lt;/span&gt;&lt;font face=&quot;Courier New&quot; style=&quot;background-color: transparent; color: light-dark(rgb(0, 0, 0), rgb(255, 255, 255));&quot;&gt;&quot;&lt;/font&gt;&lt;span style=&quot;background-color: transparent; color: light-dark(rgb(0, 0, 0), rgb(255, 255, 255)); font-family: &amp;quot;Courier New&amp;quot;;&quot;&gt;,&lt;/span&gt;&lt;/div&gt;&lt;div&gt;&lt;font face=&quot;Courier New&quot;&gt;&quot;amount&quot;: 5000,&lt;/font&gt;&lt;/div&gt;&lt;div&gt;&lt;font face=&quot;Courier New&quot;&gt;&quot;unit&quot;: &quot;VND&quot;,&lt;/font&gt;&lt;/div&gt;&lt;div&gt;&lt;font face=&quot;Courier New&quot;&gt;&quot;flow&quot;: &quot;expense&quot;,&lt;/font&gt;&lt;/div&gt;&lt;div&gt;&lt;font face=&quot;Courier New&quot;&gt;&quot;purpose&quot;: &quot;Neccesities&quot;&lt;/font&gt;&lt;/div&gt;&lt;div&gt;&lt;font face=&quot;Courier New&quot;&gt;}&lt;/font&gt;&lt;/div&gt;" style="text;html=1;align=left;verticalAlign=middle;whiteSpace=wrap;rounded=0;fontSize=9;" vertex="1" parent="1">
          <mxGeometry x="270" y="215" width="140" height="100" as="geometry" />
        </mxCell>
        <mxCell id="meBygZaOMEilaG3QBi70-7" value="" style="sketch=0;points=[[0,0,0],[0.25,0,0],[0.5,0,0],[0.75,0,0],[1,0,0],[0,1,0],[0.25,1,0],[0.5,1,0],[0.75,1,0],[1,1,0],[0,0.25,0],[0,0.5,0],[0,0.75,0],[1,0.25,0],[1,0.5,0],[1,0.75,0]];outlineConnect=0;fontColor=#232F3E;fillColor=#FFFFFF;strokeColor=#333333;dashed=0;verticalLabelPosition=bottom;verticalAlign=top;align=center;html=1;fontSize=12;fontStyle=0;aspect=fixed;shape=mxgraph.aws4.resourceIcon;resIcon=mxgraph.aws4.augmented_ai;" vertex="1" parent="1">
          <mxGeometry x="320" y="330" width="40" height="40" as="geometry" />
        </mxCell>
        <mxCell id="meBygZaOMEilaG3QBi70-35" value="" style="edgeStyle=orthogonalEdgeStyle;rounded=0;orthogonalLoop=1;jettySize=auto;html=1;exitX=0.771;exitY=0.909;exitDx=0;exitDy=0;exitPerimeter=0;entryX=0.775;entryY=-0.027;entryDx=0;entryDy=0;entryPerimeter=0;" edge="1" parent="1" source="meBygZaOMEilaG3QBi70-17" target="meBygZaOMEilaG3QBi70-30">
          <mxGeometry relative="1" as="geometry">
            <Array as="points">
              <mxPoint x="340" y="439" />
              <mxPoint x="340" y="485" />
            </Array>
          </mxGeometry>
        </mxCell>
        <mxCell id="meBygZaOMEilaG3QBi70-8" value="" style="shape=table;startSize=0;container=1;collapsible=0;childLayout=tableLayout;fontSize=11;fontFamily=Courier New;" vertex="1" parent="1">
          <mxGeometry x="120" y="391" width="280" height="50" as="geometry" />
        </mxCell>
        <mxCell id="meBygZaOMEilaG3QBi70-9" value="" style="shape=tableRow;horizontal=0;startSize=0;swimlaneHead=0;swimlaneBody=0;strokeColor=inherit;top=0;left=0;bottom=0;right=0;collapsible=0;dropTarget=0;fillColor=none;points=[[0,0.5],[1,0.5]];portConstraint=eastwest;fontSize=16;" vertex="1" parent="meBygZaOMEilaG3QBi70-8">
          <mxGeometry width="280" height="17" as="geometry" />
        </mxCell>
        <mxCell id="meBygZaOMEilaG3QBi70-10" value="note" style="shape=partialRectangle;html=1;whiteSpace=wrap;connectable=0;strokeColor=inherit;overflow=hidden;fillColor=none;top=0;left=0;bottom=0;right=0;pointerEvents=1;fontSize=10;fontFamily=Courier New;" vertex="1" parent="meBygZaOMEilaG3QBi70-9">
          <mxGeometry width="47" height="17" as="geometry">
            <mxRectangle width="47" height="17" as="alternateBounds" />
          </mxGeometry>
        </mxCell>
        <mxCell id="meBygZaOMEilaG3QBi70-11" value="date" style="shape=partialRectangle;html=1;whiteSpace=wrap;connectable=0;strokeColor=inherit;overflow=hidden;fillColor=none;top=0;left=0;bottom=0;right=0;pointerEvents=1;fontSize=10;fontFamily=Courier New;" vertex="1" parent="meBygZaOMEilaG3QBi70-9">
          <mxGeometry x="47" width="46" height="17" as="geometry">
            <mxRectangle width="46" height="17" as="alternateBounds" />
          </mxGeometry>
        </mxCell>
        <mxCell id="meBygZaOMEilaG3QBi70-12" value="amount" style="shape=partialRectangle;html=1;whiteSpace=wrap;connectable=0;strokeColor=inherit;overflow=hidden;fillColor=none;top=0;left=0;bottom=0;right=0;pointerEvents=1;fontSize=10;fontFamily=Courier New;" vertex="1" parent="meBygZaOMEilaG3QBi70-9">
          <mxGeometry x="93" width="47" height="17" as="geometry">
            <mxRectangle width="47" height="17" as="alternateBounds" />
          </mxGeometry>
        </mxCell>
        <mxCell id="meBygZaOMEilaG3QBi70-27" value="unit" style="shape=partialRectangle;html=1;whiteSpace=wrap;connectable=0;strokeColor=inherit;overflow=hidden;fillColor=none;top=0;left=0;bottom=0;right=0;pointerEvents=1;fontSize=10;fontFamily=Courier New;" vertex="1" parent="meBygZaOMEilaG3QBi70-9">
          <mxGeometry x="140" width="47" height="17" as="geometry">
            <mxRectangle width="47" height="17" as="alternateBounds" />
          </mxGeometry>
        </mxCell>
        <mxCell id="meBygZaOMEilaG3QBi70-24" value="flow" style="shape=partialRectangle;html=1;whiteSpace=wrap;connectable=0;strokeColor=inherit;overflow=hidden;fillColor=none;top=0;left=0;bottom=0;right=0;pointerEvents=1;fontSize=10;fontFamily=Courier New;" vertex="1" parent="meBygZaOMEilaG3QBi70-9">
          <mxGeometry x="187" width="46" height="17" as="geometry">
            <mxRectangle width="46" height="17" as="alternateBounds" />
          </mxGeometry>
        </mxCell>
        <mxCell id="meBygZaOMEilaG3QBi70-21" value="purpose" style="shape=partialRectangle;html=1;whiteSpace=wrap;connectable=0;strokeColor=inherit;overflow=hidden;fillColor=none;top=0;left=0;bottom=0;right=0;pointerEvents=1;fontSize=10;fontFamily=Courier New;" vertex="1" parent="meBygZaOMEilaG3QBi70-9">
          <mxGeometry x="233" width="47" height="17" as="geometry">
            <mxRectangle width="47" height="17" as="alternateBounds" />
          </mxGeometry>
        </mxCell>
        <mxCell id="meBygZaOMEilaG3QBi70-13" value="" style="shape=tableRow;horizontal=0;startSize=0;swimlaneHead=0;swimlaneBody=0;strokeColor=inherit;top=0;left=0;bottom=0;right=0;collapsible=0;dropTarget=0;fillColor=none;points=[[0,0.5],[1,0.5]];portConstraint=eastwest;fontSize=16;" vertex="1" parent="meBygZaOMEilaG3QBi70-8">
          <mxGeometry y="17" width="280" height="17" as="geometry" />
        </mxCell>
        <mxCell id="meBygZaOMEilaG3QBi70-14" value="" style="shape=partialRectangle;html=1;whiteSpace=wrap;connectable=0;strokeColor=inherit;overflow=hidden;fillColor=none;top=0;left=0;bottom=0;right=0;pointerEvents=1;fontSize=10;fontFamily=Courier New;" vertex="1" parent="meBygZaOMEilaG3QBi70-13">
          <mxGeometry width="47" height="17" as="geometry">
            <mxRectangle width="47" height="17" as="alternateBounds" />
          </mxGeometry>
        </mxCell>
        <mxCell id="meBygZaOMEilaG3QBi70-15" value="" style="shape=partialRectangle;html=1;whiteSpace=wrap;connectable=0;strokeColor=inherit;overflow=hidden;fillColor=none;top=0;left=0;bottom=0;right=0;pointerEvents=1;fontSize=10;fontFamily=Courier New;" vertex="1" parent="meBygZaOMEilaG3QBi70-13">
          <mxGeometry x="47" width="46" height="17" as="geometry">
            <mxRectangle width="46" height="17" as="alternateBounds" />
          </mxGeometry>
        </mxCell>
        <mxCell id="meBygZaOMEilaG3QBi70-16" value="" style="shape=partialRectangle;html=1;whiteSpace=wrap;connectable=0;strokeColor=inherit;overflow=hidden;fillColor=none;top=0;left=0;bottom=0;right=0;pointerEvents=1;fontSize=10;fontFamily=Courier New;" vertex="1" parent="meBygZaOMEilaG3QBi70-13">
          <mxGeometry x="93" width="47" height="17" as="geometry">
            <mxRectangle width="47" height="17" as="alternateBounds" />
          </mxGeometry>
        </mxCell>
        <mxCell id="meBygZaOMEilaG3QBi70-28" style="shape=partialRectangle;html=1;whiteSpace=wrap;connectable=0;strokeColor=inherit;overflow=hidden;fillColor=none;top=0;left=0;bottom=0;right=0;pointerEvents=1;fontSize=10;fontFamily=Courier New;" vertex="1" parent="meBygZaOMEilaG3QBi70-13">
          <mxGeometry x="140" width="47" height="17" as="geometry">
            <mxRectangle width="47" height="17" as="alternateBounds" />
          </mxGeometry>
        </mxCell>
        <mxCell id="meBygZaOMEilaG3QBi70-25" style="shape=partialRectangle;html=1;whiteSpace=wrap;connectable=0;strokeColor=inherit;overflow=hidden;fillColor=none;top=0;left=0;bottom=0;right=0;pointerEvents=1;fontSize=10;fontFamily=Courier New;" vertex="1" parent="meBygZaOMEilaG3QBi70-13">
          <mxGeometry x="187" width="46" height="17" as="geometry">
            <mxRectangle width="46" height="17" as="alternateBounds" />
          </mxGeometry>
        </mxCell>
        <mxCell id="meBygZaOMEilaG3QBi70-22" style="shape=partialRectangle;html=1;whiteSpace=wrap;connectable=0;strokeColor=inherit;overflow=hidden;fillColor=none;top=0;left=0;bottom=0;right=0;pointerEvents=1;fontSize=10;fontFamily=Courier New;" vertex="1" parent="meBygZaOMEilaG3QBi70-13">
          <mxGeometry x="233" width="47" height="17" as="geometry">
            <mxRectangle width="47" height="17" as="alternateBounds" />
          </mxGeometry>
        </mxCell>
        <mxCell id="meBygZaOMEilaG3QBi70-17" value="" style="shape=tableRow;horizontal=0;startSize=0;swimlaneHead=0;swimlaneBody=0;strokeColor=inherit;top=0;left=0;bottom=0;right=0;collapsible=0;dropTarget=0;fillColor=none;points=[[0,0.5],[1,0.5]];portConstraint=eastwest;fontSize=16;" vertex="1" parent="meBygZaOMEilaG3QBi70-8">
          <mxGeometry y="34" width="280" height="16" as="geometry" />
        </mxCell>
        <mxCell id="meBygZaOMEilaG3QBi70-18" value="" style="shape=partialRectangle;html=1;whiteSpace=wrap;connectable=0;strokeColor=inherit;overflow=hidden;fillColor=none;top=0;left=0;bottom=0;right=0;pointerEvents=1;fontSize=10;fontFamily=Courier New;" vertex="1" parent="meBygZaOMEilaG3QBi70-17">
          <mxGeometry width="47" height="16" as="geometry">
            <mxRectangle width="47" height="16" as="alternateBounds" />
          </mxGeometry>
        </mxCell>
        <mxCell id="meBygZaOMEilaG3QBi70-19" value="" style="shape=partialRectangle;html=1;whiteSpace=wrap;connectable=0;strokeColor=inherit;overflow=hidden;fillColor=none;top=0;left=0;bottom=0;right=0;pointerEvents=1;fontSize=10;fontFamily=Courier New;" vertex="1" parent="meBygZaOMEilaG3QBi70-17">
          <mxGeometry x="47" width="46" height="16" as="geometry">
            <mxRectangle width="46" height="16" as="alternateBounds" />
          </mxGeometry>
        </mxCell>
        <mxCell id="meBygZaOMEilaG3QBi70-20" value="" style="shape=partialRectangle;html=1;whiteSpace=wrap;connectable=0;strokeColor=inherit;overflow=hidden;fillColor=none;top=0;left=0;bottom=0;right=0;pointerEvents=1;fontSize=10;fontFamily=Courier New;" vertex="1" parent="meBygZaOMEilaG3QBi70-17">
          <mxGeometry x="93" width="47" height="16" as="geometry">
            <mxRectangle width="47" height="16" as="alternateBounds" />
          </mxGeometry>
        </mxCell>
        <mxCell id="meBygZaOMEilaG3QBi70-29" style="shape=partialRectangle;html=1;whiteSpace=wrap;connectable=0;strokeColor=inherit;overflow=hidden;fillColor=none;top=0;left=0;bottom=0;right=0;pointerEvents=1;fontSize=10;fontFamily=Courier New;" vertex="1" parent="meBygZaOMEilaG3QBi70-17">
          <mxGeometry x="140" width="47" height="16" as="geometry">
            <mxRectangle width="47" height="16" as="alternateBounds" />
          </mxGeometry>
        </mxCell>
        <mxCell id="meBygZaOMEilaG3QBi70-26" style="shape=partialRectangle;html=1;whiteSpace=wrap;connectable=0;strokeColor=inherit;overflow=hidden;fillColor=none;top=0;left=0;bottom=0;right=0;pointerEvents=1;fontSize=10;fontFamily=Courier New;" vertex="1" parent="meBygZaOMEilaG3QBi70-17">
          <mxGeometry x="187" width="46" height="16" as="geometry">
            <mxRectangle width="46" height="16" as="alternateBounds" />
          </mxGeometry>
        </mxCell>
        <mxCell id="meBygZaOMEilaG3QBi70-23" style="shape=partialRectangle;html=1;whiteSpace=wrap;connectable=0;strokeColor=inherit;overflow=hidden;fillColor=none;top=0;left=0;bottom=0;right=0;pointerEvents=1;fontSize=10;fontFamily=Courier New;" vertex="1" parent="meBygZaOMEilaG3QBi70-17">
          <mxGeometry x="233" width="47" height="16" as="geometry">
            <mxRectangle width="47" height="16" as="alternateBounds" />
          </mxGeometry>
        </mxCell>
        <mxCell id="meBygZaOMEilaG3QBi70-30" value="" style="shape=image;verticalLabelPosition=bottom;labelBackgroundColor=default;verticalAlign=top;aspect=fixed;imageAspect=0;image=data:image/png,iVBORw0KGgoAAAANSUhEUgAABR0AAAHOCAIAAACaezkvAAAAAXNSR0IArs4c6QAAAERlWElmTU0AKgAAAAgAAYdpAAQAAAABAAAAGgAAAAAAA6ABAAMAAAABAAEAAKACAAQAAAABAAAFHaADAAQAAAABAAABzgAAAAA/iKGaAABAAElEQVR4AeydB5xTxdqHs43eO9JBRRTECmJXvFixINZrwwL2a+8Ve7t2RRFRESyg2BVRpPcmRToIS2dZyrKwfb8H537jMclmk2x6/vnxW+bMmfpMcs68877zTkppaalLHxEQAREQAREQAREQAREQAREQAREQgaAIpAaVS5lEQAREQAREQAREQAREQAREQAREQAT2EpBcre+BCIiACIiACIiACIiACIiACIiACARPQHJ18OyUUwREQAREQAREQAREQAREQAREQAQkV+s7IAIiIAIiIAIiIAIiIAIiIAIiIALBE5BcHTw75RQBERABERABERABERABERABERABydX6DoiACIiACIiACIiACIiACIiACIhA8AQkVwfPTjlFQAREQAREQAREQAREQAREQAREQHK1vgMiIAIiIAIiIAIiIAIiIAIiIAIiEDwBydXBs1NOERABERABERABERABERABERABEZBcre+ACIiACIiACIiACIiACIiACIiACARPQHJ18OyUUwREQAREQAREQAREQAREQAREQAQkV+s7IAIiIAIiIAIiIAIiIAIiIAIiIALBE5BcHTw75RQBERABERABERABERABERABERABydX6DoiACPxN4MQTT0xJSfn7WiEREAEREAEREAEREAEREIHyCEiuLo+Q7otAhQkgqdpPWlpavXr1EF8/+OCD0tLSCpetAkRABERABERABERABERABKJMIEUz+yiPgKpPAgII1fTy0Ucf5W9hYeHy5ctHjhxJ4KabbnrjjTdiCsCaNWt27959wAEHxFSr1BgREAEREAEREAEREAERiGUCkqtjeXTUtgQhYORq5xrWpEmTjj/+eGJWrFjRpk2bBOmnuiECIiACIiACIiACIiACSUlAduBJOezqdLQJHHPMMeiEkatnzZrlbMu0adN69+7dpEmTSpUqtWjRol+/fuvXr3cmMPuf0XX379+/Xbt2VapUoZyBAweaNAMGDOjUqVPVqlWbN2+OerykpMSZF8vz888/v23btiSoVasWbfj444+dCQi77a8eO3YsiwKPPfbY3LlzzzzzzDp16lSrVu2EE06YPHmyW0ZdioAIiIAIiIAIiIAIiEDSEkhP2p6r4yIQXQJGfZ2RkWGbMXjw4Ouuu65y5cpnn302QvWyZcvee++9b7/9durUqS1btrTJCFx88cVI4GeccQbZR4wY0bdvXwLz5s378MMPzzrrrO7du3/zzTcI3sjA9957r814ww03HHjggejJmzZtunXr1h9++OHyyy9fsmTJE088YdN4DcycOfP555/v1q3btddei6H4F198QRVI2u3bt/eaXpEiIAIiIAIiIAIiIAIikFQEZAeeVMOtzkaHgKcd+Pjx40866aT09PQ///wTKZdmLV26tGPHjsjP48aNa9asmWnomDFj/vWvfyFmsx/bxKBPJsERRxwxevRotMdErly5EpV19erVuZw4caLJu3379n333Zd6N2zYQC0mLzbnqLhNmL8FBQWnn346LaENtkZTvjVZR19NO0mMzH/VVVeZvO+8887111+PlP7WW2+ZGP0VAREQAREQAREQAREQgWQmIDvwZB599T2iBLCm5vPggw9edNFFp5xyCrLriy++aIRq2vH2229j3f3qq69aEZfIk08+GaEalXVOTo6zrc8++6wRqonErvvYY49FkH744YdtXu727NkzKytr3bp1NqNTqCYSU3McpxUVFf366682jdcAFuNWqCbB1Vdfjaw+ffp0r4kVKQIiIAIiIAIiIAIiIALJRkB24Mk24upv1Ag8/vjjtm40yYMGDerTp4+NmTJlCmF00TNmzLCRBDZv3lxcXIw2+/DDD7fx6KttmMA+++zDX2cCLo2MvXbt2latWpnEmHA/99xzSNEE9uzZYyL565S9baQz4FYdNueNGzfetm2bM43CIiACIiACIiACIiACIpC0BCRXJ+3Qq+ORJmCMq3NzcxGhr7nmGkypkXjRSJt2sOGZwAsvvOC1Wbt27XLG165d23lpLL29RqIDNykxF+/SpQvC8HHHHdejRw8Sc5I2FuBsyc7Pz3eW5hm2unF7ixqR9u2lAiIgAiIgAiIgAiIgAiKQzARkBx43o48IhJKTj7PF2BUT47TRdd5NyHDr1q3pMvt+be9wc00MG4NtTCwH2AiNETim3cilV155JYdFm9YaqXjHjh2I354fXHB7dsrrV8IzmYn573//i+iOkhx0r732Gr7K+PKceuqpZaWPnXjPEQ+obQFRCqhkJRYBERABERCB0BL4+eef8QzKcnZqaipzG2Y4oS0/BkvzfMvH17wuBpGqSdEikMhydXZ29jPPPIN2zpxahOUq21CffvppoxiMFnHVKwIQOPjgg3H9jZH2yy+/bIAcddRRBCZMmBAmPsuXL6dkztlylo/ZufNSYREQAREQARHwk8BXX32F4McHGyg/s8R1MvyY7PWS8thj4esFcwD8ieKyFCO1hg0bMnHlXMzwVaeSRUAEQksgYeXqYcOG4aXpgQcewEPyli1batSogQ+nSZMm4TUKP8ncDS1HlRZFAmh6OfDJ7SSqKLbHz6ofeughTp/GdZnZqHzzzTezb/n2229nK7WzBLx2h0TYZj2YYp16/lGjRnGOl7Ou2AzzQ2Z8OTMsuOZBlex8gsuuXCIgAiIgAl4JsI3IxOO2g2Vir2kSKRK5Gj8pTlcpIe8d1mQlJSUXXnghzko3bdq0ceNGHJ2GvJbYLzBO53WxD1YtDDeBxJSrOQfosssu4wmIJycO6cVFE7rrvLy8n3766cgjjySeu6QJN1yVHxkC55133uLFiz/66KPIVBeqWvAr1q9fP76NHA1NmZyV9f7772O0fNBBB+HK+84777z11lvPPfdcHIaj2a54pTfeeCMOwC+44IJ///vf99xzD2dfsyjeu3fvipcc7hKYsTG+bA4PriI4k51PcNmVSwREQAREwJMApn/ff/89K56XXnopouDHH3/smUYxgRJYuHAhWS6//PIkV1PH6bwu0OFW+sQjkIBy9Zw5cxBI2KF6zjnn4CAK4QFxgpFDbcVu0smTJyOrcJc0c+fOTbwRVY/iiMD999/PpIT1aZalaTbLPbNmzULunTdv3htvvME0BeNtRN+QHBON5flvv/129NFHs9LEmV47d+788ssv8Z0WR7jUVBEQAREQgRghgN0ffjGZaLFATJOs7jpGmhenzTBHdWBiGaftV7NFINkJeHpIivcYFHEMKicPleUCCg2hOTT4rLPOMp3l2CE2CJFr/vz5nt1H0V2rVi3ufv311867HIB03333dezYEU9USEeoGTE7ZwXXmYawOeUIkQYrqRtuuKFNmzbI+Z07dzbJ1q9fj9REm7FOZ3myZs2ahxxyyCOPPIJtsFs5q1atMl9WZ/yjjz5KJO6vnJFlhVlHYBGU9tAAntq0hIUG9vfiodpmsa1dvXo1PqubN29euXJlTIhRn8LNJnMGAuUAIqydKZNmMEzXXnstEJwF2jCCZdeuXcFbt27dk0466bvvvuOWbaFNNnjwYCDg2cvGOJP5Xx1+MlCKMpRUhxc0XIs5y3EW7jVMRZTQq1cvTI7BSzkdOnSgp5xi5ZbeOZR85bDyYg8VnMnYv39/vHO7peeSdy23SEAy/AWQhVVtZzmeWZwxzpQsNrHLmkLwifKf//zHJiMNtuj7778/30Paf9hhh3FKNlu8bAITMF9CEqMBRk1BOaTnS4u9gEmA4gJjEExFKASSNJXvklshWLh9/vnnZOdXg7kX9vAYe6OWxwbeLSWXvkf8m2++YbAohO8J3xamem4lOPtub/GToSP8fDi+m58Aiw70gtaeeeaZnHNmkzkD7Cjhd0oaRpb05DKe50w5zpQKi4AIiEDCEzAnO/Je5plv9mFNmzbNs9d2lkIy1ot5WfAI5cVxxRVXZGZmmvQ8+bnEtogXHC+Fd99917McYpjUURqPX572fDp16sRkyXNmYh/vnoUYD6DMGewt5/zB99vEq/dQP5//TCNfeuklJhhMJnnf8Z5lbrBhwwbbDALm3er2121i40xvwprX+Z5GVnBe5wlcMSLgm4DL9+24u8tj2kjI+Cfz0finnnqKhxcp7WMd92bEoD/0zPXFF19wi/m0U+Bhy2u9evXMExD5kEm5Cbdo0QJ5w1mIkQqQNBo0aEAa3ii8D6xc7fQjZdw/mnIQM2zbTGlexQP7xnLW6DWMvRYae1M4ry6zUmAuFy1aZLOY1g4cOBCHGdxFNOIdYJIh+XsKwIFyGDJkiKkCDjTDlIyMjaG+bYMJ3HTTTeYu4h9kzLC++uqrvqUsW4hJ5n91iPee1b3yyiue1dkq3AIsPZgS+AteTrEyl5D8/fffnYntULLD2XxzEAvppknP8r8zMWGkUCRGc5cvmxk7vkXWTYBbes9LW+Nnn31mD+Xi+2Dlar7kdqBpErWY6pi4sL/LWaCJpxzWgAjTcjM0hNkrzszpkksuIUzhtNAkZsqFdwNnIa+//rq5xV/KsdWRZfTo0c6UhD2HwM6EWGugBNDRDFsgEq+zBNt3Z6SZeOFt4bTTTiMjreWrbkqAA1YtzsSEUcXYAeLbaBhiqOZjAudWgi5FQAREIGEILFiwgAdm/fr18QBCp+69914u2W3k2UE7SzH7hHna21cDi/usy7PUy0OV7M63Cduj3IpatmyZeReQkvkDHwJ8eL+4Lcj6eCz7kKvLfZvwwDezOCplKdx+OB3Tralul/Tx0EMP/auxLqY95tXJJbNK+m4TmwLNi4Zb5pJKbQLPgOZ1vqeRFZ/XeTJXjAj4JpBocrXd4fPHH3/46LnZwcJzbejQoSYZlrFc8pT3zGX2oKJMs7fYBGteA/xokaJRWyFO8Joxc/QDDzwQJZhNbN4EzNoRUXCcZuJ5Q5gAGu8nn3yS9qCQJIZXFJ6l2AROY1CO2UIIeBUP7BvLmdJruG3btpSJin7JkiUmAUu/48ePp1+UbLOY1vJ6Q4pGZiae3uHz07xO/vWvf9mUBILgADeWq43cggkZJgCG5N133+0s2Y7jXXfdZVT3SHesZyP/mLcp+n+b3kpZNoaA6Yif1bGxGTh8WFgxi98YZqOu91qdsxZnmIOsGM3Zs2cjBhPPd2DmzJnmICsW4PmG2MR2KGke7kkMfzTDuK83MiovS5uYgHk3IO7SUzOJQVA/4ogjrDDpTOw1bGvke8hSjqkR/iYwffp0espCAHMjdMs0lcZPnTrVCPM4enWWaUBRNd8lzsTmFl8kY0/O0OCMjSpYzmARinL4CqGXIIvb+LIicMstt/A1MLRJyeIOBvCkZBnCTUluhtJzxKFHmzkwzH5DzE8VwdhpNmL77uyFmXhRAqtjrBGYJTOoYn5CG/gBOhPTNiP585M0xDgdDet9pGtKID0/Q2d6hUVABEQgsQnwSOfRhwme6SZ7l7jkcepUP5hbZpbCK4NXA29282pg7mFeDdiQ84TnbbJixQrS27cJj3Hnaiy5UFNTBaoLjqHilcHnl19+MXpy3rAohC3wIOTqirxNbL1lBczMEFEZKy0zOcQqigkh3UF4xrGuM6Pn+8551y2seZ2PaWRI5nVuwHUpAuUSSDS5GktsHlWsYCEN+ug8d81EGTHAJOMJjmhBXjdVFdtQjUbROa03AoDZxe2shUc/imgKGT58uI03T0me2m56P5vAM4BUYNTFRm4xCbyKB37K1Wb7Lg0rtw2mtbzSrORvaufUB7LzMcK2iQyCA28R58uSclByUqxzRYP3JVI9kbwdTUXmL/Gc/Ly3ES6Xczh8yNV+VofCnDKdSyemRuSovZX9szpnk8oN87JnnYUSWC6xie1Qsk5Bp2w8AaYXJO7Tp4+NZPHCLGDTTRtJwH5JSO+M9xq2NR5zzDGePw0iKYR1Abe8GBFgYcUtp2k0l3z2228/3mc2PWWaIeMWql0bT8D4k3OOr/OuM2zHF8MtZ7znPMOMOHWxJuVMyeKU+eE422D77kxpJl6U4Pw+k4ClECL5gN2mZ0GHGERutynjc88991daydUWlQIiIAKJTwDh0Gymcz4/jaA4YsQIt/6bWQqPSrcHu3U1WtbbxPkYN4lZynTbrIc+w8zcBg0aZOsNQq6meUG/TWy9XgOsIJjXxI8//uhMwGQMSZtbDz/8sDPe833nvOsMa15naXidRoZvXmfrVUAEPAn8z/TU/OwT4C+SAL3gaWWNNr12irvmiYZwYhJgzmQOYPzkk0+cWVDVMlln28/xxx9v4rlEbCZ8xx13OFMSRlY3GjNsWd1uMTVHxnOLLOuSRV/8S3EXG6Gy0gQUj92RAcJ+Hn8yokS1YpJJz/Zm0yTemiYmOA59+/YFtbMNuJHjEuGHbd4mnv1C5rBltMfOlOhyzbqJM9J32J/q0DAjRFEOXrLdSjO2bW6RAV2yxIPwTBZMFTwzot+2RtTmrqFhTOxMDN7FEDiRb410ZwvhS4KuwF76GcBY3e2ngZaAtrF45OnDjN8Ibv8o2fP7jB2BsYU29VLmySefTJgN+Xhfczame/fuXDrH13nXGQYF25uJ8crKmdKEWf257bbbnPHEGAMBJ0BnArcwuz84094ZyY5BukCMNWkBPg8BYqjLLMbZ9GxHtwaNNlIBERABEUhsAmiMmUsgAZo1WdNZs86OMOy17zxXce/ivGVXyVF9u71NmG+Q0vkYNxMP3o/GpMiWg6baTLpQBdvIIAIVf5uUValpOfZlRmttkzEhNO/coFuueZ2F6TmNDOu8ztargAh4Ekj3jIrrGFYO/Gy/Z0q8KGF/yzOO/Zl2c6zZwnrxxRdbaQSNFra41GK3vDprRNrkkq3RzkjC3bp1c4uxl1jhDhgwAD05js2sbGnusp/ZJqtIAKmJbUXoeJE6sL9FKcrSsu2jZ8k4gvKMpAQaydPK3AqOgzFxdxbOmoW5xCTYSCmmikaNGuGmy5mSMLI9L2AWy93iy7r0pzocyJMdmzS3pQQijzrqKNbCUcyWVb5bPJsC8MvC+jSCujFmtgm8DmVZzTMnWpu8hgYSoP0G2jLNVjF76U/A83vImJKRrzQqZc8S6AWRnt9no5pwpme8uEQ579ZOu5xkx9fk4tvOLmsM+RDssZxHfLWleWVl79oAdXmKtebr5ARo03sGPPmThhJomy0BmxGMVoh3k8CJwe4dOdyqIzzLV4wIiIAIJB4BIzzjSsO5LswlS+FoZTFsNnZDzo57vhrMK4M0bqIyMeatYR/CxJj3oJG3ncUSZkkXdYidmbjd9fOy4m+Tsiry3XI2f7E5nImf57usrAJtvOZ1FoXnNDKE8zpbiwIi4A+BRJOrjS6UxzHTdLf5vRMHd5nlE4PSz8bjL4pHG6Y12DwbHSMWy8z7SYDIbZNZla81wrG3bIDtlzZsAp6vGROP+QpqUiPkI+iiITQ6MXYZYULsJma7lRnQ5XvvvYc4zU5RjI74sNMJDTwvQpYMnEvFpkz7kHJWYSJ5ZZrI4DhYjx22ZNaJTdiKr6YKr21A/ctObwyobHbfAX+qY5QpxFi1uZXGWPCN8rO6Tz/9FJWy6QXfPbaTGY8aiKaMo9ehLKt5FgXtMTSMPbZb87wickvjdun5PTTjiCF3QN9nT1xmmaaseJrh7NS4ceP4NhqhnVuwMl8DlqUQYr2ycusIl570iDTlOOvyzGhj/CnBfD3I4tk1Ir2Oiy1fARGILwLo1vhtYjGErwFWu9BAWlcXQXQEk11cOrGei98mfuOcj4DTCje7myCKVZboEmBygmMU2uCcF3HJVmfWf1lnRBuBR0y3Rno+P+3Kflm3nI9xH7MCY2FkfGo45Xy3Bvi+9Odd4LuEsu6W23Kmf7xlgpCrqVHzOoPdcxoZqnldWcOqeBEoi0Ci2YHz5qarbIPEO1dZfSYevaLRObNIaZPxXDv77LO5tG6WsfdGNYrWlDOHbDKjWEMA5mlY1ofNtDa9CdhXiDMeW1MsjSkEg1LCNBs7dqQ4Psa0iVvO9BUJ498CzyIjR47ENBpKiDScY4xdFlp3K974Lt+tMcFx8F2FP3fdmuFPFt9pQlIg7062ZzMPwOUpmnzWRFjcMUPJcRo0ICS1uHUkiDI9v4dmHPFWSmllfdgX51Z1RS6hhK043zrsAJmEIUuzyGVYscebkmlGRcoPbd6Yakxou6bSRMCNAFtMsbhBrg5izc6tKB4aPFXYQ4GsxfYT3mj8lHjpuCXTZdwRwNEjLziajSMx5FjnxxjvlGUKXvGeMkeqeCFRKSFMLde8rqzR1Iu7LDKKDzeBRJOrMWDmKQ81syWyLHzmLintrmmT0qy/Inyah6DZa+22KGstlJAEyirfz3gON0KqwTYbg1gkfKfM40N56GfhnsnQS7MLhRO/cJaOlhJNAot8GCk9/vjjbom9GuIaxaZVeIaQg1vtpgqvbWA1xG6Jd8sV9KWpzqrfneX4Xx3GbwiKDCKLMtgGG08qpqgKDqUPGl7b7Gy/P2Ezjrip89+63p9ifaTBawCG1piKoPRgzm1XmslSQVY+Kg36lv3Ce6XtNTLoupRRBKJLgD1QWKViM2IOyAi6MZwmwCkG2PdSGo9Ejr186623ELo4KSDoMpUxRgiUKzZjgoupQmhba57DHFfhWSxvEyKxLDNzP8LGBM8I/27pUba7xYT7styW02x7fFcQjdG8zis0g93rC9r/eZ3XkhUpAr4JJJpcjUWQ8bTEorvZFenZf+K5Szzeno0FkU2DiMvTmScvG615WE+cOJFb5jxemwb/E+apjUMpGxlcwLwP7MGGthDsYJmX2MtwBNhOjOsp4/YJwz+3KjxjSGAireo+hBzcajdVIGIxJ3O7xWbgkIt/hj+rJGz0datu2rRpTlM0t7vOSzOUrN+77T5g0dS6Unem9z9saPBV9Fx/9TpM/pdsUpod1ywK4Iom0LzBpTes9t9/f3sAqS3HbLuwl7EQQCFgDgw3TwNnk9C0z5o1yxmjsAjENQH2r+Kc2conZfWFFWdSYrTFohjWT2i53dRxbG5iawk25OYsJVuOc8HRRioQRwRwKWpccmDUgE2W56dnz550p1zZO9Aum/cgewo8M5o3rJ2ZkMAcf2heNM70zKzYCueMCTRs3++er+OyijIN42XtmcW0nFdhcEbgnjVqXmeZhGReZ0tTQAT8J5BocjU979+/Py9vtJ12s6sTB1IZZzCwiEUaUjpvESbSGGAzb+DDcxDPRswznMnYh8MJwMQwmfCqXqMKPy2r2XJGOZ4ru0899RR725yVVjCMcOj5TKdMc4SY25SIeAy9cNfkrBRVg/HSfMEFF5j4EHJwVkSYA66NCzF7jpFJQBeeffZZt8QVv+S1Z062MEc1OAt8/vnnnZc+wmYo8V/qxnngwIGe4rqPcjxv9erVi3f5unXr3DY6MqHB3Z1n+kBjDjjgANyzkYstCV43NiM9en5DAq3Fmd6wQkPupk9AsPc6bXLmjXwY+HheoN5XX33VbZEFFZyfv/TIN1s1ikCYCLBHGhsu5CseTTfddBOGJzjswNexXfFEnuH4JRZe8dXML5rn6ksvvfTrr7+aLSdhapWKjQwBIzBznigfxFfPj5khDB06lIWVEDbJTMywCzP+qGzJbKAzDrc5xMRGGreavFDcXjGYY1TwXWbWWKnIOOixNfoImJbTTrMp3aZk9mje4M6W27v+BDSv80EpJPM6H+XrlgiURSAB5WqscHl60mGeYriP/umnn8xsmLc+z1mOhTBG4K+88opzgdMCMlbf3333nTkj180I3CRDumMygXBO+dZonFtMNSiW9Xt7Cq4t1mvAeEdDN46ZnHF1xjZdzpzARaRxwOY1VxCRPNMxyaNtaICN4AcTrNDNdlZzNJGzWPx1ofY3y9JMhr799lvzbqDBznM1QsXBWTVhtCWPPfYYgffffx9hz7zAeAldffXVrO96Kjndsgd6SXXMC8nFS46AMXNgINiIPmrUKD+rY6sw5SBXc6q5aTDlYGnPvLOCQ4nMT8dpHmdycIan+TKzFsNE1m3SEGjHbXq2IeBijcZjlY3G2MyPGXe+NiwetWvXzqsxlc0eaICvEFSx52fly5SM6M5Ys1xVQVaBtsTP9Di55RcBc1poDBEh/+abbxLPtNLPQpRMBBKAALum+amed955vEo4MRiBmfVWDijGpQi/CNNBjrsnwHo0jpr58EbDNoonJAum5gDFBOCQnF1g8mAs+VlSKYsA+mr0E9h/8fYsK00Q8TguwRyMjOxl4yVlpjEs1mB1yDuRFRxzypcpmTagM+AlzisGn3lEYoSIuoJ5hVnVDaIBJgsPfOOr0swP/SmHt6o5YYv3OEsAZrkBQycOdmVxnH1Ynj7e/CmWNJrX+QAVknmdj/J1SwTKJMDjKSE/SCD2AYrGCTHY7l5mxZG7ZfUacaJFixaGFxnRe3tNyeFY1hUwZuHIA8b5s8nIJMPmMrpQlu1tjDNg3088BTCr4y8l8PxFqU6A+YpNzAnApnAbQ4AERJLYGekZdi7x0k5o0DVTGloFXjk2i2ktWlazOwW34UanTWJ0yJ40QsLBtIQO2mYQQCI18QycJYPO0JOnecNx6JQzu2cye9ezOga9T58+btUxFgic+DglniUGm72sgPFPZgqhweb7xprFgw8+SKRzjLwOpSnWKGxpvLMWjBfsoW4Mn/liYzlmHew5E3sN+6jRpMefkP29GC/ozI1MX/jLsWG2WBPpNljc9fFV9MzCONrCqddsrGDa/dprrxFf7lB6HXHTQs9meO275+/LdtCcXkYVNoYAsoT5bdI8BtfAQTNjnBuzLuZMrLAIxDsB8yBCVnHrCD9Sfq3IA854VuJ4A2LbZSKNFo4HIDIDu6V4vyBOm7OLMXlFYejMq3AcEbB7moxlVlktNyv1qGFNAs9nss3o+WrwkQUTJ/NaJxcrs3xMdt7R+Km1ZZqA8xWDMGwmPLiS8Xy8B/Q2ofBHHnnE1MsrmPbwQZHjVrvbJbI9PxyTi60T1vc4rxLPqQUFkrKsGaOzZM3rnDQMXufMJCTzOmcVCouAPwQSUF9tfl28xbG/ZYUS5RivfCQThEnUy0888QTx5h1vUrr9ZfZsN1SzhczzBAiTnjkETsUxVKZMnpKoKJE/kVHRr7Jab57dbiV7vcTiGq0vKm5m6gwYrcXOCj2A18RBR1I+C6UoPNlzwjsGVSqLC5zHi9yItsGaNtnyEaFRuSPeI/OwvNq6dWscuhLjSSNUHGzVNsAeeCyfkSeRJCEDUowI0AbbBCEMMOgITnzojqkOB3jYEeCn3aiv/VFLovx/9913IUwJTDR5j2IgQCFGaKxIa1ndYKWGbQvMSimHFzOL96xoeB5GHXQtmCeggHrooYcw4qB8vs98K/huUykb0sybPujCPTMyjky4jeIaVtiiM+NhhmEnHJ5ZohvDsgtbIVA78ItAMMBBHfM2TlZDZqBh/nw9ott+1S4CFSeAURXnbyEM8GRD9Wc/vFV56Nmdq0Yjx18OAUKzzZMEmxfea7wfechgJ1XxlqiEqBAwRuC8htAP+2iA2SiHwaAx3fKRMqBbTEv4+iHW2vOuCWBixkEn5s3oLI1XDJMrtjghfiNf8a7BtNCKxM6UgYYphIkfynOmJZgv8Sm3m2gp8NaJcQc/AWZ6+M3CmgPvNiicK/IS17zO99iFZF7nuwrdFQFPAik8GjxjFZO0BBCheU+wVopgmbQQbMdZguFdjv6WdRn+2ngFRAACPDxZccjMzNTvRd+HBCPAQh7Lym7nV+Plwc3Tp1uvzXQC1yTsn0LSRg63hlGkZFMJUhDihNmo5ZZXlyIgAmEioHmdE6zmdU4aCoecQMLqq0NOSgUmIQHjt4zD2CRUJ+Hol9tl9NUI1ajjunTpUm5iJRCBeCdgtopgkoP87PVjOti+fXsC2J44hWpiUHTzF2cKJpn+ioAIiEDkCWheF3nmSVWj5OqkGm51tkwCGPpiKm8Px2aXzo033ohdNxmwgS8zm24kBwF2ULNpAikak0J6zP5S7MBxjEyY74nd6ZccMNTLJCXAhhQMgDFezc7O9oEAE1nO483KynI7L4NNueRCdeYjr26JgAiIQKgIaF4XKpIqx38Ckqv9Z6WUiUxg9OjRuKFiOsjcEQ0kpxa//fbbdBivY8aZZyJ3Xn0rj8Aff/zBhj0c5OBGAU8NuGzAnBXNG16OjVee8grQfRFIBAJ33HEHu0NxveG2p5SVptmzZ5se4lGiX79+hDnF2qxDEcadPr7EuWWOlkgEFuqDCIhAbBPQvC62xycxW5eemN1Sr0QgQAKciYWfFRxsomNhWyDO3nEogiqSc2ICLEnJE5AA3wRWWyZOnMjBYEgUiNYo5S677DL8gVfcL10C8lKX4pMAh1Cacyg5J4ke4GzpqquuIsCCI8dQE0Ci5oggTm7HFRlun1lpQneNdQ9e/VANGU/gJHvggQc4A4lzNxCncdXBiUe4K+N0Olw34bGCBPqIgAiIQLgJaF4XbsIq35OA/JZ5MlGMCIiACIiACCQdAVx845nfs9v45+OwPRvP0QyI0BxJYNaYkK45jJdlJhz72zSsTrKPER8ESN0cMcBRC2yo4dwBm0ABERABERABEUgwApKrE2xA1R0REAEREAEREAEREAEREAEREIGIEtD+6ojiVmUiIAIiIAIiIAIiIAIiIAIiIAIJRkBydYINqLojAiIgAiIgAiIgAiIgAiIgAiIQUQKSqyOKW5WJgAiIgAiIgAiIgAiIgAiIgAgkGAHJ1Qk2oOqOCIiACIiACISMAOdjpZTxSUtLK6uarVu3vvfee+eddx4OwDmdrnbt2scee+ygQYPsyVtlZQxhPMfjXXjhhY0aNcJxWvv27TkSj7PxPMsvLCx87bXXunbtSiOrV6++//774+cfH+aeKRUjAiIgAiIgAj4IyG+ZDzi6JQIiIAIiIAIJTqB169Y7d+5s06aN137i2dvttGqS5ebm5uTkcPhcWedmIZdmZmZmZGTUqFGjUqVKRUVFFFJcXFynTh0qQk73WlcII2nhsmXLSktLqZEG0Fo6gti83377pab+rVGgYcuXL+cWwn/NmjVpGAd079q1yywHhLA9KkoEREAERCAeCXCqBS8756EYPnrx99vFRyLdEoEEJjBkyBCjjEG7YrvJ78dEuv29+OKLbRqvAT8zcjzspZdeiiKlcePGnE+zefNmt9IefPBBpoPr1q1zi9elCIiACISWAEI1h0uXVWa1atX28fgYtTPnWpeVCxVx27ZtO3bsiBTdrFkzTuo68MADEbORrvmUlcvPeITk2bNnoxIvKz3i9OrVq2kktZsGoK/miYqw7faw5YmNUN2iRYsOHTo0b96cppKeZtP+sgpXvAiIgAiIQPIQ4P3IW9LP/qb7mU7JRCAhCaBRueWWW9CooKDw7GDnzp3PPfdcZzzzLedlWWHfGZnt9ezZc+HChVdddRVTuo8//hiFyeTJk60WZc6cORz9ygmxTPLKqkLxIiACIhASAkiSlDNr1iw/S1uwYEGnTp14Oi1dutSHKbhnaU8//TQrhmeeeebrr7/uvPvJJ5+8++67c+fOxU6bxvz73/++++67K1eu7EzjDI8dO/akk07itG0eoc54Gx4zZkz37t2PP/74cePG2ciVK1e2a9cO2X7mzJksmBJvkvXu3Xv48OE2mQIiIAIiIAIiYAkcfvjhNlxuQHJ1uYiUIGEJoNPo06dP/fr1e/Xq9eKLL3r285BDDmHq5hlfbozvjDNmzGBi9+GHH7KLj6KYR1ILMV26dOESu8Srr76aWeM111xTbkVKIAIiIAIRJvDOO+9QIw+ogIRqsiDT8jc9/R8TD8p5//330RXzHEalPHXq1IcffvjXX38dPXq0W0r/u4nATOLTTjvNmQX9OXunWQswAja3hg0bxl+E802bNn333Xeosps0adKjRw8taDq5KSwCIiACIuAngX+83vzMo2QikBgE8FXD9AvVh5mERaxTGChSl5GibYBIE/PMM8+gvv7qq68i1h5VJAIiIAJ+EkCljIkNxjXXXnutn1lMMlYMP/roI8JOcRenaAjVuDcbOnQoO5xNStYZH3/88TfffPM///lPQFXYxEuWLCGMFG1jTIDN1cjVfFBcE8MSJ3+5xL0ZpkMmDcL/I4888tBDD5lL/RUBERABERABPwlof7WfoJQs0QgsWrTovvvuY96GrWBZfVu/fj2aGWwX+Ttv3ryyknnG+87YsmVLslirSzTVXLL/kL8Yhz/55JPPPvusufQsWTEiIAIiEEUCn3/+ORukTz/9dPYkB9QMnrcYkJ9xxhmnnnqqzfjqq6+ilEa0tkI1t9BXY0aEpG2TBRrYsWMHWfDv7ZbRxNgN3mavNTbn559/Pk7OiP/yyy/r1q1LAxD43fLqUgREQAREQAR8E5C+2jcf3U1MAmhOLr/8cuRbZGYfPcQQkY9NcOKJJ2K8baRiG+k14DvjkUceedhhh/Xr14891WZ/NTFHHHEEznKxAD/qqKNuvPFGr8UqUgREQASiS4CN0DSAx1dAzcA46KWXXjrggAPwE2kz8vT7/fffcX72yiuv2EgTYHM1S582kmevc6e0iWcXDx+b5oQTTsD4yF56DbD3h3izuZoAj1z+HnrooTzYTSSac+T8s88+G7uhsjZvey1ZkSIgAiIgAiIguVrfgWQk0L9/f3yDTZw40akkcYLABS4qC5yWsSWPeJTVmCb+9ttv+MLBuQ6HtTgTO8P+ZGRT4rfffnv77bej+WEyh9ecl19+GbvKF154Yf78+Uw0UZvgTe3rr7/mYFU2+7399tva7+eErLAIiEBUCHAiNKuB7IVG7ex/A4xFN/7A2TVdr149m3Hbtm0IupzIhdW3jfQaQMRFtLa3cOKNJHzOOefgycJGclqYDRu9tNFa20gCxqer1WOjmqZ2nvNW0iYNbtU4lwvjcLLblM5CFBYBERABERAB7wR4q+kjAklFYNq0aUi22P7ZXj/66KP8PAYOHGhjPAOIuF27diUZqhXPuz5i/MzINA4hH/dpFMV8kfkcE8eRI0ciUbPvGhfiPqrQLREQAREImgDmM3z8yX7rrbfyDOSB6U9ik4ZFQ7JwkgK+wdxycVwWt1AXu8WXe8kSJxkHDx5cVkq8jpMAcyS3BGbHNQ4sTDznMpDsjTfecEtmzg/bsGGDW7wuRUAEREAEko2A/69IyGh/NW9VfZKIgLEAZ3b1xBNPBNRtjAONn57x48eHPCM/RZziHnzwwSix2eaHpvquu+7CWziKFMwRp0+fbuaRAdWrxCIgAiIQQgKc4YkVN5Y1/h9V8Nxzz/FMQ6vME6xRo0ZujeGAw4MOOginEtnZ2W63Knh58sknU8JPP/3kLAc34Cxf4rrCWCFxC/sj/rLr25kM+T8rKwujJB+nczvTKywCIiACIiAChoDkan0TkosA51QztWLnXpUqVbD9Mx9jhXjddddxedttt5VFpGHDhtzKzc0tK0FZ8eVmRGGCFh3nPcxZza5ClsdMaebcPKaeZRWueBEQARGIAAEOecZyGwtwT49lWOUsXrx4xYoVzmawdomvMp5gmH+XJaPecccdBQUF+JWwvsRMCVQ0e/ZsZ2kBhdlr3aFDB9ZAv/nmG5MRk597772X8PXXX89z3kRyUDYne+GijA04Ntk999xDmO05QZ/yZYrSXxEQAREQgWQjoP3VyTbiyd5f3OF4KluYwLHd+thjj23fvn23bt3KYsTBqtyyuo6yknnG+87IXsEHHniAk13Yf0hedNf8zc/PN+WgI/IsUDEiIAIiEGECxmNZ3759Petdt24dciyqYJ5m5i7bWHimsePmuOOOw2mZMwsboa1LMCRqTkZ46623OPgKP+F4hUR3vWrVKkRifJINGDDAmdH/MPViJY7WGvGYD8Ui23PywjHHHIP+3JaDtE+nLr74Yvb44BKcBVC8o/E62HffffF2YZMpIAIiIAIiIAJ+EUg2K3n1VwQ8CXjur0YSRrJ1pmRahkzOj2rSpEk2Hh0L6mVO1bIxfma06Qmccsop7DBE4WMisQOnFuaU5hJ/aVxSuzOLwiIgAiIQKgL+bB7DYxkPIjyWsZXGs14kYe4iV9tb5qFKpOcHZbJNZgL4ccRbGGItZ0c3btyY8xHYIM2j1S2ZvSx3f7VJiZkPQjVHduGHjJOrkfPxQG4LsQEe6dSOQzVqZ9n0zjvvRLa3dxUQAREQARFIZgL+vCItnxRCnq89xYhAUhFAdsUUHL9lZgc1fcf3LHMy/jKP5BJ/4GPGjCGAZeNDDz1k4WBAiAB85ZVX2sNO/cxoS6BSTtWaMWOG07Ftr1698Fh2wQUX1KpVi5IxpERct7aLNq8CIiACIlBxAmazCXrjihelEkRABERABEQgkQgE9IqUHXgiDb36EjICnG6NZIu4++OPP6JJRoVy4YUX3nzzzdg0+q4joIwYT+KWnC2ITqGa8tloXbNmTXPO1llnncUpNRKqfWPXXREQAREQAREQAREQARGIIgHpq6MIX1WLgAiIgAiIQJQJBLQYH+W2qnoREAEREAERiCCBgF6R8gcewZFRVSIgAiIgAiIgAiIgAiIgAiIgAglHQHbgCTek6pAIiIAIiIAIhI7A4Xd/FLrC4qOkWS9cER8NVStFQAREQARihoD01TEzFGqICIiACIiACIiACIiACIiACIhAHBKQXB2Hg6Ymi4AIiIAIJD0BDgvAo6HXDwc4Jz0eARABERABERCBiBKQHXhEcasyERABERABEQgJAc4R8DwmesKECRwKePrpp4ekChUiAiIgAiIgAiLgJwHJ1X6CUjIREAEREAERiCECyNV83BrUrVs3Yvr27esWr0sREAEREAEREIGwEpAdeFjxqnAREAEREAERiBCBBQsWTJ06tVmzZmeeeWaEqlQ1IiACIiACIiACfxGQXK0vggiIgAiIgAgkAoF33nmHblxzzTXaX50Iw6k+iIAIiIAIxBUBydVxNVxqrAiIgAiIgAh4I7Bnz56PP/44NTX12muv9XZfcSIgAiIgAiIgAmEkoP3VYYSrokVABERABEQgMgQ+//zz7du3YwHeokULHzUefvjhbncXLVrUoUMHt0hdioAIiIAIiIAIBERA+uqAcCmxCIiACIiACMQigXfffZdm9evXLxYbpzaJgAiIgAiIQKITkL460UdY/RMBERABEUh0An/88cfkyZObN29+xhln+O7rrFmz3BJ4arDdEuhSBERABERABESgXALSV5eLSAlEQAREQAREIKYJyGNZTA+PGicCIiACIpAEBCRXJ8Egq4siIAIiIAKJSyAvL2/IkCF4LMMTeOL2Uj0TAREQAREQgZgmILk6podHjRMBERABERAB3wSGDx++bds2LMB9eyzzXYjuioAIiIAIiIAIVISA5OqK0FNeERABERABEYgyAeOxrG/fvlFuh6oXAREQAREQgSQmILk6iQdfXRcBERABEYhzApySNXHiRH88lsV5R9V8ERABERABEYhpAvIHHtPDo8aJgAiIgAiIgA8CHD1dWlrqI4FuiYAIiIAIiIAIRICA5OoIQFYV0SSQm1+UuW332uw92bsL8gqL9xQU7+FvYXHe/wIlxOyNJ6awuFJ6ao3K6dUqpVWvnE7gf38rpVVzXDatXaVJrSqpqSnR7JXqFgEREAEREAEREAEREAERiBkCkqtjZijUkIoRKCwuWbdtDyJ0Zrb5uzuTy+zd2bkFFSvYS+6MtJSmtas2r1u1Rd1qLepVbdOgRrtG1ds0QAxP85JaUSIgAiIgAiIgAiIgAiIgAglNQHJ1Qg9vQndud0HR3Mztc9bwb9uiDTkbduwpiZQtZGFx6Zrs3fxzubZaxiiwm9et1q5h9f0b1zy0ZZ0jWtdrUKOyvauACIiACIiACIiACIiACIhAohKQXJ2oI5uY/Vq5ZdfsvwRp/i7dlFMcMUnaD5y0xQjbvy3ZYpKjwT6iVd0jW9c7onXdtg1r+FGGkoiACIiACIiACIiACIiACMQfAcnV8TdmSdXiouKSmau3zViVPXvNNrTT23YXxlH3V2Xl8m/4rLW0uUGNSof/T8au13GfWulpcsUfRyOppoqACIiACIiACIiACIiALwKSq33R0b1oEcCF2LilW0Yt3Dhm8ebtcSVLl0Usa1fBqIWb+EcC/KId1bb+6R2b9DiwSe1qGWVlUbwIiIAIiIAIiIAIiIAIiEBcEJBcHRfDlCyN3LG78NfFCJ8bxy/NwkF3onZ7d0Ex6wX8eyBt/tHtGpzZqWmPgxrXqVYpUfurfomACIiACIiACIiACIhAYhOQXJ3Y4xsfvdu0M+/nhRvR5U5dubUolrZMhxsf/s9Qy/PvgZEp3drVR8A+9aAmdatLwA43eJUvAiIgAiIgAiIgAiIgAqEkILk6lDRVVkAEMPb+eu66T2dksnG6NFKuvANqYcQSs5owYVkW/x76agEC9ukdm57WsUk9CdgRGwBVJAIiIAIiIAIiIAIiIAIVICC5ugLwlDVYAn9m5Q6ZunrErLU79sSTH7JguxtAPitgP/btwp4H79PnmNYdm9UOIL+SioAIiIAIiIAIiIAIiIAIRJyA5OqII0/iCktKStlU/NHU1ROWbUlyBXW534KCopIvZq/lX5fW9ZCuexzUJI0DsvURAREQAREQAREQAREQARGIPQKSq2NvTBKxRdm5BZ/NyBw6bfXabXsSsX9h7NP0P7P516xO1Su6tbr4yJbyHx5G1ipaBERABERABERABERABIIiILk6KGzK5DeB3zO3fzjlz+/mbUAB63cmJXQnsG77nmd+XPzKL8vOO6xZn6Nb79e4pnsKXYuACIiACIiACIiACIiACESJgOTqKIFPgmoXrt/x4qglvy3ZkgR9jVAXOXts2LQ1/Dtuvwb9jm937H4NIlSxqhEBERABERABERABERABESibgOTqstnoTrAEVmXlvvTzku/nb9Am6mARlpPPOA9Hur73tAPk2KwcWLotAiIgAiIgAiIgAiIgAmEmILk6zICTrPiNO/Je/XXp8Jlrk+oY6mgNMtL1xOUTz+m8z5092reoVy1azVC9IiACIiACIiACIiACIpDkBCRXJ/kXIGTd35Zb8NbY5R9NWZ2vfdQhg1p+QVgEfDV3/Q8LNl5+VKtbTt63TrVK5edRChEQAREQAREQAREQAREQgZASkFwdUpxJWVhuftF7E1a9N2FlTn5RUgKIfqfxCTdo4qrPZ2becGK7q49pUyUjLfptUgtEQAREQAREQAREQAREIGkISK5OmqEOQ0c5j3ro9DWvjF66NbcgDMWryMAI5OQVPf/TkiFTVt/+r/17H9Y8VeddB8ZPqUVABERABERABERABEQgSAKpQeZTtqQnsGjDzvMHTH74qwUSqmPqu7BhR949I+ad8dqEuZnbY6phaowIiIAIiIAIiIAIiIAIJCoBydWJOrJh7NeeguJnflzU8/WJc9ZIcgsj54oUvXhjzvlvT2aY8ouKK1KO8oqACIiACIiACIiACIiACJRLQHbg5SJSgn8QGL90y4Nfzc/M3vOPWF3EHoHiktJ3xq38ddHmF3offGjLurHXQLVIBERABERABERABERABBKEgPTVCTKQEehGTl7hfV/Mu+L96RKqI0A7VFUs37yr94ApT/+wKK9QiutQQVU5IiACIiACIiACIiACIvAPApKr/4FDF2URmLBsy2mvTPh0RmZZCRQfswRQXL87fuWZr02YvWZbzDZSDRMBERABERABERABERCB+CUguTp+xy5CLecYrfu/nH/5oOnrtsv2O0LMw1HNii25vd+e/NT3f0hxHQ68KlMEREAEREAEREAERCCZCUiuTubRL7/vSzfl4J/sk+lryk+qFDFPoKTUNXDCKlyFz1otxXXMj5YaKAIiIAIiIAIiIAIiED8EJFfHz1hFvKXf/r7+3DcnrczKjXjNqjCMBFZuyb3onSkfTFoVxjpUtAiIgAiIgAiIgAiIgAgkEwHJ1ck02n73tai45Inv/rjlkzm7C+Tsym9q8ZOwqKT0sW//uGv47zqFK34GTS0VAREQAREQAREQARGIXQI6Zyt2xyZaLduSk3/zsNnTVmVHqwGqNzIERsxau2xTzoDLD29au2pkalQtIiACIiACIiACIiACIpCQBKSvTshhDb5T7LxlQ7WE6uAJxlXO39fu6Pn6pOlaQ4mrUVNjRcCNwIQJE84///ymTZtWrlyZvz169Pjhhx/c0uhSBERABERABEQgrAQkV4cVb5wV/tGUPy9+d8rGnXlx1m41twIEsnbl//u9qUOm/FmBMpRVBEQgagSefPLJ448/fvz48aeddtqdd97Zs2fPbdu2jR07NmoNUsUiIAIiIAIikJQEZAeelMPu0WnOXnrgy/lfzlnncUcRiU+gsLj04a8XLli3s/+5B1VOT0v8DquHIpAoBIYPH/7www+fcsopX375Zc2aNW23CgsLbVgBERABERABERCBCBCQvjoCkGO9CjZU9x4wWUJ1rI9TmNv32czMi96ZuknWCmHmrOJFIFQESkpK7r333mrVqg0bNswpVFN+RkZGqGpROSIgAiIgAiIgAv4QkL7aH0qJnGbd9j2XvTdtlQ7TSuRB9rdvczO3s7v+o2u6HNCklr95lE4ERCBKBCZPnrxq1arevXvXrVv3+++/X7BgQZUqVbp06dKtW7cotUjVioAIiIAIiEDyEpBcnbxjT89XbtmFUL1+hzZUJ/XXwNn5zTn5l7w79aOru3ZqXtsZr7AIiECsEZgxYwZNaty48WGHHTZ//nzbPLZbjxgxomHDhjZGAREQAREQAREQgXATkB14uAnHbvl/rN954TtTJFTH7ghFqWXbdhde+t7UWat10FqUBkDVioB/BDZv3kzCAQMG7Nmz55dffsnJyUFlfeqpp+LD7IILLiirjMM9PosWLSorseJFQAREQAREQAT8JCC52k9QiZaM87Rw/Z21qyDROqb+hIJATl7R5YOmT16RFYrCVIYIiEBYCBQXF1NuaWkp2unu3bvXqFHjoIMOGjlyZPPmzceNGzdlypSw1KpCRUAEREAEREAEvBGQHbg3KokeN3FZVt8hM3cX7J2T6SMCXgnw9bj6gxkDLjv8xPaNvCZQpAiIQHQJsK2aBrRt27Zz5862JVWrVkVlPWjQoOnTp3vdaD1r1iyb2ARQYLvF6FIEREAEREAERCBQAtJXB0os7tOPWrjx6g9nSKiO+4EMfwfyCkv6fjSLL0z4q1INIiACARNo3749eerUqeOW08jbGIe7xetSBERABERABEQgfAQkV4ePbSyW/MWstTcOnV1QVBKLjVObYo9AQXHJTUNnf/P7+thrmlokAslOAP9k6enpy5YtKyj4x44edlmDpnXr1skOSP0XAREQAREQgQgSkFwdQdjRruqT6WvuGvF7cUlptBui+uOJQFFJ6W2fzvl8ZmY8NVptFYEkINCgQYOLLrpox44d/fv3t90dPXr0qFGjateufdppp9lIBURABERABERABMJNQPurw004Vsr/eeHGB0fOL5VMHSsDEk/tYCnm3i/mFRaX/Ltrq3hqt9oqAolO4L///e+0adOeeuopfIBzcvXq1avxW5aWljZw4EBP+/BEh6H+iYAIiIAIiEA0CUiujib9iNWN9+9bP50jRXXEgCdeRazIPPzVgnrVKp3eqWni9U49EoE4JdCoUSPk6ieffBJxeurUqTVr1jzzzDPvv//+o446Kk57pGaLgAiIgAiIQJwSkFwdpwMXQLNXbNl17Ycz8EEVQB4lFQEPAqzL3PbZ3Po1KndpU8/jpiJEQASiQ6BevXporflEp3rVKgIiIAIiIAIi8BcB7a9O8C/C5py8K9+fvm13YYL3U92LCIH8ohLWaJZszIlIbapEBERABERABERABERABOKDUsyI6QAAQABJREFUgOTq+Bin4Fq5K7+oz+AZa7fptJXg+CmXFwI784quGjx9ww59qbzAUZQIiIAIiIAIiIAIiEByEpBcnbDjjpepGz6etXD9zoTtoToWJQIbduSxXsOqTZTqV7UiIAIiIAIiIAIiIAIiEFsEJFfH1niEsDX3jpg3YVlWCAtUUSJgCSzemHPrJ3NK5ArPElFABERABERABERABEQgiQlIrk7MwX/up8VfzlmXmH1Tr2KDwJjFm5/6YVFstEWtEAEREAEREAEREAEREIFoEpBcHU36Yar785mZb49dEabCVawIWAKDJq4aNm2NvVRABERABERABERABERABJKTgOTqRBv3pZtyHvl6QaL1Sv2JVQJ82aas2BqrrVO7REAEREAEREAEREAERCASBCRXR4JyxOrYU1B809DZOqo6YsBVUVFJ6W2fzcnOLRAKERABERABERABERABEUhaApKrE2roH/1mwbLNuxKqS+pMzBPYtDP/nhHzYr6ZaqAIiIAIiIAIiIAIiIAIhIuA5OpwkY18uV/NWff5zLWRr1c1isAvizZ9NOVPcRABERABERABERABERCB5CQguTpBxn1VVu6DI+cnSGfUjTgk8NT3ixZv1GHpcThyarIIiIAIiIAIiIAIiECFCUiurjDCGCggv2jvturcguIYaIuakKQE8otKONE6r1BfwiT9AqjbIiACIiACIiACIpDMBCRXJ8LoP/ndoj82SFWYCEMZ131YumkXWuu47oIaLwIiIAIiIAIiIAIiIAJBEJBcHQS02Mry4/wNQ6aujq02qTXJSoCv4s8LNyZr79VvERABERABERABERCBJCUguTq+Bz4ze/c9X8gVc3wPYoK1/t4v5m3amZdgnVJ3REAEREAEREAEREAERMAHAcnVPuDEwa2HvlqQk1cUBw1VE5OGwLbdhbd/NrekpDRpeqyOioAIiIAIiIAIiIAIJDsBydVx/A34Yf6GcUu3xHEH1PQEJTB5xdbBk/9M0M6pWyIgAiIgAiIgAiIgAiLgTkBytTuReLnelV/U/9s/4qW1ameyEXhl9NLNObIGT7ZhV39FQAREQAREQAREIEkJSK6O14F/efTSjdrFGq+jl/jtzskvevaHxYnfT/VQBERABERABERABERABFwuydVx+S1YtGHnh7KzjcuhS6JGj5y7buaf2UnUYXVVBERABERABERABEQgWQlIro6/kS8tLcVdWZH8QsXf0CVXi0tLXY98vVAOzJJr1NVbbwTSAv/079/fW0mKEwEREAEREAERiFEC6THaLjWrbAKfzcictXpb2fd1RwRihcAfG3YOnbb68m6tY6VBaocIRIMAi6GtWrVq3bq1P5WTePz48f6kVBoREAEREAEREIHYISC5OnbGwq+WbMsteO4nbVv1i5USxQKBF39eeubB+9SrXikWGqM2iEC0CPTp0+eRRx7xs/bUVJmS+YlKyURABERABEQgVgjo5R0rI+FnO575cRHnA/uZWMlEIOoEduwpfGGUVoKiPg5qgAiIgAiIgAiIgAiIQBgJSF8dRrghLxovUMNnrQ15sSpQBMJKgJ0Ll3RpeXDzOmGtRYWLQMwS2LJlS7Vq1fxvXqDp/S9ZKUVABERABERABMJEQPrqMIENS7HP/LgYX1D6iEB8EcDFHg7M2DUaX81Wa0UgVATq169ftWpV/0sLNL3/JSulCIiACIiACIhAmAhIrg4T2NAXO3FZltyVhR6rSowIgbmZ27+cvS4iVakSERABERABERABERABEYg0AdmBR5p40PW9+uvSoPMqowhEncCbvy0/79BmqakpUW+JGiACUSQwd+7cTz75ZPr06Rh7p6SkNGzYsGvXrpdeemmnTp2i2CpVLQIiIAIiIAIiUEECkqsrCDBC2Scvz5rxp87WihBtVRMOAiuzcr+fv6Fn533CUbjKFIHYJ1BcXHzLLbe8++677IlwbosYN27cCy+8cOONN7766qtI2rHfEbVQBERABERABETAk4Dkak8msRjzyq/LYrFZapMIBEIAlbXk6kCAKW1CEbjrrrsGDBhQqVKlCy+88MQTT2zWrBnS9fr168eMGTNixIg333yzSpUqzz//fEB95kzs1atXu2Vp3Ljxxo0b3SJ1KQIiIAIiIAIiEFYCkqvDijc0hU9ZsXX6quzQlKVSRCB6BBZvzPl10abuHRpHrwmqWQSiQ2D58uWvv/56q1atfvrpp/bt2zsbcfXVVz/00EOnnXbayy+/fP3117dt29Z5t9xw7dq1b7vtNmeyGjVqOC8VFgEREAEREAERiAABydURgFzRKl6TsrqiCJU/Vgi88dtyydWxMhhqRwQJDBkyBO30Bx984CZUmyYccMABH3744UknnfTxxx8/8sgjAbWrTp06jz32WEBZlFgEREAEREAERCDkBOQPPORIQ1wgmuopK7eGuFAVJwJRIjBnzfbJK7KiVLmqFYGoEZg8eXKHDh1OOOGEslrArQMPPHDixIllJVC8CIiACIiACIhALBOQvjqWR2dv2+QGPNZHSO0LkAC7rI9u1yDATEouAvFNYPHixT169PDdBxyDjx492ncaz7v5+floudesWVO9evWDDz74+OOPT0tL80ymGBEQAREQAREQgbASkFwdVrwVLXzmn9mTlktZXVGMyh9TBPhKz1mz7dCWdWOqVWqMCISVwPbt2xs1auS7CvyNbdsW8LkPuCi7/PLLbclt2rQZPHiwD8W4TamACIiACIiACIhACAnIDjyEMENf1Otjloe+UJUoAtEm8OZvK6LdBNUvAhElkJubW7VqVd9VVq5ceffu3b7TuN3t06fPr7/+imhN+fPnz+/Xr9+ff/55+umn//77724p7eXhHp9FixbZuwqIgAiIgAiIgAgER0BydXDcIpErM3v3+GVbIlGT6hCByBL4dfGmxRt3RrZO1SYCCUjg0UcfPfnkk1F0V6tWrWPHjpzjdccdd+zZs0eezBJwsNUlERABERCB2CYgO/DYHZ/PZ2aWlsZu89QyEQiaAF/sQRNWvXBB56BLUEYRiDsCX331FcpkH82eM2eOj7t+3uKkrpdeemn8+PFlpZ81a5bbLRTYbjG6FAEREAEREAERCJSA5OpAiUUofUlJ6YhZayNUmaoRgYgT+GH+hsfPOahaJT2CIo5eFUaJwNy/Pr4rT0lJ8Z2g3LtmFzdm4eWmVAIREAEREAEREIEQEtCkNoQwQ1nUuKVbNuzIC2WJKksEYolAbkHxTws29jqseSw1Sm0RgXARwJdYuIr+Z7lTpkwhom3btv+M1pUIiIAIiIAIiEB4CUiuDi/foEv/bEZm0HmVUQTiggAWGZKr42Kk1MiKE7jyyisrXohbCQsXLmzatGm9evVs/OrVq2+++WYuL7vsMhupgAiIgAiIgAiIQAQISK6OAOSAq8jalY9jp4CzKYMIxBWBKSu3rtu+p1mdcpwkx1Wf1FgRiByB4cOHP/vssyeddBJna9WsWXPFihXff/99Xl7eGWeccdddd0WuHapJBERABERABETA5ZJcHYvfgi9nry0slsuyWBwatSmEBPBe9uWstbd03y+EZaooEUgeAkjUS5YswdsZtt9sqK5Tp86xxx7LWdZ8Kr5PO3kwqqciIAIiIAIiEBICkqtDgjHEhcgIPMRAVVysEvhituTqWB0btSukBK644gp/ykMe/vDDD/1JSZoT/vr4mVjJREAEREAEREAEwkpAcnVY8QZT+Mw/s1dskSvXYNApT9wR+HPrbr7wR7T+e4No3HVBDRYBfwh8/PHHvpMhUZeWlgYkV/suUHdFQAREQAREQAQiSUBydSRp+1XXp/JY5hcnJUoQAngvk1ydIGOpbpRN4Lfffiv7pmvt2rWPP/748uXLfaTRLREQAREQAREQgVgmILk6tkYnN7+Ic31jq01qjQiEk8D38zY8dvZBVTLSwlmJyhaBKBPAZNtrC9gXje+xl19+effu3Z06dXrhhRe8JlOkCIiACIiACIhAjBNIjfH2JVvzxi7ZsrugONl6rf4mM4Gc/KJRCzcmMwH1PTkJlJSUDBgwYN99933qqadwOTZo0KC5c+f26NEjOWmo1yIgAiIgAiIQ7wQkV8fWCP6ySMdrxdaIqDURIPDN3PURqEVViEDsEPjuu+/QTt90003oq7EAX7ZsWZ8+fdhcHTstVEtEQAREQAREQAQCIiA78IBwhTdxcUnpb0s2h7cOlS4CsUeAg6wLikoqpWuZL/bGRi0KNYHZs2dzuPS4ceNSU1Ovu+66/v37N2rUKNSVqDwREAEREAEREIFIE9BENtLEfdSHY+Ttuwt9JNAtEUhIAux9mLk6OyG7pk6JgCWQmZnJydJdunQZO3bsGWecMW/ePOzAJVRbPgqIgAiIgAiIQFwTkFwdQ8MnI/AYGgw1JbIExi/NimyFqk0EIkrgvvvua9++/bBhwzp37jxmzJhvv/22Q4cOEW2BKhMBERABERABEQgnAdmBh5NugGUfn/PDivqNx2zVWb4BglPy+CcwYdmW+04/IP77oR6IgHcCzz//PNun8VKGphq5mo/XdKRhu7XXW4oUAREQAREQARGIZQKSq2NmdLavOW7xE8e5XEWNWqyo3W1UfqfBG1ptK9QAxcwAqSHhJPDHhp1Zu/Ib1KgczkpUtghEk0BpaSn+yZ5++mkCZbVDcnVZZBQvAiIgAiIgAjFOQGJbzAzQit9MU9J3Zrbnn+vzWypV3tbsyOnphw/Nbj8hu07MNFQNEYHQE0DQmLgs69xDm4W+aJUoAjFAYPDgwTHQCjVBBERABERABEQgXAQkV4eLbMDlrnA3C0wpzq+3ceJpLv65Chu3WVbrqB/yOn24oXlOkUYtYLrKEPsExi/dIrk69odJLQyOwJVXXhlcRuUSAREQAREQARGICwKS0GJjmEpKXKvG+WhKxo5VB/LP9cmdVapubdhlSurhQ7buP317LR9ZdEsE4ovAhOVZ2MfqCN/4GjW11k8C33zzzVlnncXZWn6mVzIREAEREAEREIH4IiC5OjbGa8Nc155t/jQlpWhPgw3jerr45ypo0m5JzaO+3dNx6IYWucWarvnDT2lil8CWnPxFG3IO3EerRbE7RmpZ0ATOPffcZs2a9enT55prrmnVqlXQ5SijCIiACIiACIhAbBKQMBYb4+JTWV1WEyttX9Epc+gDWfcvqN5vetv3Xm43+5Bau8pKrHgRiH0C45dtif1GqoUiEASB7t27r1+//sknn2zXrt3pp58+cuTI4uLiIMpRFhEQAREQAREQgdgkILk6NsZl/ZyKtCOlILfR+jHnrXvxq4K+S/Z5/Kv9fuqzT2bl1JKKlKm8IhB5Argui3ylqlEEIkBg9OjRK1eufPDBB5s2bTpq1KjevXu3aNGCSyIjULuqEAEREAEREAERCDcBydXhJuxf+Rvn+5eu/FSVs5cckvnRo9n3Lq55w9S2g19oO7dDjd3lZ1MKEYgBAvPWbo+BVqgJIhAWAph/P/HEE6tXrzZ7rbOysp555pn999+/R48eI0aMKCoqCkutKlQEREAEREAERCAiBCRXRwSz70ryd7myV/lOEsTdlPycJutHX7D++R+Lrl3U7Kkv9ht9WdN1GamlQRSlLCIQGQI784rWbd8TmbpUiwhEhQCuy3Bg9vXXX69Zswaz8NatW//yyy8XXXQRu6/vvfdeDriOSqtUqQiIgAiIgAiIQAUJSK6uIMBQZN+0wOUKr7hbdevCwzMHP7nt7iW1bprUbsjTbefvV13SSyjGTmWEmsDiDTtDXaTKE4FYJNCkSZMHHnhg+fLlmIhfeOGFO3fufPHFFzt06BCLbVWbREAEREAEREAEyiMgf+DlEYrA/dAZgZfb2NS87c3W/Xip68dLXCl7mneaX7XrFzkdvtjUqLhUKyzlwlOCSBBYtGFn9w6NI1GT6hCB2CBwwgknZGdnr1q1avr06bHRIrVCBERABERABEQgYAKSqwNGFvoMG+eFvszySkxxlVbLmtfVxT/Xs3Xqr63fbWzxIe9vbPvnnirlZdV9EQgjgUUbc8JYuooWgVgisGTJkvfee++jjz5irzWHt7dp04ZTuGKpgWqLCIiACIiACIiAvwQkV/tLKozpIqiv9tqL1D1bW6797grXd5enpOa26Px7lS7Dd3b4enPD0tIUr+kVKQLhI4C+OnyFq2QRiAUCeXl5n3/+ORL1pEmTEKczMjJ69ep13XXX4cAsFpqnNoiACIiACIiACARBQHJ1ENBCmqWk2LV5UUhLDL6wlNKSGlvmHOPin+u/dRuuqXf0r0Wd39/YZl1e5eALVU4RCITA6q278wqLq2SkBZJJaUUgPgjMnTt34MCBw4YNYzc1EjVnWV977bV9+vRp1KhRfHRArRQBERABERABESiDgOTqMsBELDprqasoL2K1+V9R6u4trXd/fY3r66tT03e1PGR25SM/297hhy0N/C9BKUUgCALFJaVLNuZ0blEniLzKIgIxS+Cdd95Bop4zZw7idKVKlS644IK+ffuefPLJMdtgNUwEREAEREAERCAgApKrA8IVhsTRNgIvt0spJUU1N888wcU/V3GDpn/W6Ta68GCU2JvzM8rNqwQiEASBxRt3Sq4OgpuyxDKBG264geZxWjX23ldeeWWDBlqjjOXhUttEQAREQAREIGACkqsDRhbiDNFwWhZ0F9J2bWi368t2ri/7pWXsbHXYzEpHfpJ9wC9b6wVdoDKKgCeBRRvkusyTimLim8All1yCghrX3/HdDbVeBERABERABESgDAKSq8sAE7HojRxeHX+flJLC2pumdXfxz1XUsNnKOkePyu/0wcZWWwukxI6/0Yy1Fst1WayNiNpTcQJDhw6teCEqQQREQAREQAREIGYJSK6O9tBsWxXtFlS0/vScdfvnDN/fNfzmjMrb9zlievrhw7Lbj8uuW9FylT9ZCSzfvCtZu65+JyaBzZs316hRo1q1an52L9D0fharZCIgAiIgAiIgAuEjkBq+olWyXwR2bfErWTwkSinOr7tx0qlrX/tw903LGt3/035f39pyZe2Monhou9oYQwSydxcUFZfEUIPUFBGoGIGmTZu++OKL/pdB+pdeesn/9EopAiIgAiIgAiIQdQKSq6M6BPm7XIW5UW1BuCrP2Ln6gMzP7tj80NzK/Wa1eeetfad3raNzicNFO8HKLS11bc0tSLBOqTvJTAAf4AF1n/SBZqH8IUOGpPz14WTsgKpTYhEQAREQAREQgYoTkB14xRlWoIRdmyqQOT6yphTtqb9h3Bku/rkKmrRdUrPbD3kdP9rQPLdIBxTHxwhGpZVbcvIb16oSlapVqQiEg8AHH3wwduxYP0tGOvYzpU2WmZl5yy23YG2+a5e2UVgqCoiACIiACIhA5AhIro4cay815SaOEbiX3nlEVdq+shP/XK57qlbPath1csphH2btP3tHDY+Eikh2Alm78pMdgfqfWAT+/OsTpj6h3O7Tp0/9+vV79eoVkMF5mNqjYkVABERABEQgCQlIro7qoO/aHNXqo1Z5SmFuw/VjznHxz5XfdP/FNbp+s7vjsI377CmWEjtqgxJTFWftkh14TA2IGlMhAiUl4fUX8Nprr40ZMwZ9OH8r1FBlFgEREAEREAERCJaA5OpgyYUkXxLYgZfLqfK2pZ3553I9VL3GpgbdJroOHbxlv4U51cvNqAQJTED66gQeXHUttAQWLVp03333/ec//zn++OMlV4eWrUoTAREQAREQAf8JSK72n1UYUiaZHbhvgikFu5qsH93bxT9X3j4dFlbv+lXuQZ9u3KewJOCthr4r0t3YJ8D+6thvpFooAlEnUFRUdPnll7ds2fLpp5+OemPUABEQAREQARFIZgKSq6M6+tJXl4G/Svaiw/nncvWvWXtDg27jSw99f9O+S3OrlpFc0YlGQPrqRBtR9Sc8BPr37z9nzpyJEydWrerv4/Hww3my/uODxrtDhw7/iNKFCIiACIiACIhAgAQkVwcILLTJE+jw6tCCsaWl5O/YZ91PF7t+usiVktfsoPnVun6568DhGxsXl+qIOAspAQOSqxNwUNWlUBOYPn06auo777yzW7duoS5b5YmACIiACIiACARGQMJJYLxCnDo3Sf2WBYExxVVadeuCLpmDnt1257I6t07cd+gTbRa0rZYXRFHKEvsEsnLktyz2R0ktjCYBYwG+//77P/HEEwG1Y5bHR8pq/wHee++93bt3b9GiBQYC9erVO/TQQx9//PGtW7f6LqF169bmaHHn3yZNmnjmwrX7hx9+eOKJJ1I4VbRp0+bCCy9cunSpTTlp0qR77rnnyCOPbNiwYeXKlUlw7bXXLl++3CYId6C4uPiVV145+OCDDYEzzjhj8uTJXiudP3/+FVdcASva2ahRoxNOOOGjjz7ymlKRIiACIpAYBFJ4iCdGT+KyF690cm1fE5ctj41Gl6ak7m5w8O9VuozY2WHk5kalpdqJHRsDU+FW1K9eadbD/6pwMSpABBKWwPbt2+vWreuje3gyQ/7xkcDeMpbhiNs2xi1w+N1JJw7NeuEKNwjmslKlSocddtiBBx6IoJibmzt16tSZM2fus88+BBAgvWYhErma8brtttucCThs/K677nLG5OXlXXDBBd9991379u1POeWUmjVrrl+/fsKECfh7P+uss0xKpPEtW7YcffTRjFp6evqUKVMQa6tXrz569OgImC0wY0TOHzFiBC3s2bNndnb2Z599RrO/+OKLc87hfI+/PxzYjsBfrVo1Wm66v2DBAkB9+umnfydSSAREQARinkC5r0hnD2QH7qQR8fDubRGvMqEqTCktqb5l7tEu/rlerNsgs97RY4o6D9rYdm1e5YTqZ/J1ZvuewuTrtHosAgEQQAd4zTXXuGWYPXs2262PPfZYxJ4ISFlutSfD5c6dO6tUqeLs6YMPPog1/jPPPPPWW285493CderUeeyxx9wi3S4x6Ueovv/++5988snU1L/NCQsL/34e3n777XiqQ0C1eamdNvTt2xf9sI0MLoCe3PdB60jFCNVI9b/++qvhcP311/N9u+66604++WQWAky9rDIgVHfs2PGnn35yquWdHQmuhcolAiIgArFM4O8Hdyy3MnHbJmOBkI1t6u6sVmu/6bPxiQkp185v+d+P9ptwVsMtIStdBUWWQHEJehH9OiILXbVFhACmsPPmzfNaFQo9/w1lscJ9z+Nz9tlnU/KVV17JnYsuushrLYqsCAE3oZqi0N/yd9myZRUplrwrVqwYMGAABt5PPfWUU6jmVkZGhi0cQ3SnUE08MXwZ+PK4maOvXbv25ptvbtu2LUsw9evX57sxY8YMW05wgbfffpuMiP2WAw3mm4YKHXnblomlOubiH3/8sVOo5q6zIzaxAiIgAiKQMASkr06YoVRH/kcgpbS45uaZx7v453q1fpPVdbv9UtT5/Q2tN+ZXEqM4IlBUUpqRJsP+OBoxNdUvAldddRV6S7aneqb++uuvH3nkEbaket5STMwS+Pbbb2mb1wF1tjk/Px85c82aNdhsk5jDxtPS0pwJPvnkk5KSEtZEUIlTZmZmJsIwSuB9993XmcwzzJ5tDMKJdxaI5UKPHj2w0z711FN79eqVlZX11VdfoVgeOXIkO6I9C/Enhi5gc45p93HHHedMf/rppw8ZMoSz0/v06UM88jy260ccccRBBx3022+/sb+AFh5yyCEnnXSS23qBsxCFRUAERCABCEiuju4gSmwIL/+03I1tc0f2dY28Li1jZ6vDZlU64tNtHX7OqhfeWlV6KAigss74a9qJGmTcuHFz5879/fffc3Jy/v3vfzM99acGpndIKRgiosZp2rTpueee++ijjzq3pBYUFHBM0dChQ5l9smfypZde4q+zZLYsMjfFMvPMM890xkcljDCGhyTmqdhqRqUBqjTcBFDxIYGEuxaVX3ECL7744q5du3bs2MHmag45Q06+7777fBe7ceNG7LdtGvyNDR48GFdeNsYokymzXbt2VvPM9+GGG25gf7VTZrZZTGD48OE8GI866ihMzU0MPu3QotNCHhe2CrZqo1tm7wCW3miw3Qrx5xLvaHxFUYAbMd5m2W+//Qhb52qmI0SyKDB27FibrFOnTl9++WW5ywQ2vQIiIAIiEHcEZAce1SHTFCpS+FNKCmtvmnZy5pvv7rp5ecO7R+/35V2tljes9PemtUg1RPX4SwB9tUmKzeEbb7yBXN2sWTN/M/9lVImrCWauXbp0YUcic8FXX32VHad2wkpRTIUxuSQZahZMc1GnbNiwwVbBrJRNg5dddlkIhWpm4dRFY7DbrFWrFhPNu+++e926dbZSAvj7YTLNX2ekwslAAMnEue4TRJdZfGEDBVtbg8irLP4TQK5mkQu3cAjVp5122s8//4x3bh/Z+dWzIRnRGldn7ILu168fwi1qXtYKba7Nm/eeD8JSIJpe0iAqkwUZm23bPly+r1q16pZbbkHQZVnQFvX9999jVU68Faq5hfU45tm0gWJtyoACyPykr127tlsuE4NjNhNvOvL5559zLjqCNLkQyFlToFM8S1nNdMuuSxEQARFIGALSV0d3KKWaiAL/9Jx1++WM2M814qaMSjv2OWJ6+hHDstuPzfblWTcKrUz6KtFXGwYvv/xy8+bN0XKgtUb09RPMjTfeyPQOPQ+TS5PljjvuoCgc/LCJkRjEj3feeYf57vvvv8/leeedhx4Ya0amniY9uxbxc4s0bi4r+JfqEOOff/55ZsD/+te/8PrL/BKjSibozJs5Wad3794VrELZY5nA1VdfbZuHRS5ilb0kgBoQC2GsZ0O4iOMsX+HQEkA6pcBNmzbxE+Z3zWlbWLW4Wbs4a8RSxl7izYtHEM7AkYRZB8Ew29ziO0AAyxpiWHcjjL4Xax2K/e9///vAAw/gitwWYgI84hDO2dv85ptv4kvM3sVJOOHVq1dTvo0kYDaBI+4aU3CUyV6fqG5GE+XayBhfGDaX6Qh/2eRv3JizhsgjjnpZWMRz+CWXXOJslcIiIAIikDAEJFcnzFCqIwETSCkuqLNxcg8X/1ybWh08Jb9vUXrzjNS8dFd+eklxpbQqlVIrZ7gqpbsy0kvT0ktS04q1DhIw5KAzVPl/v2VeZ36+i125ciUaJA53uemmm2xK9EvvvvsukjPTWbY4MhndvXs32myTwASYiZrL8ePH46EHA0tOkbUlVCSAxgmhmiYx/2bboS2KWSYq8Ysvvhib8yB6astRIMYJWAMExA+ML/i4NZj4rl27svTjFq/LmCXQuHFj1uOQezlFnF3xeA7zv6m40eZBxHPGZjGmCmi/jVBt4jt37ozFOMpnhFLCNjEBhGoE7yVLlrD2xzKi85axyuHx5Yy0YSxxTJjHkVPgJ5Jvqed5YCQz6Y1e2mitTYz5y4ZwAlaPbTqCqblzIzdfbw7iQq6ePn265GonPYVFQAQSiYDk6qiOpsS0qOJ3Vj6mYZMqC35pu7LBH83P3ZFdOS2juEad3EpVtqaUZhfs2ZyzdX3utqyUlNTq1WtXr1avWrXa1SrXrFq5RuWMGpXTqyKBZ6RUTk/JSCtJTytOSylKcRWWuvJLSgtLXP/TuTqrUtgvAhmu4H8eeNChDrZGO93kcAbMMcccg7zNGTDdu3fHbpP5qz2zlwkfWVq1asXfPXv2YEl7/l8fv9paXiKUk8jV+ML95ptvnEI1+agECZ8tlHz++OMPJsqo5YlHkc7HFIypp53aEoMKCxGdSTwueekjs3M3C3m2i7/wwgtGKYqOC7NSdO+kNKXxl9kzhWMkj7feZ599lpOZmBkbpRMqUwonhlYxP6ZeFGJuk29bjgL+E2AQSQxkdgFwjjGHSzvzsnsW2iz3OCMVjgsCPDQ4zpqFEnyDNWjQwM82c/w1KTELt+k5Go2nk90jbeONmMpDycYQYMcKD7HFixejqXYTqrlrRFzc4Bn/8M6MzjC/bjeFNhpsHlZukTYLRkN8UVm1ZP+2c4u1UYOzuGBS0hECPG+dj19ivHbEFq6ACIiACCQAAcnV0R3E4CWH6LY78Wr/Pq1wc8tlr30177Dff9t4zn1LtjbcsaWWy8W/5qazNRsXVa+Tm1F5h6ske/fuzZs2zd+9Pds3h9TUtOrV6lSvXqda1TpVq9REFK+cUR05PCP1LznclZFWmvYPObygxHeByXU3NfhfBzocWNl5nuWGKx1mruxiZUqK/oQTXzEUR/2CXIoem4kgTtFI/NBDDyGaMmG1GSsYQII1noTYUO1ZFDI8UjdtRqLGWTQTaybE6HbwoGsSO6faGI0jnDNdZufktGnTPvvsM7ZoMqe3johQuZtDaPHZi+6LiTsacgIYvbNd3Fk78jlO3RCbUZ0Zs2QusUPGaJPyYQIEtGTUKLnayS24sFmyIS8wMUywl8GVplwxRQCXYLTHh2sxz9YaU20WWewtHkqvv/66m9IbF9xGanWurOGRkQU4Ni1jT85DzJZgA/gwI8wamW+52qb3M8BDBmtziuXjNK758ccfKYEmmXLw4sb6AqsM2Mmj0reFm645O2JvKSACIiACiUFAcnVijKN6USECmfVb/b5zhSvNte24znVGz2r6+aP1Oxy15OCrtmzau+HNfAoL0rdvro0mwOVquTcmxVWraVH12rvYo11asjU/d1NO1vo9OXvduthPSUlxzq6t/LMxvgNpaenVq9erUQ05vFbVKrWqVEIfvlcO32uOnlo5HffYpempxakphXv14aX5JS704Yn7SanAIVt++td57rnnUFlzvA0CJDsk2eqMMImwijsijhFmaojpODNXNLdYYCKBo+4OjjfOjch4yimneM2O5gdJeNiwYZMmTUKkJw1yNd7LkbE90yP64m7XyueXXnop7Se9OUSX9JzTg2hNJLblJjuGnZR/6623Msl2TnN/+OuDyG1rGThwICf9oLNyWpwyP7YJFKg4AS1SVJxhtEpAP8wil/NMZn4vDz/8MCbZCJxGH1tYWIjZNsYpuBwz7Vy4cCG7pp07SviFcrI0d9kDYvvCChdi9qhRo9gSggsGE8+KG08zFtFspezDR6ZlIWzQoEHWpMUWYgKsylE7K4OkdBpjcxd5nl83Z2W5ZfHzErMahGoeUzg/M0dY8zhidQ/zH0xvTCE80HDMhktIfFWwpGi01jgtw0yGW3Ik4SdqJRMBEYhHApKrozpqKcFr5KLa7kSr/PvmB7l27t0aN/Sg7TeN3tu7SoumdlwyI7vn7X/ktStEgvX2KchLL8jjXBP+7TUedqW7au1TWL0Wkvb20uKtebs27cxal5/7v51s3gpwjysuLtq5czP/3G+UcZ2WVqlG9b368Op79eHI4dX3yuFpe+3S0/duC0/fK4cXpRq79NK8YldRXFmlp6WW0e/go93866B+eeavjy0RX2L4l2ImiuIa6Rp7SKQgxGnmiMifKIiccqnNVW7AuBlv0aJFWSnNLaP1KiuNiUc8tkI1MaigEaHZsmjkanTXKL2ZuVqhmjRIAiwQIKizl9tpMsrk2ylU23qd2zuJ9N+01ZagQLkE8OqEhcK2bduMkydnek42dl4qHDsEWNXCgT8DhNTK4dLoY/m5YReN0MualGkn7v07dOiAPYKxASGSfc7stkDEZac0RjFI3fjrxiciz5m77rrL9o4tGzj3Yr8GAjbbtikBkZUN2IisOIawyZCxKZlTDBDO3Qy2WYkz2mCkehxxc3I15icI/Fi+IEhzIDYF0loeR0HL1TxYKBlTFxYie/bsyUZuhGq+w3QfOxfbSLysIXizOok4zaIeS5M8fOgym1Z0zpalpIAIiEDiEZBcHd0xlVwdXf7/q/374m0mNK7q6usPbp82b68VcUpJcf2vXzyqZfuVx/xn3Qa/JNKCPRkFe/Arzr82e0uo5KpTt6BazV3pGdtLirL2Stpb1hXs2f2/Wiv8X3FxwY6dm/nnZ0kZGVWqV6+LafpefXjlmujDq2RUq5Reba8+PKVSGvrwkrS/9OEuV6GrND+qcng6m9mD/3X46V/HkxvyJ9NibMW5xRZlLDPNzJUdg0xY0f9w3rVnrnJj3OR5z/TlJrBZ2CxtwwSMQI54ZiKNcSkKLrcJN/NaEmDU7cxrfbbZSFYTmDTjPeuiiy5CDGBBAU/s9q4CoSKAEhL/ZMaqwrNMT0nbM41iokIAkxPsrrErYQELMxD2w7PZhBOkWO1yqqPd2sZPiTUUfBbw82RfButcxx57LLn4sBvFmZh4HD3wFMIFN+Wzikd16MOdP0MjruMYwvqGsCUgwfKYMpcYY9NIHImzDcQojdGZIwxTeEVWymgwC3nI6hyjgNU6KmtWGVBfE2ObQQC5HbkaTw2ffvopj02SkeDOO+9kycCZTGEREAERSDACkqujOqD/fKdGtSnJW/nCZp3+zP37AOGxXat1n/c3jYw1S9qvubHJqdctTD8iL7fo7xv+hfJyK+Xl4lCaf3v30aVWcdVtmF+txq609G1I2nty9krahXl5/hVW0VSFhXnbt2/gn58FIYfXrFEPObzqXjl8rz58rxye9tf+cFelNPTh/5PDU1wFJXvt0ov9Wn3wp3Z8wPmTrKw0xnEO+6jdErj513G7y8SXiSCG31iD48cL7bHZbk2yli1bMhnFntMti5+XzGixIMWAs6z0bJjkFsnKSmDjnXutiTTeg6wkZvwAY0fKx2axAesH2MRYy1KboFevXszC0SkxaWY/NvGoxdDoW6tUm1KBoAnwHcMIgqUfxCqWRcwIBl2aMkaSAEdklet2AcnWLJPZhqFh5mMvfQdwgYYG2Ecat8J9pMQ1GnpyPj7SuN1iD4hbjOcl39jb//p43nLGIFqzuue2wOdMoLAIiIAIJB4BydVRHdPKtVy7/d18G9WGJnLl3zVq6do+3/ZwcP0/TmncsHTTXv2e/dQeNbBr/e/WnHrPqvWVbGRwgT05lfnnctV3ufalhNSqpfUa5Vf9P/bOAz6K4ovjm0J6oRNIKKH33jsIiooKqGBBREVBFFEsYMOG/lVQUVGsYAHEAqISQJooRaSLUgSk95ZKAoGQ/zcMLsve5XJ3uVzuLm8/fI7Z2Tdv3vz2srdvXotMDQhIyjp7LCMlR9M+l5npHHPXjkIPP5l4kH92sg0Oxn5TIjw0WreHX/BLD8kJDvcLIj7cHz38nJ/fWU3LvBAf/l+Fakv+/sH50qsxEMETszPRj3pO2tTUVAxNODmrpD6mSckrhgc4A++55x79EkmD9DZOjHrb0QZmKAxQCxcuNGUOU3zQitXrrNPx27o8ylBP3R0MaHpnbg2TrUyR4TjKgVWNOHN0bIqNUYGWHQde93PjI/0OIYDHLBs369atw7/XoYFCLAgIAoKAICAICAKejIDo1YV6dyJjtMRdhSpBUZ88yy9gbkaOqVA/Mv2ytneKr/7NZXo1VwNOHIqf9kjZ9jduKnVVWjKqoWsOP80vPTWEf5rGS3YNmAaGZ0dVOB0Wkervn5iVeTw9+VDK8UNZZ102o2vktsblzJlT/DupXYanNcKLfSEhERHhJUiWHhYaTdGynPhwnNJz7OHBwVGXuUfaYMIly0RBRD8SpohejXFp2LBhajhGQtRFEupYrWaEVZbwaWpTKWJiBVF+CKdUFWWIokQtN5XIsi2V8Spxj6+88sr333+PxduSCcZhbOPY2JVRS2UV1k3QRj55tvU8wPbo1Ta4ARHZfTlIxTR69Gjy/YpebQMuhy4R5sr2iijVDoEmxIKAICAICAKCgOcjIHp1od6jiEslKApVjqI7+cr45ifOmP2iP6iy842goGxrRuPwZTOaRyw81HPUtqNR2dbTmeUfTL/05FD+aRoFTnMKgRaLzC4RfTokPMXf/+S5M8fTk9C0D5/PctgpPf+SuZbD6dNp/NO0fZZs4+rWj9faq350XaXuHj58mB5iFFWibByzyeBNj2WiIDqpDkVEH+olYX6kEcL6isWYYEgykCm2xk/U3TFjxhCLaKx+RDJbigxTrYp446lTp0ZERDzwwAPGUfa3SfNLIh+iasnI/dNPPxl1VJbGLOjSCKxM6+RDgrMNp3Eb8xJ9jcDESKOrY343UpJAiHBNVTXX2G9sgxWgGfOWkZkJAqezHBmZS1shwF1gs0bQEAQEAUFAEBAEBAEfQ0D06kK9oaJXFyr8TJ5QvLSWaNar9wYkJXVoGL1onVXp/NOSY6c/Wapx163V+5087pb342y/tKRQ/mnaxY2Y4OLnI4pnhISl+vmdPHv6mNK0s88XlKJvFYcC7QwJj1T8STxLPCppbPXpyGfLwSk6sNKr9UuqQTUXY/kZalBxqEvEVyutlVNSf5OEDIVZxSRjRjbmyoagdu3afDIEl10q05Boyrlk4Gpq4gyxlqO6w4o8vUyHmX3FihUo/OixpALCOKwo27Rpgx5LNnKqf6kZMbkrB29FYPuTel2wwpudwmDsCBCPTfD2xo0bKR7LloRtvZrEQmRFUtmPyE5MYqTFixeDszG7uO3Z5WqeCJC5Hc8FQgz0kuN5DhECr0Og2eNfeJ3M+RR47dgB+eQgwwUBQUAQ8HYERK8u1DsYKfbqwsQ/IyhsUeq/ViWY3iBl8CKrVy52hmxY3PDvZcdveGJLSmyW2+tIZ5/3Tz0Zzj9Ni1EChZZE004PDk1B087MOJqeeCj1xLHsAjOp24LGFddCIi7q1ZiRyWqLrZiMuKT+IpHYlClTTDOYEgVRVMayRDA1V1ERjaVcR40ahapMzVU4f/nllxS/wR6uZw4jxReZeKkuyyXTdM6dYosmHxh5tnFNp3YOlmFs1EiOKvvwww8b8/3iek1NGtL2ksUXVZzpEMN+vRpW6MOk6oUJuwb4k5OfDAs5yrmxQJfVVWBUR+UjIzGh4AhMtjZ6EE8V5rU6RDodRYDdnJUrV1ILjY0PCi85OlzoBQFBQBAQBAQBQcAzEfCzP7ekZy7Au6VaP1X7Yah3L8GbpZ9Tu8vIM9b1apY1/cd4/03b81zf2epNtjW/78hhj7MVBwRmoWkHoWlno2kfSTt5KC3xuJbtspTdeSKTH4JWvfu2vyXH+oHzNooiJU+JcCapmFW92p6JMAKjzGC4xhMbep576OpoufhLcwpzjLSvvfYavt+KGy7f6KWbN2+2UT7HnnmFRhAwIUBQAK4KqlY52yWmBO8kk2OLxzSkoE/J+s4UlnWb9HnF+qpDYWdDELMTKCETBAQBQcDDEcjzJ9Iov9irjWi4vS32ardDbpxwdmgx7VK+Z+OVnPZvbSI721FWqdiO9XX/HVrh2mGbztXNPJ1l5lJ451nnApKPY/XlX6ymNUCQiDJZ4cVPBYUko2mfST+aduLAqaSThSegrZkjSuTEGHOozN6q7fQnLtAo1eQhI9O1YkI95/T0dL2As2rs2bNHXcWeTB7sb7/9VpRqpzGXgbkhQI56KhXhC6AITFvbptPcmEi/ICAICAKCgCAgCHgaAqJXF+odibjoxFuoQhTRyU+Gl/49eYeNxX9aelPX0qXOHz9hg0ZdwuujxOx32pSP39nl0X0HHUhknSdn1xKcOxuQfCxK0/hXMYeznxYZkxUenRYUnJx9/sSZ9CNpxw+mpyS5dlLnuEWUvKhXOzfcNEqVYibkWKXa5irZmIlq1g10eD7TqZKWZWRkDBo0CP9wDhOfgj4lH9vnn3++a9cu/MMLei7hX1gIEMFeWFPLvIKAICAICAKCgCBQcAiIXl1w2NrBmTpbchQSAvPim547tdXG5Gf8sv7tXC3+u7z1asUk4NCuGtMejLliwKawdumpbslnZkN6+y6dPROQdDRa0/h3wXoWoEWVP4emXSwITfv46bQjqccPnk5LsY+ZK6kiS5V2FTv0ZEKyiRZGW9Z54m1L+DQBrsnJydixCaKOjIzEyRyCZ555hoRhREHrxC5pbNu27YMPPqBONWoVJbuYrkaNGuTuvvXWW5WLkUtmESaCgCAgCAgCgoAgIAgIAoWCgH+hzCqTXkQgrJTmL1sbhfN1SAjIuyL0h/G7tEDHblDkoi9a/vZ0tfKnsQZ745F5OjDxSPGj+yofO9AsNfkardig6NgHy9cZWKlR77h6HUtXrhkcRrK0Aj8iS1PN2zXHN998k5SUdPXVV1eseMFK/x9XoqlHjhy5atWqTz/9lOzcJBJDwSY7N4m43377bYp4kTmMNGa47KL3Ll++/L9xDv+PZy+sqPVFmjT0eYK6ieImFRkGc7KLURlL1+Gpob1lyxbEcHgOGSAICAKCgCAgCAgCgoAgUKgIOKYzFKqovji5n58WXlZLPeiLa/PoNe0rVWVjSt7JgXYGJqa2bxC5ZL1Di/FPPl75q0fLtuq5Ofb65JN5a+8OMXc/8Zn0oDPpJTWNf/HM7heslSh5JjQqLTAw6fy5E6dTDycfO3D2dIYLBSsWEhoWhQndNcdHH30Eo8GDB5vYUeUIPZZD76fyFjWfyRmO4RrtmspY5BVv164dJa979OixY8cO5+pskf8ZVmj1FNOCmz4djaNHjzIRNnPViRrPYSSQtu8h8MUXeVRgGjAgJ2OfHIKAICAICAKCgCDgXQiIXl3Y94vUZaJXu/0mzK5YT0v+y55pv2uYftcSewjNNKF/zG4S8suRG0b9c6zU+fPekYXbvIZczjNOBfNP0wiBrgZJQKgWUfZ0WERaQGBS1tljp1OPJB89cC4z94xwubDVu6NcZ6wmoTc1oskobqywpU9kamBVPnDgwPz58+kfO3bsFVdcgT5Mu1atWgQ8Y1VGQzYNyfOUUtuUCqMW9Ny5c7GKm+ipJv3KK6+cO3cxasAYX02t6bZt2/bu3XvmzJmmUZi+YXvo0CE9rdrPP/+MjR3bOx7mLLZPnz5PP/20KdG0iYmcFhYC3GXcFqzOjmsDl0SvtgqOdAoCgoAgIAgIAh6OgOjVhX2DoitqBx0zhxa2xL4w/5xz9kZNzw3/d2Dtan5b8zZuW+Lif/pU+a+fLVmv7T/17jx+1Dsiri1XYU9PRmoI/zSNoOjq0AeEZ0dXOB0SnhYQkJiVeSw95XDKsUNZZzPtYQVN8ZgKdlLmSWaZsSy3IevXr3/99dcJgcYNOyUlhTJIKtwaelI34xa+aZMd2eEtuFODGrX5tttus1SqdVpczfW23qAwGPr87NmzT5w4UarUpSxuKM/U8Sanmq5Uo+1jV+e0Z8+eKOobN24cN27cnDlz0MyjoshRJ4dnIcBXwiQQcQqrV6+ePn06t1VPWW+ikVNBQBAQBAQBQUAQ8HAErLzPebjEviZeTENty4++tijPXs/fsQ12n3LA935F2+LtbCU4y2O1wZtWNNi66sT1Izafij+XeT4Pap+47Kf5nUoO5R+JtzWtJmsqFpldPDojNDzN3z9H0z6VdCj1+KGs/+y0pkWXio0z9Th3evr0aRKSkbGMTOC2OaD64gFOTS8j5Zkzl0zusLLNIberKjC7a9euuRHY6L/zzjufeuopvMcffPBBnYyE4bS5pHqo741SjRKOIq0bqD/77LO77rqLfiK69YHS8BAE9HtnkodbhlL90EMPmfrlVBAQBAQBQUAQEAS8AgHRqwv7NpVvWNgSFLn5Z5etpCXZ5QSuoPm4zOb2JYpnJzpfgMov61zp719vW7nujrYPHjzkUz7h9n57sv1OJYXxT9PK4ljNqKCo7PDiGSFhKWja584oTfvw+awsLpWMvSzBmO0pzp49+++//xYrVqxatRyndONBAerExESsuKaMZUYa1SbKmvDpWbNmqVPMvFit582bh76NMfnXX3/Fv9qGwdmSod5z+PBh2qZUZKQER/XVadCHH374Yf1Ub9xxxx0kJ0eR1vVqIsCxamKUJg2bIiOlOY2PP/5YV6o5xdMYt/CpU6eKXq2D6fkN4g4I4x89evTixYs9X1qRUBAQBAQBQUAQEARMCIhebQLE7afYq+VwIwJZfgHzMvY7NGG6/9k9XRpUmrnKoVGWxIF7NtfeM7T81UM2+TU+nZ6jQBblg0jStMQw/mka1ebqAEVwifORxdODQ1PLVM45VQe6rlJ3lYKKbzNKI5dwzMbbmQYR0cQbU3rasiywylhGPS3FKrdPHLwJgX7zzTdV/WpFRsru4cOHUwerVatWKKgREREPPPBAbhxs9BMxy1VTPC2iEsutj2Jeq3o1kdLoWgsWLCBKvG7dutD/9NNP1AB75JFHdNdxAGFPgR0EDp0hDTTwY8eOmXzIjQTS9kAEatasSSSCBwomIgkCgoAgIAgIAoJAnghIna08ISpggqjyOSnB5XAXAr/HtzhxJtHR2T6stsfRglu5TRE994NWq8dUqeDL4da5rd12f3aWf8qJiOMHK5SMLadTbtiwAYMtB6m56CRflzr97rvvdBqrDQpWLVu2LM+MZVlZWXiAozwPHTrUyGfYsGEvvfTSvn37Jk6cGB8fj+3auWTgKr83yr+ReefOndG3OTC2G/st22oTgSWrS6phdCRGc4YJWrrpQBVnSFpamiVP6fFYBLhrpi0YjxVVBBME8kSAp9Mnn3xC8sXq1atTVjA6Orp9+/bUNTx/Pu94qISEhCuvvJIHOAOrVq168803s4donJHdSf5YLI9bbrnFSEbKSUsa1cMT3khZQG1+Yij60LBhQxZCFgwyaJJK0+pcf/31FzkL8a6iVgVOSZ06dcqzdoBVPtIpCAgChYiA2KsLEfz/psYVfMfC/07k/4JFIKF4SS3RgeBqJc32wBOn2tQLX/qnS4QLOLa/6rThZTv23VziirRkUbAvA7V4ubDAYgF6Fxm5OfRTywavTSiolv0Ysa32mygDAgKoWW3q5JQXL3ywOSwvOdRDYS1CoCmOjfbu0EBFzCspTulTpkwhbTiWapKKN7pw6Kx4VeUllUt6jzS8DgHuIDs4OPNzf3UPf69bhQgsCJgQwInm/vvvZ2+R1BVkfzxy5AjVDQYNGsT3nEs8Y030+unIkSPJIkm+xl69euGaRJDODz/8MGPGDPTM/v3762Q0eBxCY+ypX7++8RRXIPICGnv4XSDwh+1IN/ytMRd6PrvAJKEknIcH9ddff92xY0fWcsMNNxilIjIIZMLCwghc4kcNmf/++2+yZkh1ACNK0hYEPB8B0as94B7hCi56tVvuQ3pQ+KJUZzJ7I933jTP7L3WllBG/fdM8Yv7B657cfjjCmmLoyrm8iFfpuAgvkjZPUTE4v/rqq7xXoaKj6udJbyLAxNG3b19sPgsXLsQCT7y30VgNcevWrTHs4MruXPi3aTo5dQMCJNKzqlHwCo4iQYE3N8ggUwgCbkCAuIYff/yRbHx859V07A+2bNkSrRIFm+z3VmUg5IcYH/yDKG2A2VbRsDtJ9keyD5j06saNG9veeLUMscH1CaW6SZMmzZs3tyqA/Z14HmE258htCOkwePhTMZGt1ZAQSmZoQ4YMwWh/7733spzIyEg1cOXKlSjV7AjgGBUTQ2DUxSNPh6b/COV/QUAQ8BQExA/cA+6EpC5z1034pWrLjHMZzs32Y8R2rUa8c2NzG+WflhT31cg2yd+XKCU7XBdB8jG9mmxqaNREO2MbsXT/MxlSrH5PlCs4hhoOwqr16l+KmFhrGrylURjMOPzUqVO8qxl7pO0hCGCtMh28neOYwP4LfuBObL54yLpEDEHAhACq43XXXacr1VxFaUSxpLFkyRITsX66Z88ePDiIzdGVai5h8UYLJWeETuZ0Q+XdGDx4sInD/v37MSnjc44bNjtc119/PdXvTDSOnhJGxBDydyilmnaLFi369evHQoyhTKTzwF0cvySjUg0xuTMcnVHoBQFBoHARkLf5wsX/wuzlG3mAEEVChNmhxbRLtZMcXvIf7Uq12r7L4WF5DQhZt7DR30uPXT9ya1JM1jkrLs15MfCp66Ur+pS9mnuDjQVTJLF8+IQ3a9YMcw1RdqSTuWoAAEAASURBVGjUWDmwQkOAlmXjFjKK6ETcJrFd8JJqfNdkFInN0MeefPLJGjVqELlHKDgx1byYksMcqwjWDxuc5VKhIGBDoygUeWRSQcCdCChdUc+8aDk1j7KgoKBVq1YdP34cJ3BF8Ntvv1GUweTyzSX2Ez/88EOVoJFyg4QxWzI09uCLTvZH8lDedtttxv5169YRzo2f9lVXXdWnTx+mJl8mj9Dvv/+e56qR0v42lRrZS8W1m/yXxlHssVIAkrT/lNajH31+6dKlGM/xOcIsv3btWvxZsMOzlWDckjBykLYgIAh4LAKiV3vArSkRrwVHaWdSPEAUXxbhZHjplck78rPCD2M2ty4enZ2UnB8mVsf6Z54p992LJWo2395k0JEjRTpVeOm4i65xVoHyxk5ekvBUvPXWW0n1zGvTtGnTMCZje8GUTfAhxbSaNm1qe134fj/77LPQmJzA1ShiEdG9KbhFnjaiEIm4pqwXWdBNL462p5CrXooAd3/NmjXbtm1DEyBqgNzy6B6Y3TC4eemKRGwfRoBIFvxuWCAl5XJbJtuOr7322ogRIyiCwJeZbzKVFPEn7969Oyq0aRTlEjj0Tlw/SO5ILLfeY2pMmjSJDUqcgHQfbAiQinAbdiR5PpMtTA1BY8e2fM8997ABigXbxMeeU8LCsUJjADdtIrBxwHD+ZhUTZRWnE/O+cdOtQYMGeMuzqWrPXEIjCAgCHoKA6NUecCPI3hHTQNuz3ANE8WUR5lZtdi5tS35WmOaXua9T/bgfVuWHiY2xQdvW1N2+tvx1wzdn1s48XRS166gyoWFRQTYg8t5L5K3Js5o0qWs4LNeYkz/NZgY17CoclgOlx5MRwE61fv16PBfYCmFvhdTHTkjLl4qxqBw4MijnfzZx8HQlCiDPsu1OTCdDBIH8IDBq1CjScWEBxixsgw9B0eTuItcjyfwUGeolyrDRWwc7MLuNKN4ortAQjM03H8UYFx6qSISHh1vyx2+IXBX0m4ovkqIC1f2xxx7TlWpoKlSogHs2khAa7ZzJOjk5Zwuev26TJKpHDwI6evQoBN988w3GeRRp5MdLnPoO2LQJTSdJONZ7Ewc5FQQEAY9FQPRqz7g1uIKLXl3At2KOfz5cwP+T7ZMa+54PCNCyCkrp9cvOLvnj+Nax1Xd2emT/ZQGz/0ng0/9XqlPSp9cnixMEchDYu3cvb/ZGOxud6MZ4NKBO5FDYfaSkpOihm2rQ008/TXYoMh6///77drMRQkGgwBHAp+aNN96oXbs2GqPtyUgG/tRTTz300EN4XhByvHXrVkJdSC2BwswlNRYd+8UXX9T5EE0zf/58thep74DyPHz4cP2S3iDuhkqN7EOZMpapCl6Ez5hSoG3fvp2xJIxUejXGZHyzdW56w5SGEN0es7l+1bKBek+nPgqbNqd8IjbJwGlTAwKrO/PiikKON3ydLJlIjyAgCHgmAqJXe8Z9qdDEM+TwWSn2lo7fmLIz/8vbXOxYRuv6ocv/zD8rGxwCD+yoOe2BmG4DN4W0yUg7Z4PSxy5VrCt6tY/dUlmOGQHSHeO3T0lzVGiUAaoQHTp0CB9+pRXwJm3KXWQef/m5SanmIh6t6NVKJbicVs4EgUJD4L333kPXxbUb8y+e3jbkQH0luoFMfm+++aYiQxMmzpns4qjlpD1TBmpLDrhbk1UbvZpgbKt6tcpYZjJWw4fwbD7JYWHJkx78w1U/f7DPPfeckQb3IszOppTj+taYsksrq7VxFHthnOp27BIlSnCKq7nRKo7WTSEungbEmYtebURP2oKAhyMgerVn3KCqndm+1LSinrOq4G5GQlxdLfkvl/D/scm5fm7x2Y9a+FnLknP39xj570Fngrtcslh3MqH8UFytnDcMOQQBH0aADHYo1SqClPLpaqVYq/Doxu+U1METJkzIz/JJy8TwPBM45WcKGSsIOITA+PHjqVxAHSmUaqMvt1Ums2fPpt9kGcbrm4yPaNeETuSmVzOqTJkyfBIQYckZd2vST1hmLINSqbhcJQe45UC9B4XZZNBmC4Doa1OnTo/vOn/gWMiJ3zaGWKs9L7YJFCUhQjSI9zZlKVP6dkaGkxVMdDGkIQgIAu5EwN+dk8lcuSIQUVYTk3Wu6LjgQsK5nA1plxwzIv/RqlZ2Cas8mQScPFJ52ojWmQuiShTLk9jbCcpVjQoKlZ0+b7+NIn8eCBDMSebhxx9/XFeqGUCb8E76lVKRBwuLy9T75eUe1YXMwwSdolQTyGpBJR2CQCEgwBYS30wSXOMgnadSjXyk0ebTsqSW6rEdbKyKC1pVvCdPnkzGMmy/xoxlCo7WrVvTICm3OnXVJyZoKlenp6ebOM+dO5cpyFKmJuKvlchq8g6Sq9w4NYHonOrWb+MlaQsCgoDHIiB6tcfcmpq20nh4jJReKchfcQ33nHJlsPLa9mXdCUTYillN542oXS4Ri64753XzXBUluNrNiMt0hYEAfuCUW7M6M/1ctXrJdid6NYmOsAriT06mZVzKleHO6ihmMR1EclqllE5BIJ8I4J3BFg/fNyzVetEsI090XcKnSRumd6qqVPhs49ahd6KLLl++nKgHNFXVib93ZmamTkCDylUqN2T//v2N/bT1jGWWZau5isc11RnwVJ8zZ45pIKHXKMamTvtPqfgAMVknT58+rUaR/fvrr7/mz/PGG29UPZiylVS4q1C4W3WSrgwncy7ddNNNqkc+BQFBwCsQEOuQx9ymGldqS/7nMdL4lCCzy1TUkpJcuKQPym/5JDIyOzXVhTxts/LPSKvw9TMlG3b4p1b/E8d8M+K6Ut1StkGQq4KADyCA0ykZkqwuhHxmetSlVYLcOpU2jr2LermoMU2aNMHuTVRqbvTSLwi4AQGSb40ePRpfDFRlkpYZZ8QMS35velCe69SpQ304HKoVAZpkt27dyDFGP1HWpBtg34fvM7rxq6++qheQIwZ706ZNZAhTifTJB45eDQc0eV33Vgz55BJVr/iLQMPXO/UGJbVJxE2KcvJvMxbTOm7n+/btQwfGi5v0B5zqxA41brnlFjh/9913/Eled911BHKjVBP0QZ5zkpPprEjSxr4DFchQp1kRlnnSlaGKE08udbZ0lKQhCHgFAqJXe8xtwg88vKx2KqfighwuROCcf+C8jP0uZAirZP/TBzs3Kf/TateyzZNbyMalDTf9fvyGx7ekVjp39uLGdp6jvIIgODywbGVfq1ztFciLkG5GgJTFvGcPHTrU9PaP/Y3MSbzZOy1PuXLl0ENQHgjdHDBggPIjteS2du1aU6dVZcNEI6eCgKMI7Nq1iyGokXhSmMZS0Urp1aZ+Tgkzxm6M9Xj69OkEVGMuJs8ZOb1ID06ghE5/xx13cBXVF1M2Rm++/GTsI3+4MnfrZKqRW8YynQxn7D///JNMaSjweIwjAwkFUYZxA7FqZtcH2m6Qfuyrr77iL5262e+++y72dlIVYr42/e2jt6NXk+qcJbNwZZZ/9NFHr776atv85aogIAh4GgKU9ZFcWR5zU2YN1TZM9RhpfESQpdXaDD1/yZ3MVatqmFnumbcOaf95bbmKrZ18zsbX39H6gUOHfEe1rta0bI/76tu5fCETBLwXgXXr1vFWjbKBLYvkTLy+Y20mARLv37zN4+yafy0XfYCKRFi97FQJ1IyW+rYOcrPHv9DbRaSxduyA/KxUEMsPejJWEBAEBAHPQSDPn0ijqGKvNqJR2G1cwUWvdvVNSIguoSW6Xq/eGHTkTMt6wSv/crW8dvErtuvvOrvuL3/N0E1awzPpBVVM2y5RXERUqZ6tyisumkTYCAKFjwD2ZOzVGOumTp06bdo0JRAb3BjlMGrlX6mG4cGDOekkjHnRCn/ZIoEgIAgIAoKAIODrCIhe7Ul3uFpXzb+Ydv6sJ8nk3bKkB4UvTr2UEMW1i5ndJPvGla5l6Ri34nPeb1Wu8p4rHt1z8GK1HsfGexK1JC3zpLshshQsAj179iTEmro+2K4pb0tMNRbmXr16hYeHOzQxCZ+KFy9urHdN3iPygVNSCJO4qtPjEEMhFgQEAUFAEBAEBAGnERC92mnoCmBgSJRWqbW228XFHgpAUK9hubhqq4wzOwpI3G+it95UJS57t4uDtx2SNvDInmrTHirX+bZNUZ1OpXhrPrMSMWGRJUMcWrgQCwJejQAq9G0XjvysYt68edTrImKTbMbkcyJv2a+//kqmJTRtEiPlh7OMFQQEAUFAEBAEBAFHERC92lHECpgeV3DRq12H8WzqIefUwiyQI9tPW9++fONC1avVwiKWTGsROe9Az1HbD4drXpgwoWJdcQIvkK+oMPVtBEibfN999xGSTcqlpKQkdHUylpHPiQxPeJX79tpldb6EgISj+9LdlLUIAkUZAdGrPezuU8V6wbMeJpO3inMioszK5O0FKv3E2K0fRYRnp50q0FnsYe6ferLiV0+Ubn7Vlso3Jp3wslCCak3cWg/cHjyFRhAoUAQoC4QyvH//flIZGycigTCO3MYeG+369euTPdgGgVwSBAQBQUAQEAQEAbchIHq126C2b6IytbSSVbWTO+2jFipbCMyr0jTr1BZbFPm+luifcaRTk7IJ7i64lZvgoWt+brLx1yM3jNp6suz5LO+wXEeVDilfPTq3FUm/IOBjCJw8eRKTMi7crMuyHodDerWPISPLEQQEAUFAEBAEvBoB0as97/Y1vk1bPMbzxPI+iRICCswF3ADG5NqHR87x4wXZ0FeYTb/M0zHfPl+yTqt/Gt517IgXpAqv2SoGXaIwIZO5BQE3IvDwww9TcRcX7v79+8fGxgYGyq+wG9GXqQQBQUAQEAQEgQJDQH7RCwxapxk3uUNb8qp23ltzUDm9btcO3FO66l8p7jD7rw06lNm8XtDqv10rfz65BW35o/4/a05eN3zz6Rpnz3h0mevarWPyuVgZLgh4EQKzZ88mWff8+fO9SGYRVRAQBAQBQUAQEATyRMA/TwohcDcCkTFazR7untTn5kuIq+O2Nc1r7ol/R37ns0r98GabzeNjK7gNCYcniqkaHV0mzOFhMkAQ8FoEsrKy0Ku9VnwRXBAQBAQBQUAQEASsI+CJ+oB1SYtUb7OBRWq5BbHYhLPHC4KtVZ5Tozf7VfRQ5TVw3z+1pj3QPGhdaLgnOqfUEmO11a+UdPouAk2bNqUUlu+uT1YmCAgCgoAgIAgUUQREr/bIG1/tCi26kkdK5h1CbYxrtDf9kNtkpeDWXx1i3TadExNFzf+01e/PVa2Q6cTYghsSWMy/RnPJBF5wAAtnT0SAdN+4gi9btswThROZBAFBQBAQBAQBQcBZBDzRhOXsWnxonL+/1qS/tuQVH1qSW5cyu0yclpTozik/iNv+XmhodkaGOyd1aC7/k4erTHukbLvem8pcnZp0WWkfh/i4kLh687LBYcVcyFBYCQKej0DXrl2nT5/eu3fvnj17YruOjjYnwx8wYIDnr0IkFAQEAUFAEBAEBAETAmKvNgHiMadN79D8AjxGGm8S5Jx/4M8Z+9ws8dGAtGOd6rl5UiemC1v+fbMFj9Uql+znAX/69TpeZuRfunTpjTfeWL58+eDgYD6vvPLKOXPm2LnGL7/8kqTiHJ988olxSGZm5jPPPBMfH4/20qVLl3Xr1hmv0l6wYAGjEhISTP1yKggUEAJ8J3/44YfExMTPP/98+PDhdxmOgQMHclZA8wpbQUAQEAQEAUFAEChQBMReXaDw5oN5VAWtxpXatrn5YFFEh66Ib3HyzAH3L/7LOscfySlJ6+mH/6mU2K+fKt2o85aat548Vmhp50tXjIiJv2SpGzNmDP6xpUuXxoiHUn38+PH169cvWbLkmmuuyRPQffv2DRs2LCIiIi0tzUQ8atSot956C3U9Li4O3RvVeuvWrfBXZNDfe++9lDu69tprTQPlVBAoIASefPJJNOq6dev269evQoUKUmergHAWtoKAICAICAKCgJsREL3azYA7Mh3Zy0SvdgQwRZsQXUJLLAS9+veQ/cOa1g1ct9lxkQthRPCfSxpuWnHihsc3p8RlnS2EQlz1DBHp3377LUo1FX1nzpwZGRmpw3H2bN7+6tnZ2Zj4SpUq1adPn3HjxuljaXDpww8/5OqkSZM4xfO2c+fOaNdPPPGEIhs5cuTp06fffvtt4yhpCwIFigBO4A0aNFi9enVQUFCBTiTMBQFBQBAQBAQBQcCdCHiAM6g7l+tdc9XorkVd5ijrXeIXirTpwRG/pOwolKmZdEELb4oW9j+XWWbGy212ToyJcXfEQbHggJoty6nbdP78efTbsLCwadOmGZVqrhYrljee77zzzuLFiydPnhweHm6678eOHUtPT2/ZsqXqV409e/ao099++23ixInvvfdeyZIlTQPlVBAoOASSkpKIcRCluuAQFs6CgCAgCAgCgkChICB6daHAbt+k/gE52cvkcASBRVVbZmSddmSEK2m/KLnZr0KMKzkWPK+gfzfW+fr+JhFbgkLdp13XblM+KOSis8yKFSt27dqFv3eJEiWIc37ttdcwIP/+++/2LH3Lli14ehOk2rFjR0v6MmXKhIaGrl27Vl1as2YNjcqVK/OZkZExaNAg/MM5LAdKjyBQcAjUqVPn0CH3VSsouIUIZ0FAEBAEBAFBQBAwIiB+4EY0PK+NK/iy8VrWGc+TzEMlSkBbKzS1WsvSsjd3qlTnq8Meik4uYvllZ5eYPaF1+Sq7uzy692CB77UFBPo3vSpHuVUHDrE0ypUrR27kv/76679uDVX5u+++QzfWe0yNc+fO3XHHHZUqVXrlFeuZ80lIdt9992HQTk5Ojo2NxQMce/jtt98OH5KZnTx5EmO1iaecCgIFjcCjjz5KVP+2bdtq1qxZ0HMJf0FAEBAEBAFBQBBwGwIF/g7ttpX45kRkL2uSowbIYQ8CxyPKrkzebg9lwdFMrLjNLzSk4PgXHOfAQ7urTxvWwv/3sMiC3W6r26FCRIlgfSFHjx6l/cEHH2BDXrhwYWpq6t9//33VVVfhp33zzTfrZJaNF198kdxmn332GUZpy6uqB+s3TuarVq369NNP69Wrt2jRIhTsP/74Y/z48VjFSZP2wgsvkMaM3FHNmjVbvnx5bnykXxBwFQJ8A3v06NGqVavnn3/+p59+4ntuOlw1kfARBAQBQUAQEAQEAXciULAv0O5cic/O1X6Etu5L7fxZn12g6xY2L75JVtoW1/FzhtPhgLQTHRqXnJ/jcuyNR+TiKS2j5+2/ZtSOw6FatutXEFDMv1mPS8ZqJsjKyuKTHGNYpxs1akQbBfj777/Hmvfrr7/iEN6mTRtLOVCVMVNj+rN6VaenZNf/Lhx6D1WO7r77btzOMVyjXaPbPPfcc+3atXv55ZfRdnbs2IHlXCeWhiDgcgRInocnBV94NoZoWPJXfxGW/dIjCAgCgoAgIAgIAp6MgOjVnnx3LshWvKLW6BZt/ZceL2jhC5jgX3gu4IbVT6l34qH5hnNva/onH6/01WNlWl6zOa5X8kkXb+jU7xAbHn3JWA02hFXzWbVqVaVUK7QwQWOyxsiM/mypOSsPcBTvl156yVF0MVAfOHBg/vycOzR27NgrrrgC1Zp2rVq1qlSpgmc42o6jPIVeELAfgdGjR1tVp+3nIJSCgCAgCAgCgoAg4IEIiF7tgTfFQqQOj2p/fqWdL7RSwxYCeWLH7jLV/k7Z5QmSLQvZ90Cj2gF/bvUEYZyWIXTVnKZ//nLkhie3nih9Pss1luvAIP+mlxurEQ+Fls/ixYubRFX6Ns7hpn5OqTtNeCqNkBCzyz2RqxxkMsMWbTkQv/HXX38dn3N8cVNSUg4ePKjCraEkThu38E2bNlmOkh5BwIUIqH0cFzIUVoKAICAICAKCgCDgCQiIXu0JdyEvGUrGaw37aRum5kVXpK8nxNbWki9lvSpcLBa3Cu3+Z+GK4ILZ/c5kxHwzumTdNlvrDzx+1AXbOvU7xYVFmWv2kp+M8Obt27fjoW0sPkSUNWvAhmy5Ery777nnHlP/unXrUJvbt2+Pom5p4oYYKzce4F26dDGOPXPmUlJAalmbeMqpIOBOBKg5R8T1DTfc4M5JZS5BQBAQBAQBQUAQcAkCole7BMaCZ9LpCW3jNxJlbQPohLPHbFx186XJJTddWa5s9pGcjFzefgRt/r3B1lUnrh+xOb3quczzTi+HmtVNr6pkORwrcb9+/aZOnYoD9pgxYxTBggULfv755+joaGKe6Tl79uy///5LOetq1apxipf4J598YmKFGRC9+s4776SAlumSOiXOmvDpWbNmqdOoqCis1vPmzUPfRrEnlpuUaYR2Wx0rnYJAgSJAWXW+0pRhpwSXxFcXKNTCXBAQBAQBQUAQKCAERK8uIGBdzbZEFa35Xdqqj1zN10f4/Vmx0b50D6pudc7v/LbOVWp87Qt6NV8Rv/NZpWeNbVup9r/tHjpwyEmf8Aad40IjzMZq9f178803ydFN5jASI7ds2RIdg7xlAQEBH3/8sfIPJyKaqr+Unt69e7dzX1kcvFHamUjVr1ZMnnjiCTzGO3ToQHJmFPuIiIgHHnjAOf4yShBwAgFU6B9++OGjjz4iEz7GauKuu3Xr5gQfGSIICAKCgCAgCAgChY6A1Nkq9FtgtwAdn9CCIuymLlqEs0vHedqCJ1b61y/4sgRdniaho/IE7t1a66uhzYL/DAl3eD+uWEhAk+5WjNVKhrJly6JXP/LII/v27aPc9OLFi6+99tqlS5farrNlv/xoL3iAozwPHTrUOGrYsGFkPmPSiRMnxsfHY7t2WzLwJUuWoER5WqitSlVthEjaBYTAzp07n3rqqYoVK/IlxzujVKlS1FSnEzeNAppR2AoCgoAgIAgIAoJAgSIgenWBwutS5hFltNaXaQUu5e7FzM75B87P2OdpC9gfmJzUob6nSZV/eaJ//qjVHy/GV3AsT3jDLnEhEcVszF6yZEmMybt27SLK+sSJExjxWrdurdMTZU1dItvGanRUaKw6gWP6Rm/HGG7Kw8wpysz+/fuJsibxONW29BntbMAhtwPN2U4m7icbOHAgYtvG0/1SFYUZCTr49ttvu3fvTjb7V1999eTJk3369OF7S0w1cRBGZ4qigIasURAQBPJEgAqUbAHjV0XsEs/t/v375zkEAp4qkyZN4mc0MjIyLCysSZMm7FmbYkxIa/Laa6917dqVDT6Sm7CtzIPol19+sYe/q2hmz57Nfi4xX/iLsff9+eefW+V8/Pjxxx9/vHbt2kSB4cXGckaOHGmVUjoFgcJFwGG7U+GKW3Cz8yqP62lCQsJff/2F0ymPmAYNGtx14fD3t777QPYjHluIxLOpevXqecq2YsUKPFFXrlxJeiToMaDxrOSNXx94+PDhESNG4BDIo5MXL9QM7Hj6VRpP/5z43jtpm+4Pi42yLpKRuOi0V8S3PHlmvweu96t6yUMWeqBc+RUp4PiB+GkPl+1w06aSV6Yl561gB4UGNu6Wq7E6v9J4wHgqYFtKYTXjmiWZR/V88cUX6enpHiWSzwjDzwRxDbw18oLIK2/Tpk3Z3bjtttvYUcrtJ8Zn1i4LEQQEAacR4L3xzz//RO2Mi4vbutXeOiOkGvnyyy95hyR9SXh4OC+WBD2xucy+Hm+YSphnn33266+/rlu37jXXXMOD6J9//vnxwvH2228/9NBDTgts/8AJEybwGoy3DpsFvHWzg8BTkZfwcePGGZmQOYW6m7ylX3nllb169eIVGteeb775hk0BI5m0BQFPQED06ot3gWfN/fffX758edIFU3HnyJEjM2fOxPY1d+5c42NIv2dkbUWp5klHyR+900YD+9uNN95IWSCecTy/GI7X6/Lly2GuRhFcd9111xEFymOFV9spU6aQYwlVXH/lyikR9ObbHzx+W2zQjzYmKoKXZkcX1xI9Ua9eHLb7vvo1/f/OqQjle0f40u+aRyw42HPU9iNR2TZjrptcWSkk3Jax2tvB8TR3bqfx5NHn9FgZaBsB0tTzOstrLk9+NmwlQ55tuOSqICAIKATeeustNGqMMSTX5AXVHlhIz4lSTXATflhkBmUIuT/79u07Y8YMtvZ4yVRMSAuK1Rfbr86TKTDqYBkmPoX3Yb3fiQY/iy+88AI+aLltMeMw9dhjj/E+vGbNGkUzevToFi1avPHGG7wt60U9EhMTeTfGkY0XZqMXGytyQioZIggUNAJi9ryIMF557NPhEUr6IvIGozOzL4hvDI8hFGzTbTh27Bg1ctGQmzVrZrpk9ZRKudBjmsY19NNPPx07duyGDRt4arA5N336dDVk9erVPFyorPv+++9/9tln7CPiuUqPunqpRNCYz7QKlx6CVqcrUp3pwRFLUnZ47JJ/a+3LIfH+aclx059skzSzROlc1eYSMWE2Iqs99sa5VjD26XBvwcsOH7bGjRtbdXXjxUK9Wxin5tUEZczkUs6jCW8XiKk3hp6GfyDx4foo3qjY++eBho2CjT+eUbj/sW2nE8BQCcBbF20OfV7L+GoG8lDiXQdWMKTBXEZusIUDAzHD3nfffbyKIRVKI6mt9RmloRAAKOxCN910kyjV8pUQBAQBOxFAl65RowZPDzvpIVNvrY8++qhSqumhmgbJRGi8++67Oh8UbKNSTX+nTp14mKPEYtTRyWhg7OHFmB8v9bPC6+tXX31lJHCizWs2EVgPPvig/gNUokQJsk7Aih8dnSHbCviQktbUqFRzlRXpNNIQBDwHAdGrL94LIkzYEtONw/TGxMQMGTKEhumllh5eH/l87733+LTnQH9GFb/llluaN2+u6DFcq5JC+gsxOZC5RDJkRaAaqpMeVSIIN0LNP0C7/l3NXxwNFE7aoqotM7I8t+zwp6U3+ZcudVFWH/0vZP2iRj8Oq1/6cECglR/+TrfWCggs0s8ZvNfatm3LOwS67sMPP8yrCQ8W3hWc+zoQq4ILMYoxuhlhI+zrEzL3+uuv69xGjRpFKW8C1fCvu+OOO3Cowf0Pn0CdAK/1Ro0acUo/bQ6k0q+aGnDAkYd9AZx3eO7xHCP3G50msqSkJKLTf//9d5TGAQMGHDx4EM3f6vaBaWDROeWllvBpthsACsdLbhkltYrO8mWlgoAg4DYECCpkrqpVqxpnVKf8OvC4Nvab2kpfpfak3g99+/bt0XgxDvFg59eEHwJiWMhOotM40SBBKaNUKU19+NVXX01bXVKd06ZNY15+dDZv3symAL7fvFHb6Siqs5WGIOA2BC795bhtSi+ayPL5gvAYk7EIEYxNTIida7H6+OjYsSPJJNgUZMcOC4/ywFy7di2JGWCrLNUqjY25RFBMA63Ng9ry8XbO7ttks0MCNM9Vq7Uzflk7Oler+t0J374L/plnyn73UvEaTbc3u+/I4Sx9sbVaxcTWKqGf+mrD0g+cjTP0W7XeJ598kmAwdFddl2aHXndycwgTbMK8zeC9wiMFw4I+FkcbvY3irap8qx5sy3gdEzjNpCjbdCItDngE7CGSbijQhxsbWCR4p8GgQVQe9mousRvIvHSSsB1JdGK4YZD/8MMPVcIIXJ0bNmzIC5BRn9eJi2bj6QsH6b7ZHiUOiK8HHYQLCkRF8/sgqxYECg4BZabGB9s4BT9D6hSPJ5PtVyfDlrNo0SJeTXlB1Tv5pSAOkec5lSlVJxHOxDm/8sorbKSyU6xTOtQgnBt6tpuNo/B4wiTOLxoWcsTACfzff/+Fhp+t8ePHk5lCEfP6zY8a7j/GsdIWBDwBgSJtR7J9A3h55e8WGuN2Gg8djDy4WfJMsT3ceNXq44PtQPwwmUU97HCwxAw1ePBgKujyHkxuWHqwb6sSQTwELysR1PlJreRlO5HG6YpO+3hE2T+SPdcJXN2ID+J34rFUFG5K0PZ1db++v3HktiA2OzQtOCyw7Y3Vi8LCiSIzHaR6VgsnBozQEjKyGnVv/q5vv/12J5DBAkxQCQZko1INH6LvdG5GpZpOfHB4ZNFwooATNnYGshalVNPmjUelivnkk0841Q9egMizqJRqOrHHYpXdsmVLamqqTiMNECD7DsYWSrvxSsq2Kfk7br31Vjw8iQxiU1UgEgQEAUEg/wj07NkTJjyTqTiguPGqiWuSaqOsWp0CGw8/THzya4VLtqLB34p0P/xm6Uo1/Wwc80OAlsseq1VW9nQmJydDRiZwE7HqUVePHj3KVVRrZanGDo+bD6GUXMVXi58Y01g5FQQKHQHRq3O9BdgT/v77b/bDeBNSRFh+sC3wikm8Yq7DrF2w/fhQPjm8kmLEwApEkkMsTuwCEu/NOzFPRrIj8hYLGfo8L+g80a6/se+BFvnywLEmpvf1zY1vmpV9yTrqmQvYHZiU0r6BZ8rmcqn8srNL/vR2642vV6yQ3bpXtbCoIJdP4YEMeb0wHbqjHZYB9t3Z0Te9PRDD5sRCqCbAKOUpl9twXoN4dmEu5kmFwsah0kAQopbbkNz68RjkEWQSFZWehxXmC+Mowv+oAWPsITkFpzoOxkvSJiqee0RmSipX86jHMQoHJWJ/cA2wP7xIYBQEBAFBwCoCRB3yM4E6yhYn8TsYnPkNmjNnDg9q6PUNUONYTDj4WpMbjMxBpBPTL5H6h0v8jqBsGw/eVKExarYXfm0ufbDXDIGexUNdgIPOObcGP6Zcgp5Pplaf7A6TTY0cJURoIh7pyrGZY8HOjYn0CwKFhYD4gVtHHs2ZnIS4ZJNTUafAjZNkiSi9+k6efsm5hvHxAYcKFSpQ88DIitIsbDESmMfTEAs5kd68dfH+iktnn4ePrHzydr8NU430Ra2d4J/hFUv+tmHaPb94haSuETLw4M6G2yZXfvbS345r+HohF7WnxtuASXZeDkw99pwqNTU2NjY3Ygjwc8H9DyWNOGdSreIXQyd1U7BC5DYqt36EhwPlT4wEMMTJUJkR9H4Kiupt1VDheeqtyHRJTnUErrhw4N5PeBEpLXGn530RlyWdwHaDPRRHy0PaZihXBQFBwAcQYD8UwwyPfd5gOdi5I8cH7k68OvJWyb6eaY08qDHbUJ6GnOFYp5VOq2h4yNBAu+YwjeLUGOes28MVGe+rvDCjDxt/HYy7tOw18+jjV8YUU4lPFhzURq3+st27d2/j7JxicyLbubFT2oKAJyAgerWVu4DuyrOAfT7iTHitVBQ8jAiHw0PbiYgOo1uLcT71+DAZsnQCtG5CFrE7EazI7FTqQsHmXRkCvCtp/BL8VNfwBdqpHD+ZInjsKlNtU8our1j4z2E7765T3W+Lp7usuwpMv5CQCi+/bPxtdhVnr+Oj/rrJ+2WSXOWVMXbyJkQWVmMPbZO9V72gYHlu0MC6BwSOLSjVvN8YzQKkE+MFy8TZnlOEx40QV3aVaUINwZ+QlyGTddoebkKTGwLsU2CB4eBN1ORgn9sQ1e9oeUjb3OSqICAI+AwC7GySD5xDX1FGRgbxJtSkMNUj4JFOsgweJnwS/GiyZqufMN5C0WN1VlYbxh8dCDhFr7aRxYPSg/yUbNu2zZhtBDfvU6dOEdlEbBFMCLfmt4ZXZaNyTr/St1mRVUmkUxAoRATED9wMPo4lbOnVr1//l19+MdqUSB6GwYdsrsqbRX3y1GC8KoFAMjMzr//OeXzQ5PHxX0fO/zzLeAPm2WfK2ajTTJgwgVJbhDjywq2cbQjAVleVY+emHXu1q1/T6YtaIyE2J8GbtxzL2pqDiLxFcifkLDN8eFDlyk4M9L0h+LzwfsDbjDJc6wtEg9LbqsGLAuq3qSanXmlP0ahkMwTlmsbqp7gW0ybwTO+hoR5Txh715pSnMRm3ZIJfSFpmHMspA/VnkfGStPOJAMYcjEX2MyGdj/3lIe1nK5SCgCDgewhguMZ3Gou0cZ+UzVxCUVCqMdVAYFKqAQHXJ15Bly5d6nJAqMIDz3nz5hk5q183dUn1qzZRmUYydWo776aRXtqCgNsQEL36MqjJxMC2HIEoKNUmVxn+gLEemw6leN9888302/gLt/r44PWUwEucc0gGfpkQF05I2EtVg9GjR2M2p0N5jOuenDwcLw6p30ermVOWoAgeCWePedGqPy6zya/URd8HLxLbCVEp0FzyzhyvCjlAgDcYMsHgYGLcy0dbJpmZCR9eX9hrM5Z9xjeYaDcjGfkd2LynOJ9J19XzgaunkFFpJxCaKn1GJrSV393evXtN/aZTSqrQQz5znlTqEg0Cg2nzxDMRy6n7EeCXxf7ykO4XT2YUBAQBNyDAbiyJPIimNs6l3CH1Hry4eXSTdIO3Sr2TV0ocqvGF5HnOTw/6s35Jb/AmzE8Yv1n4S/ILpffTYEZTynHj1TzbuH/y9osBidddRUxCNRI60lY1blWniouhFIXuvUUDYbhKGLmikU9BwHMQED/wS/eCP1SeOJiC58+fr7t/65dRti099DAv4M/Jg6B69eo6JYYpXFlwnsGDRXWyHThy5Mjp06dTUVaVsEYxVqX/SO2rDzQ27r33XszgjFKdym+HxGYqyIQG/Redea59Q9u9TMssWnl3N1RsvD/9sBExD2+f9ju3u3P1yjN8PBzIPyys/P9e8bP28+zhNyg/4hl1Zp0PCRF4aHDK84GIEhxheDWhCigPB9IoEE6CpVEnpsHDgTcbHggQk/SLUFuK8JHWdfbs2ToZDsPkX+V50qVLF9LSECTCy9PGjRvJL63eb7A5kCsV1zt2BnmAED/C8D59+pgSNxDVCxkPGVjxpoWLHU46+ix6A7dAXrnIT8OjhuXgpINXDhNh8XAun7nOWRoFh4AyRqn49oKbRTgLAoKAexDgqcvBXCp6iLiegQMHcsrPwbhx42gQGVSnTh3qC+gKKp3du3fH5RvXS5Ld4m5J0jKU2JkzZxodJFFf6YcPOTuoQcMo/eDllkOdovryU8LrMQZtfsJIF3Lw4EGcKNHVqcVIZjJ9lEMNBvIzREYJ3opJlkYiD2olsEeM77rRM7xbt278OJIPnLWwjcgU/KhBxk+Siot0aFIhFgQKGgHRqy8iTEYHnhr4wHTo0MGU7hsTkHqK2XkzSCTDPhyWJcxNaggmJmqW8grLc4oNNpR2XqkpvkUPTxNLthBjceKZpb8bobejUfPaTZYIuMEZ6xbv1jljo2O1a8Zqs4ZY8vHhntllYrXEiwUkvGWZH8XveTkwkAAAbxHYCTljXngh2NlfWSem85AhKvGpSRieG0qv5q0FszPuJ2yHoVoTFYLBmasmvRrPlIULFyoy/vB5EPH+xGuQUa9mCkoGwATPGtRvdgDxHsfVHJOymp3chzjsYZdYtmwZhbW49P777/NeYtKrqXFAXkaeM+RixA+QFzKrejU8eW0iATjRKNSm5pS3N156ctsNVDLIZyEigEHJsjxkIcojUwsCgkA+ESCMiBdUnQmVWVVxVp7bSq/WLxkbvF5iyyGuhCBkfhcGDRrE74JyaNLJ1G4sQc4mpVoR6Ho175wEE3300Ufs6s6YMQOzEKo1+7b8fKC969ycaKAwIxKr4KlFzBE/gtileXk2seKdHN2b3zIUe6KQ+F2j6BelZ60a2E1j5VQQcDMClMXJdvOUnjkdFierL8dIy2ul0a/SKD/PHR437OQZ7dUovSa9Wg3h3frll1/mXZmnEvT4WLJRZxnNwtYj1iEeN8rRRZ8O1xeyqWE+wueHZxnJ1S5LCzz7EW1NTrHZonCc8w/sWqNOYmZO8UPvOiYvbxD+22UFirxLftvSFu/bt/yLL9imkauCgCBQcAiQ/IwdE7whqFuR2ywqPYfxKqYndkxsFNBu9vgXRvqi0F47Nl/BLIKYQ18SgcshuIRYEBAE3ImA+tG08RNpFEbs1RfRQK/mMEJjT9uqvo1x26p9u127drjc5MkWbVkPIzES46tp3LM0Xspp93hNO7RRO7DG3O+L58vjWyZm7vfGlc1olDHgN28UPG+Zg2vXLvf0U3nTCYUgIAgUDAJWy0MWzFTCVRAQBAQBQUAQEATMCIhebUbEW88Dg7S+X2gfdtTSj3vrEuyWOyG6uJbolXr17IgdA2rGa9u8ozyY3TdE8w8Pjxv/lr+1DHz2MxFKQUAQcBoBq+UhrXKz3HS3tGBbHSidgoAgIAgIAoKAIGADAX8b1+SSlyFAoPVNkzS/AC8T20FxTwVH/pKy3cFBHkS+sl0pD5LGRaLEvPhCUJUqLmImbAQBQcAxBHIrD+kYF6EWBAQBQUAQEAQEgXwg4NH2anIbkjDQmAAsHystGkOrdtKueFZb+LwPr3ZR1ZanT3uxXv1Ruc1tShTPTkzymXtUvF+/6Guv9ZnlyEIEAe9CgCR2ZCQiSd6CBQtIkuddwou0goAg4AQCEpHuBGgyRBBwAwLO2KtJx0ciWbJ5kdeakh5Ut6PcC8kGTelt3SC9TGEFgfaPaLV7Wun3la7ZIc58aT1n9Wl+mfs61fQcefIpSXCdOuWeupiMOp+sZLggIAg4igDpLVGqceQmP7wo1Y6iJ/SCgCAgCAgCgoALEXDYXo1STUnVefPmkUaLii9xcXEnT56kOjz59ylMf/3117tQODJ4kaeUQtAu5FkkWPWaqH28VTuxw/cWezyy3Kpkr1/XR9X3vhgQoGVlefsNCihVKu6dtyWs2tvvo8jvpQi4sDyklyIgYgsCgoAgIAgIAp6DgMN6NeVMUaobNWpEfSmjxpuenv7HH3+4dmEYw6lT51qeRYJbSJTWb4r28RXa2VM+tt45VZpkpW329kVtLXY8vU39sGV/evVC/EJDK058P6hiRa9ehQgvCHgvAqr8LJvdxFebVoFDmdWyFCYyORUEBAFBQBAQBAQBVyHgsEvtihUrmJsfbKNSTU9YWFiXLl2UWMnJyWPHju3atSvW7KCgoDJlymDHXrlypS40JZqp29y0aVO9R2/06NHDz8/v77//pof4atrGlwPa9ND/4YcfNmjQICQkhPL09913HzPqHFTj559/pq5VeHg4zuq9evXClq6PNVH65mnZOtr17/je0hL80n1jUT80PuvdC/H3j31jXGjDht69CpFeEPBmBKgNmZ3LYbUGpDevVWQXBAQBQUAQEAQ8HQGH9epSpXKyGW/bts3GynDefvrpp/39/XEUHzFiRPfu3RcvXtyhQwcM3WoUDt7dunVbv379X3/9ZeRz6NChhQsXEipWv359Y7+p/cSFA5v5Aw88ACuCvXv37m2k+frrr6+55hr433zzzYMHD05MTGzTpg3auJHG99sNbtK6PuNLy9xZtvrmVB+5id9HbtOqVfbeu0Op6siuXb1XfpFcEBAEBAFBQBAQBAQBQUAQcCECDvuB9+nTh+yjH3zwQWpqKtosOnDlymb1oE6dOgcPHjTmUNm/f3/Lli0feeQRzNFKeqzH8+fPJzxs3Lhx+nqmTJmCSxsJwPUeqw1M3yjklSpV4uq5c+cwjP/yyy+rVq1iCnoQbMiQIYGBgb///ju6t+JAZhfEtsrNlzs7Pq6dTtFW+IjhOqFCLS35so0Yr753q9uXafHvHm9cQsm77y55++3eKLnILAgIAoKAICAICAKCgCAgCBQEAg7bq5s0aYL2i/c1nzfeeGOVKlWwYKNg//TTT7p8uIgblWr6cQi/6aabcMbeu3evIsM3G7KpU6eiSOsDUbOJqb711lv1HquN0aNHK6Waq+jPd911Fw30akX8ww8/JCUl3X777bpSTf8zzzxDojVFULQ+r3xJa5aDjw8cCWeP+sAq9CV8VH6rX1SUfuotjcire5R9/DFvkVbkFAQEAUFAEBAEBAFBQBAQBNyAgMN6NTL17dsX9ZgA5meffZbc4OfPn581axYR1NiZCfVSQi9fvhyyihUrBgcHExHN8e6773KJyGpFEBoaCsHhw4fho3rWrl27adMmGJp0cnXV+Nm8eXPjKbNwirO36sT9m0b79u2NNBEREZT3NPYUofa1b2oN+nr7ejdUbHIg/Yi3r8Iof7Lf6QOdvSwtX2izZhVee40/Z+NCpC0ICAKCgCAgCAgCgoAgIAgUcQQc9gNXeGFVvvLCwSkG5xkzZtx9991ffPEFhmsM0d9//z3WaZKKEVldrVo1kocRa00aFVKInzlzRkccV3BCo7FREwtNJw0+83QCh8ZkecZkTadu91Y5zLCo02k8LHuMV3257e+vUXkr85T2T4L3LnN26Qpa0gnvld+q5J/W2P8sd+f8eatXPa0zqFq1iu9N8A8K8jTBRB5BQBAQBAQBQUAQEAQEAUGgcBFwUq82Ck1mbyzPBDyPGTOG/GTo1dixSQO+Zs0aAq11SvKHoVfrpzTatm1bo0YN5baN7k0FLyzVSsc2kjnajrrgW3vkiNm2adnjKGcvpg8I1G6erE3rq+1c4o2rOOtf7Of0ixEE3ih/bjL/FXT0dKv6Ib9vzI3Ac/qDa1Sv9NlnAUUzmMJzboNIIggIAoKAICAICAKCgCDgkQg44wdudSGRkZH0Kz/wHTt21K1b16hU4yu+bNkyy4FYp7Fgk747ISHh+PHjt912G5ZwSzKHeogAh940XVpa2oYNGxzi42vEgcHaLdO0iq28cV3Lq7ZMyjSXUvPGhVjKPLupFxirg2vVqvT554EXagFYLkF6BAFBQBAQBAQBQUAQEAQEgSKOgMN6NVblBQsWoCcbgSNMGo9uejp27Mgnycy2b99OSnBFg7L9wgsvbN682ThEtQcMGICLOA7kHPTgGW5J42jPDTfcoDKi/fnnn/pYbOkkM9NPi2gjKFy77RstpoHXLT/BC/N72QnyN1Fb/arkJAjw2CO4Tp1Kn00OLFnSYyUUwQQBQUAQEAQEAUFAEBAEBIHCRcBhP/A//vjj7bffjomJITFYfHw80u/atQtrc0ZGBgotYdX0UE+LSlfYjUkYjv2ZHGYo1dddd50xZ7haNinHunTpsmjRImKkGzRooEzN+UQEP/D333+/f//++JnjoF6+fPkVK1agY3fq1AlHdNT4fPL37uGhxbU7ZmmTr9aO26pA7lFrPBUcuSRlh0eJ5Fph1nWIabJ7n2t5uopbSL16lSZ9GhAd7SqGwkcQEAQEAUFAEBAEBAFBQBDwPQQcVjIfffTRCRMmtG7deuPGjVSxHj9+PB7XnTt3/vLLL2fOnKkSBRNKPXnyZBRaUpFRSQvlGW28adOmVuFTNmrKUNuTscwqB8tO/MlR9amzhYf5xIkTMV9Ty5qU4FCq6GvLIUWoJ7y0dudPWkxDb1nywqotT2ddSnfnLWLbL+cHFbb6RYTbT+82ypCGDStNniRKtdsAl4kEAUFAEBAEBAFBQBAQBLwUAT+9MpaXLsBOsckWXrVqVWK5cVm3c4iPk51J0769U9ux0POXeW+TbiuTvMa67hye725sUi5htXNjC2hUaOPGFT/5OODCblQBTSFsBQFBwBMQaNasGWJQ6jI3YZo9nhOoVaSOtWMH5Ge9gphD6AlcDsEFsSDmKGJCLwg4jUCeP5FGzg7bq42DPbZNKHV6erouHnsHxFdTc7tPnz56Z1FvBEdot36tNbnDw3E4FhWzKtmXncAV/pNqH9Y8qSh0WPPmFT/5RJRqD//rEPEEAUFAEBAEBAFBQBAQBDwEAYfjqz1EbttirFy5sl+/fhTYJoMamcA5JRk47ujPP/+87YFF6yrFt26YoBWvpP3ysscufE7lxufTrGS881iBnRNsfdChMy3qBa/627nhrh0Vde215f/3itSpdi2qwk0QEAQEAUFAEBAEBAFBwIcR8E17da1atXr27Ll69WoSmE2aNCklJeWhhx7itGzZsj58L51cWqcntF4faP75LW/m5Ox5DUvwu+R3kBetd1+f29zPExZQasjgCuPGilLtCfdCZBAEBAFBQBAQBAQBQUAQ8BYEfNNeTaJy8qV5yz0ofDkb36pFxmjfDNDOpBS+MAYJdpatsSV1t6HDl5tfRW3pXSk2e++BQltkYGD5558rfiGlf6HJIBMLAoKAICAICAKCgCAgCAgCXoiAb9qrvfBGFLbI1bpod83VIisUthyXzT+7Qs3Lzn36JNtP29gxtrCWGFC8eKVPPxWlurDwl3kFAUFAEBAEBAFBQBAQBLwaAdGrvfr2uVT4mPraoIVa2XouZeo8s2zNb87Zo86P98KRE2P/8QsLc7/gwTWqV/n2m/BWLd0/tcwoCAgCgoAgIAgIAoKAICAI+AAColf7wE103RKiY7W752m1e7qOo/OcNlRsfCD9iPPjvXDkcf9TRzu7e18jokuXyl9ND6pY0QsBE5EFAUFAEBAEBAFBQBAQBAQBj0BA9GqPuA0eJERIlHbLVK3nW1pgaOFKNbuMZzmluweNz2sfdV/BrcDAMo88EvfehICIcPesTmYRBAQBQUAQEAQEAUFAEBAEfBIB0at98rbme1HN79buW6KVq59vRk4yOOtfbP6pvU4O9uZhq4IPnG1axw0rKBYXV2XqlNKD7/Pzl4eAG/CWKQQBQUAQEAQEAUFAEBAEfBkBeaX25bubr7WVra0NWqS1vC9fTJwdvKxqy6TMZGdHe/e4+S0KvOYZFarjZ30f2qiRdyMl0gsCgoAgIAgIAoKAICAICAKegYDo1Z5xHzxTimIh2jVjtVuna2Gl3CxgQlSUm2f0nOmmlNjsVyGmgOTxDwsr/8orsW+MC4iIKKAphK0gIAgIAoKAICAICAKCgCBQ1BAQvbqo3XHH11vram3Ici2+k+MjnRxxKjjy15QdTg72/mFZWvamTpUKYh0hdevGz5xRvE/vgmAuPAUBQUAQEAQEAUFAEBAEBIEii4Do1UX21juy8Kjy2h2ztCue0/wDHRnmJO2Cqi1PZ51xcrBPDPug4ja/0BBXLsXPr+TAgVWmfxVUpYor2QovQUAQEAQEAUFAEBAEBAFBQBDQNNGr5VtgHwJkt+owQrt7vla6pn0DnKdKCCnqX8vDAWknOrosaVxwrVqVp00tN2qkX1CQ83dFRgoCgoAgIAgIAoKAICAICAKCQC4IFHUFJhdYpDsXBOKaafev0Lq/pAVF5kKR3+5jUTGrkrfnl4v3j/+y7on8L4Jo6rJPPBE/47uwJk3yz004CAKCgCAgCAgCgoAgIAgIAoKAVQREr7YKi3TmjkBAMa3dQ9qwNVrDWzTNL3c6J6/MqdLkfPZ5Jwf70LDlIfvONa6dnwVFdu9WNWF2qbvv8gt0h/d+fkSVsYKAICAICAKCgCAgCAgCgoBXIyB6tVffvsITPjJG6/OhdvfPWkxD1wqRoKW5lqH3clvUyskQ62KxsXET3497991i5cvbWH52dvakSZNat24dGRkZFoZJu8k777yTlZVlYwiXqlSp4mdxxMRclsA8MzPzmWeeiY+Pj46O7tKly7p160w8FyxYAI+EhARTv5wKAoKAICAICAKCgCAgCAgC3oiAGLK88a55jMyVWmn3/aqt+0xb9JKWcTL/Yu0sW2NL6p788/ENDp+X2Nwjpmz24aMOLKdYsVIDB5Yeer9/aGieo+68884vv/yybNmy/fr1Cw8PX7hw4fDhw3/77bdvv/0WpdfGcLTlhx9+2EgQcXnVrlGjRr311ls33nhjXFwcU6Bab926tfx/Sn5aWtq9997bv3//a6+91shE2oKAICAICAKCgCAgCAgCgoCXIiB6tZfeOI8Rm3xmze/W6vbSfnlZWzNZy87D2mlb7tkVamrJf9mmKTpXz/md39q5Sq3p9unVfn5RV/co/eCw4Krx9kA0a9YsNF5MyqtWrSpdujRDzp4927dv3xkzZnz++ecDBw60waR48eLPP/98bgSYwT/88MO77roLYzg0vXv37ty5M3M98cQTasjIkSNPnz799ttv58ZB+gUBQcBOBL777rtff/11w4YNf/75Z2pq6u233z5lyhQ7xwqZICAICAKCgCAgCLgQAfEDdyGYRZhVWEnt2je0wb9qldo6jUK25jfnrH06pNNzeNvADyoDep9dAABAAElEQVTt8AsOzlPqiK5d42d9H/vmm3Yq1TCcOXMmn48++qhSqmkXK1bspZdeovHuu+/y6fRx7Nix9PT0li1bKg6qsWfPRTcE7OETJ0587733SpYs6fQUMlAQEAQUAmPGjJkwYQJ6dWxsrGAiCAgCgoAgIAgIAoWIgNirCxF8n5s6poF291xtx0Jt6VvanmWOLm99xcYH0o84Osq36Q8EpCR2bFR8wdrclhnetm2Zh4eHNnQ4yv3w4cPwrFq1qpGzOiUcOikpCaO08ZKxfebMGWxie/fuxXu8YcOGHTt2DAgI0AnKlCkTGhq6du1FmdesWcOlypUr85mRkTFo0CD8wzl0emkIAoKA0wgQcEG0RfXq1bFaE3DhNB8ZKAgIAoKAICAICAL5RED06nwCKMMtEKjeTePfvtXasre0f+ZoWrYFhfWOhDIVtEQXFJeyzt1re6fVSxq6wIr0oc2alX14eFiLFlau2dGlzNS7du0y0u7cuVOdEg5NPjPjJWMbnfyOO+7Qe3Amnzx5cqdOnVQPsdn33XcfKdCSk5OxoeEBTl403FO5SjKzkydPYqzWx0pDEBAE8oOA6NL5QU/GCgKCgCAgCAgCLkRA/MBdCKawMiBQsYV26zTtgT+0xrdr/sUMF6w3z/oX+/nURVdh6xRFtXdJ6J6sBrWMqw9t1Kjixx9VmTrFaaUabj179uTzzTffRNFVzM+dO/fcc8+pdmJiompYfhI4vWjRIlTrU6dO/fXXX4MHD969e/fVV19NeKdO/NprrxFETeT2p59+Wq9ePehRsP/444/x48cTVo1K/8ILL5DGLDAwsFmzZsuXL9cHSkMQEAQEAUFAEBAEBAFBQBDwRgREr/bGu+Y9MpeppfV6Xxu+QWs9VCsWbkPuZdVaJWem2CAoypd+bR2Ws/yAgMire1SZ/lWVr6dHdOiQT0BuueUWlOF///23bt26mJfJ7924ceM5c+bUqFHjwlSX/LpNE6F7d+3atVy5cpTmql+//gcffDBixAgcvI2ZzIKDg//3v/+hb6ekpOCe2qJFCypv3X333ddccw2Ga0zZEKOQz507F1N2jx49jhwR/38TzHIqCAgCgoAgIAgIAoKAIOBNCIhe7U13y1tljY7TevxPe+RvrfOTWqj1bFWzIyO9dXUFL/d35fdHD7m3+oL5cW+9Fdq4sUsm9Pf3//HHH8eNG0fpaVy1yd1NlOayZctKlSoFf4pv2T/LkCFDICYhmY0hGKgPHDiAEg7N2LFjr7jiClTr7t27f/HFF9i9xTPcBnRySRBwLQI4iZiOLVu2uHYK4SYICAKCgCAgCBRBBCS+ugje9EJaMjnDO4/S2g7T/vxKWz9FO7helyMtJOrXlB36qTR0BBqWadi3Zt8e8T2CA/LOCq6PsrOBGzb5wDl0eszOJBYm6xjO23pnng2lhKMe50a5fv36119/HaUab3As2AcPHlTh1tBXqlQJt/BNmzblNlb6BQFBQBAQBAQBQUAQEAQEAc9HQPRqz79HviVhULjWYlDOv6NbtA1TtY3faGlHFlRtcSZju2+tM1+rCQsMu7bqtX1r9a1dsna+GDk4GMM1laXvvPNOam7ZP/T333+H2JRaXB9O2DYe4GRXuueee/ROMorrbWbU29IQBASBgkZAz9WvT4T5Wm9LQxAQBAQBQUAQEAScQ0D0audwk1H5RqBsHe3KMdoVz1OX6/iJ1aG79mecy8g3U+9mEFEsokNch26VurWPbR9W7EJMdUEuCNNxVFSUPsPq1atHjRoVERExevRo1Xn27FkCsNGxq1WrpnowLJNvzFh6msLUDz74IFf79++vszI2CLTesWPHrFmzVCczYrWeN28e+jYGc6KvU1NTHTKPG5lLWxAQBAQBQUAQEAQEAUFAEPAEBESv9oS7UIRlCAjUavW4V+txe4tHf9v/27zd85YdWHYm65IxsyhAUzKkZJeKXa6odEXr8q2LBThgKM4nOIQ34/JN7jGSh6Ewk7SMfGMzZ87ULc9ERNepU4fS02QgU3N9++23r776KsZnamsxCq07ISEBgzMJyR577DFLeWA7ZswYso6r+tWK4Iknnhg+fHiHDh1atWo1depUNPkHHnjAcqz0CAKCgCAgCAgCgoAgIAgIAt6CgOQt85Y75eNyYp4linh8l/G/9vv1lfavdK/cvURwCd9ec0x4zO11bp901aTFNy9+vu3zWKrdqVSD7U033YSteMqUKei9VMwaNGgQavBVV11lA3Y06t69e1P1etq0aYzC2ty+ffvPP/989uzZQUFBpoFZWVl4gKM8Dx061Hhp2LBhL7300r59+yZOnIh+ju2a7OJGAmkLAoKAICAICAKCgCBQEAhUqVLFz+Igh6tprhUrVmAzwEGP6icNGzakUChvNSYaTnkFatmyJRaC6Ojozp078zpkSUPyGmqp1KpVKyQkhJQ0ffv2tZotcv/+/bw1VahQASMHQlKoxWrRUzsFsxRDetyAgF92drYbppEpBAFHEeCbuT1p+6pDq1YdXrXmyJrUzFRHOXggvZ/mV614tc4VO+PsXa+0A7nBPHAtIpIgIAgUOgJEWKggC0rK//zzzzib4AmCVKQDJNu/neKp+GrLuGt9eLPHv9DbRaSxduyA/KxUEHMIPYHLIbggFsQcRcxIj8qalJSE1mrsRDE2ut398MMPN954I2pwv379UK1/+umnf/75B2sEXnvGUQx54403KKfCJeqJTp8+/eTJk++++66Kj1OUJJShBsry5cubN29OmVKMCjDBFLF48WIMDzo3HADbtm179OjRG264oXbt2qtWrfrll19QxRmoCrUoSjsF09lKI/8I5PkTaZxC9GojGtL2UATOZ5/fcnLL6kOr0bHXHV136myuqac9cAHRwdENSjcgs3ej0o0alGkQGSQVxTzwLolIgoBXIkC9OorYWYpuDN+wvGrqyfOlQV7iTYjleSqI5QmRkUDgMqJhT1sQswel3GjQq7mkB7hZkpF9pnr16snJyUoZhoB4N1RisrR+9dVXt9xyixqC3bhdu3YkoCE9TYkSOS6W8ORxSnmUrVu3qlnoJMvMU089heL99ddfU+KUHnTjXr161a1bF1dB1UMn3oLz589/55138OnjlGPEiBFvvfXW4MGDVY1SeuwU7MJo+XAZAnn+RBpnEj9wIxrS9lAE/P3865WqN7D+wPe7vb/slmVTrpkyvOlwrL6VoyoH+AV4mtCIRB5v6mONaTfmx14/Lu23dGK3ifc3ur9tbFtRqj3tZok8goBXI4BejWuP5WHjldGr1yvCCwKCgCBQ0Ah89913x44dQ3/GwqzmwnBNshjaxK/psyt19+mnn1ZKNf3o0uSLwUA9efJkRcbDWZFRbVRXobFI41i0efNmgukU2c6dO1Gq1XCdP3um4eHhFGrR65jaKZjOQRruR0Dylrkfc5kxXwgE+gc2KtOIf4rL2ayze1L27EzeuSt5l/rcnbLbnanFQwJCykeUrxBeoUJEhYqRFeuXrs8WgBuyeecLRBksCAgCgoAgIAgIAoJAkUQA1ZfkMnv37kVxJXa6Y8eOAQGXjDR4aINKjx49jNhAQ6A1NmrGEv/MJatkV199NRlkuKQ8ifDuZpaaNWuSTcbIDbKlS5dCRtoandWVV16p6950kh0Wezj69sqVK/Ek18nyFMw4kbTdjIDo1W4GXKZzMQLk+qpeojr/dL7sDh4+dVjp2KjcyZnJxGarfymZKTScyzceGhiqlGf0Z/UvNjwWjbp0aGl9amkIAoKAICAICAKCgCAgCHgyAiSkuOOOO3QJUXqxMHfq1En1EEpNA2VYJ6BBZVDISO+KbZlSKdiQqZlCVDbFR41kNWrU4HTbtm2q0yorLtlPhl4NN6VXW+VmEswojLTdj4Do1e7HXGYsWATI8oi6y792se2szpSZlakUbPWZlpmWlZ0V4B+A/zb/sIfjdh4cEIwiHRYYhuVZNdycrNuq5NIpCAgCgoAgIAgIAoKAIOA0AnfddRdu2PXq1cMgjJI8YcKEjz76CAMy4dONGuX4QhJZzSf5vU1TqB5yntlJU1hkJrHl1J0IiF7tTrRlLo9AICggCCOz2Jk94maIEIKAICAICAKCgCAgCLgLAUpe6VPVr1+f+GfMzqT1Jl3F999/r1+ybOAOSSfGG8tLpp48aexk5Voyk5ByWhAISN6ygkBVeAoCgoAgIAgIAoKAICAICAKCgKcjMGTIEET87bfflKDKLq2s1kbRScfNqbqaG43J1p0bmZGVztP2jPaTGWWWtpsREL3azYDLdIKAICAICAKCgCAgCAgCgoAg4BEIlC1bFjn0tNtUjeZUj5FWIp47d27Xrl0EM1etWpUeEp7FxsampaUdOnRIEajP7du309Bjs62ygsCFZCbBjMK4pD1y5EiiuytWrBgaGkop7yZNmpCS7cSJEybmZHS75pprICC7G6ngxo8fn5WVZaLh9PPPP2/ZsiUOAuw4dO7cefbs2ZY0GRkZ+BQAHWnYuTV9+/bdsmWLJdn+/fvvvvvuChUqkEaOVOoUJE9MTLQks1Mwy4HO9Yhe7RxuMkoQEAQEAUFAEBAEBAFBQBAQBLwbASKrWYBSmGlQqprPefPmGVeFNTs9Pb1t27YqGXhuZHPnztUv0aC6daVKlVDR0cmN3ExkKis4KcrOnz+vk6WmplJAG222devWqtNOwXQOLmlQQ5sdh+7duw8fPvz2229nZwGHeTTnffv26fypyE2+dCDq3bs3lcYyMzMfeeQRvdC3TvbYY48NHDiQnYh77723f//+lO++7rrriG/XCWiQbp25XnzxxaioKGbs1q0bzvkUPPvjjz+MZCRap6w02ebQ0pmLe/f222+3adPGpPDbKZiRcz7bolfnE0AZLggIAoKAICAICAKCgCAgCAgCno4ACb1PnjxplHLPnj0PPvggPWh6qv+mm24qXbr09OnT16xZo3pOnz79zDPP0L7//vtVD5/Ke/zll1/WzaS7d+9+7733ULxJjabICLRWZE888YSuM6PsUWSrbt26egZy1G+KbKnhOn9stii0AwYMwDauOu0UTOfgkgYu6xT6mjRp0quvvvruu++uXr36qaeeOnjw4P/+9z/FHwL0ZAqVLVmy5NNPPx07duyGDRtQcam2DYa6DNiNCWJnpRs3bkRXB6i1a9di30bZZuE62ZtvvsluAitFkX7ttdemTZsGH3Y0ME3rAEI8dOjQo0ePvvPOO7NmzUIwKpahXZMvnXLiOis7BdPpXdIQvdolMAoTQUAQEAQEAUFAEBAEBAFBQBDwXAS+/fZbPIfJ/o1ihocz+lvt2rV37NiBDzMKnpIbS+nHH3+MGzOOyoMGDUIlbty4MTZtiPv166evDdv1iBEjMJxivEWpw06LWRWlfdy4cbgl62TQQIly2KpVq1GjRt12223wwVkaTdVYrfr999/H5/mhhx7q1avXk08+iWka5RN/cvR2nZWdgun0LmngjG3ig2M2PcqVnQZLO3bsGNZplq8oGTJmzBjaEydOVD18kh+OT/TeEiVKqE5QAjQM1JidVQ952hTZ66+/roNzww03kL998+bNv/76qyIjizu2fTVc9fCJdzobEF9++aXuz2+nYDoHlzREr3YJjMJEEBAEBAFBQBAQBAQBQUAQEAQ8FwE8rvFVxisbQyimUVS19u3bE/RLoG9QUJAuN8otl/BtnjFjBkbaYsWKQYz11ZToGwPsZ599FhMTQ6WuL774gtpdP/30k7J+66wwXy9cuHD06NEU6EJVXrBgAcyx+qJm6zQ0MORiHsdNGjstbFHX0bFR5kuVKmUks1Mw4xCXt1kjPNlNUJyxFdPo0aOHcSKgY+8AGzVqsw0yNji4qjjQYNV79+5lN4FS4UZuJjJFj4Vf170hpmpau3btsGxjXVdj7RTMOFH+21JnK/8YCgdBQBAQBAQBQUAQEAQEAUFAEPBoBHC91r2vbQuKkjZnzhzbNFy988Jhm4wYaaypHLbJyA2mW25tUNopmA0OTlzCCE+SNjKWo/wvW7YMpRrbu+KD9zUNPVWb6iQMG90Yr3tsy3Xq1MGGfODAAdKVlS9f3jh7jRo1ONVTxFllBYH9ZNix4UaiNUZZ5WYSzCiMS9qiV7sERmEiCAgCgoAgIAgIAoKAICAICAKCgK8hgF595MgRtSpM01jpy5Qpo05NpcX0lasaY1jp6bGHprDIdIFd0hA/cJfAKEwEAUFAELCFAM5d+I8Zk3NYpSbtB2Qk27R6VToFAUFAEBAEBAFBQBBwMwKHDx8m+JnPmTNnYoKm2ta6detsywA9BCbPeatD8qSxk5VryayKmmen6NV5QiQEgoAg4FYEeMJyVK5cmQycpolJU8ElqjWa+r3uFAWbhaBse53kIrAgIAgIAoKAICAIFEEEypUrR3Q6vtaUsyJRuUJA2aWVRdqICem4OVVXc6Mx2bFzIzOy0nnantF+MqPM+W+LH3j+MRQOgoAg4HoEyF0xfvx4PYDH9RO4lyMVKVhLbGys7WmpxLhlyxYqfNgmk6uCgCAgCAgCgoAgYA8CzR7/wh4yX6JZO/ai0lsQi8LsQZEwimkdP36c15VatWoRdE1UMwWl9emwf5AcjmBmVRWcTN28/xBiTfFqY4i1Siqux2bDCg56uLXOzWmyPAXTp3BVQ+zVrkJS+AgCgoDLEKAMA1UN0UV5aruMaaEy4oeEYh7kFLUtBfkzIRO92jZKclUQEAQEAUFAEBAECgsB6lczNTWr+aQkGJ/z5s0zCvPbb7+RmpsCY6RDV/1WyebOnatzoEFS9EqVKqFXo5MbuZnISOrOVczmxorWqampFL4mRVzr1q3VWKszWgpmnCj/bdGr84+hcBAEBAEXI4B6+eyzz+L5k2f+TCamKAXVICl0QZEM0mkOHjxYPfGNMlFSkqqJ9evXhzOORo0aNcJ6rBc5hBICKkaStZKHMgQkk+SRbeSQmZn5zjvvNG3aFJ0fJnikU1OR4hk6zdKlS6+77rq4uDh+RRCGJ7tReGN8NeHTqoYEtT3wBlcHWUBgZTW+Ov+y6UJKQxAQBAQBQUAQEAQEAXsQ2Lp1KzHVRkpUWd6mjh49is6sKlHzAoYxgCJkGIcVJUF8zzzzDO37779fHztkyBDalONOTExUnQTEvffee7wy3XXXXaqH1yFFRs1wXWf+4YcfeL/CQq4nckf9psiWGq7zf+6553ipwzsd27jqtFMwnYNLGuIH7hIYhYkgIAi4GIEHHnhgwoQJH3744bBhw3QfIcs5KEpx77338ly+/vrrUapxFvrkk08orkgBQ3Y9Ff3/2zv3uKum/I8bootSRDUNSkqlmAwlyjW5Rhca6aabh6mkUkJGSIQyakiD6UJFN3JXqdyq6X4vSpRKTJQuJqT83j9frzVr9j7Pec45z3lqn57P+eO81l5n7bXXfu+199mf9f2u72Lgk9HN9evX46TEU56HNaOhLCPJ49uev/x04YUX8ow+77zzCHTJo5mlLElwdCq3ShDGL774IsqcpzbaG+nOUhMM0F5yySUUIHHVVVcdddRRNANnJ5Qw7txDhgzhQR9uM8ciQuagQYOQ96xFaQVq1KgRLklO7tsWs1plioAIiIAIiIAIiEAcArzb9OzZk8WokbKspE1IcJb1Jm4ZxoNnn33WduTNhzQilnebZs2a4Wz42muvscYVOddff72rHB3evXt3lgFnjS5+wlYxduxYXpZYHhxDhStGGV7AJkyYwPreWDiYEjh+/HiMGcOGDfNXq+b9igpZ4nvatGlYRLCvzJgxg3dFdLurKsGGufJpSUhXpwWjKhEBEUgzAVym+/fv37RpUwzLxJ+MWTvyGOs0T2Qe9G7q8vTp0+vXr3/bbbe98sortlfLli1Rpw899BAWaVcPHuYspWibLD9JAWQzfwmWg+7lH4JHNjqZQB2Ex2AsFlnOs9scn6wYoTsswZ8Kch1rM1LZcvjOzomdmmkzuhotnWPo79y3zbVHCREQAREQAREQARFIkACWg6ysLPyrlyxZwnsRpgi0a6tWrXg7Qj+7SrAQ8BqGpp04cSLG6ooVK6KfKYP92ZUhMXDgQEQ1JpNnnnkGkYwDIKK9QYMGfhnMJHgC8vo3ZswY7B9oYyrH+w97tV8MnY95/N5770X5s8w4U+04HJYMv1WUT7Bhfs25TEtX5xKgdhcBEcgrAoxonnPOOchjLMN169YNH+bpp5/es2cPAtWJasowowYxjMmayTbFihVbsGDBrFmzULC9evXya3BzmPm34P+AYzlRTbESJUrwHOeJzJ9Ex44d+W9g/QYe9/5wKcUYvvXrxI7tb7pD+JlJpdPYtqSOq8IiIAIiIAIiIAL5nAA+erhqJwKhTp066NscS2Iq4BO/GK9SvIDxiV8MF0U8FuOX4dcEG5ZjPQkWkK5OEJSKiYAIHAACjG7i6nP77bfj1x0Y+KQ1s2fP5htVPG/ePL9xzPzZu3cv1mwszOzIT5dddllAErvyVgkW6YDpeMuWLZTBnZtvRkyZO41WR59fe+21uIvjoYRjkqukRYsWGNXJxOsJn3Oe40y0dr+mnEhL21I+unYUAREQAREQAREQARFIkIB0dYKgVCyiBJiDgawi3D+WPeyTyJtRo0b5bcWeyTQMCixatGjlypVs4rLboUMHv0x26V27dj3yyCMcggm6hQoVQqQh8K688kq/PBEdmA2C1wqqD/djXF9KlSrlFyDAA6N9K1as8G2qfgGl4xDAXo0lmUswbtw4f6KO7WJu2I899ljMGrh85OO5xHcc+FbJ1F8/4XqsEvKZCERnwDHJpkzTH2jYgAED8BLn1yZNmjAjiFEApgAxK5scegvxzOkS4ToTz0lL2xI/nEqKgAiIgAiIgAiIgAikRkC6OjVu2isqBB588EEUNRNlMQ8StzDcLGJQde3alXz0D4EWNmzYEC4TMwc9hlly+fLl1apVYxIv9RCJgdhUeB0zi8N2YUotZkw0M0GtWFEASf/pp5/idexMo4j5Rx99dOjQoXF0XcyjK9MRYJoN0SCZGt24cWOXaQkCd5PA1Iw9OfCT28SjmzSrJrqcQMIq8S9roIBt4piEQZsPXYh1GgjfzeUm1BlhKq0AfYMP/YQ52GhsfNSZNUQHCEwKill5dpnpalt29StfBERABERABERABHwCWvHbp5FUWutsJYVLhSNHgKgGuPuyIBMyJmbjcNZlygfRmzEst2vXLmaZmJkoKEQ1dkhs3Yguokyjnwk31aNHD1uhnr1wPyZwArIZkzhCi6Wh0FRupYGff/6ZI+IV3L59+5iHUGYiBIhOwQxnXAYIGhkob6sUOmUb+NU2rczkyZPdmg2BYolU4u/ClB7cIqiwUqVKTPx2ocusDFE9mOCN28Ldd99NuEtbdNHf3dIW/Axn9fBPfk562+bXrLQIiIAIiIAIiIAIiEAaCUhXpxGmqjoABFCtyJvwzFvXFNY0vuKKKwgV6HISTFgM6gceeKBAgd/cOo477jj8wPEkR0hbJQSRJlGrVi3btIRlkoMbMOZr3M7tV32nTICQj5idCTXpvLKtqs6dOxM2vFu3boyt+JUjaJ3Yxh+bGdoMjuDF7ZdBDxO1kpyzzjoLxwQuNy7cfgHSy5YtY6o2CeZaM2Li/4pdmnkH9A06GPms9LB7926/AMtRsOnPwfZ/ZdVHOi0LSPiZ4XRa2hauVjkiIAIiIAIiIAIiIALpJSA/8PTyVG0HDwHs25xMhQoV/FOyTUSUZdoKyUScrlKlCjlmqS5XrhxpjNv4qGO3tE2/EqWTJcDCCZh/77jjjsCOYEcM4xSArz7LTbP8A6MeiFVENYMgbl4ADtssbUUNBPcmQWRvPA6mTJlCARwQqJNZ0xiZcSsYPHgwscfQ8Bs3bly6dCkOC0QOY8I8buSYjlkjkWUhsFfjH4GnNz2EGQGEHKcGBlzwCbcFtFDadAmW++LS+zHG/cYzc4ED0U5M3zQb8zUxzFl/wi9j6dy3LVynckRABERABERABERABNJLQLo6vTxV28FDgEWSNm/ejPuxPz/2s88+4wydYKtZsyZCi9nXzKm2+dXkYGPEvxexhxLDgfngIXJAzwQFi7M92jXQCtamZsloAobNmDEDqYwbdtmyZYko5gc5O+mkkxYuXMhE90mTJrFwIiHHkNMoYRdhjsn5KGH8zBHeo0eP5vIxFZ/rfuutt5522mkckfIs+cDy1ByFVanR+ZUrV2bit5PNiHbWA2NghQh2zK5nwIUcJvZjlw402G2+8MILWNpZepF1s5H6tCGmrs5929wRlRABERABERABERABEcgjAv+/KGseVa1qRWB/EkDz4BMejgfut4Ep06ijBOOBZ2VlUbJp06bIHpsNi+cwshmlTZ2oaFusmJnbqCOMk7j11qtXj/neSDIiVBM1moBqiHO0GWG3sKNeeumlTAJXADP/iigtAiJwwAkwV4I2MLSUXUsUwyY7Mtnli1h2ZGLmC1dMLHEyRSwOnPBPwhVmEj9HxHw+Of5F+oVlr/ZpKC0C/yXAzGrsn+PHj2cFYwQzQhp5jNMvM2ZJm9KmNNZRVmD6726HHIKPMaK6b9++TPxu1KgRgp91tghYzWRgoqDFXIfZ311pERABERABERABERABERCBzCKguGWZdb3U2v1HALMz4b5xPyZCFR7IiGqWTcLLl/BUrH5k0arCrcEBhGm6OPRixEZgsxfxw1u3bo3AJozZ3LlzcSQO76UcERABEUiNALEAmHXCAF/BggWZsMDsg23btqVWlfYSAREQAREQARFImYDs1Smj044HPwFiX7HCFh93qqhilDPe4C4nkGD6LoGjWbWYSbYYuvmVCdhWxjxJiGdGiKzAXtoUAREQgRQIrF27lnD3RK1v2LAhYfwYueN5xaT9mTNnlixZMoUKtYsIiIAIiIAIiEBqBGSvTo2b9sqnBGzRLGZxxzx/omoRrYpFoSzUmQUv+PHHH62wreoUc0dlioAIiEAKBIiMiKgmjj0x+QikR6AHPGU++eST3r17p1CbdhEBERABERABEUiZgHR1yui040FFYPv27UT5JgC4O6t9+/YFVkt+7rnniGFWo0aN7HT1TTfdxJzqXr16WSUs/kTi9ddft01LWKY7ihIiIAIikBoBlicgBgS+3506dXI1EJqRqPhEm2cCi8tUQgREQAREQAREIK8JyA88rwmr/rwlgJWGD8ew5aZZbbhNmzZsEoh7wIABdmzMOLYy1uLFi8kZPnz4Rx99RKJu3bodOnSwMiyS1LZt2xtvvHHEiBGWQ3Cy0qVL169fv2LFiuSw1DA+lieffDIlDz/8cCvjf2PKJkQZU7ILFPjttmLHxo0bczj0OXHLqLlWrVoELff3UloEREAEUiOAdZodWWiAWSeuBmIr1qlTB71NiEQCLrp8JURABERABERABPKUwG8CIE+PocpFIO8IIJVHjhzp6seAw4fNcuXKOV3NbMP333/flWGtaT626XS1+9UlCALE6sQo8KlTp5KJosYQ1L1796JFi7oyLrFp06aePXveeeedWLNdJolhw4bxmmvrbBH2jMDgLMflF1BaBERABFIjgL83O55yyimB3fGaQVevXr1aujpARpsiIAIiIAIikHcEtH513rFVzSIgAiIgAiKQVwSysrJwk+ETGB9kcvVDv37uuuuu8LEtgKKfv2TJEhY4qFq1qp/pp1dt+tbfzA/pqn/IVdQ3EUuqkwhXUrgoLGJJEROupHCpgwVwEYS4UKFCW7duDeTH3JS9OiYWZYqACIiACIhARhKwiImJu8YcdthhvDTEOdVcisw4Ncf/yZZUiCP44+9+AH89IMSEK9krLmJJEROupHBRWMSSIhZZXPw/MpczwXORrk4QlIqJgAiIgAiIQIQIFC9enNYQczHQph07dpBjvwZ+YnPBggXhzGjmmGk9gxp8YDEKV7L8RSwpYsKVFC4Ki1hSxA4OXP8NdpLUyauwCIiACIiACIjAASRQuXJljs486kAb1qxZQ0543nWgmDZFQAREQAREQATSSEC6Oo0wVZUIiIAIiIAI7CcCtrgAIcpYFNAdcufOnTNnzixcuHDt2rVdphIiIAIiIAIiIAJ5TUC6Oq8Jq34REAEREAERSD8BFilgka1169ax0ICrvU+fPqxc3bp1a1axdplKiIAIiIAIiIAI5DUBza/Oa8KqXwREQAREQATyhMCQIUPOPffcLl26TJs2jfhec+bMmTFjBh7g/fr1y5PjqVIREAEREAEREIFsCMhenQ0YZYuACIiACIhAtAlgsp4/f36bNm1Q1AMHDly7di0ae/bs2SVL5mqZqGiftFonAiIgAiIgAlEkoPWro3hV1CYREAEREAEREAEREAEREAEREIFMISB7daZcKbVTBERABERABERABERABERABEQgigSkq6N4VdQmERABERABERABERABERABERCBTCEgXZ0pV0rtFAEREAEREAEREAEREAEREAERiCIB6eooXhW1SQREQAREQAREQAREQAREQAREIFMISFdnypVSO0VABERABERABERABERABERABKJIQLo6ildFbRIBERABERABERABERABERABEcgUAtLVmXKl1E4REAEREAERyKcE1q1b97vf/Y6VuvPp+f/vaYvG//LYf1v0QPoh/OMf8r333qPYfffdF79Y3v16wBsQ89QuvPBCsMT86SDITLBvHARnmstT4L6gG9BFc1lPNHeXro7mdVGrREAEREAERCDqBPbu3fvss89ecMEFxxxzzOGHH16qVKnTTz+9Q4cOr732WtSbHuH28dLpPocddtixxx578cUXjx49OsJNjtE0O4Vy5cr98MMPgZ/Lly/Prz///HMgP+M283qAw3WDcCLKsuTgU5irV6/u3r37n/70J3vQ8X322Wf36NFjwYIFGddp09Lg+fPnt23btkKFCoULFz7qqKNOO+20nj17btq0ya98xIgR9Fu+/cyDPl3goD9DnaAIiIAIiIAIiEDaCSCqGzRo8M4775QoUeKqq646/vjjt27dunbt2jFjxnz88cfXXHNNGo/4hz/8YdWqVcWLF09jnRGvqk+fPrRwz549n3zyyaRJk2bMmMFL/OOPPx7xZgea98UXXzzxxBN33nlnID9DNx9++GHOhd4Yv/21atWiuzIgEr9Ygr9aTwgUZmwikBP9zeeff/4///lP9Nvpt/CXX3554NfPvn370NXXX389onrnzp1Lly79+9//PnDgwCeffLJTp07skmDf8CvPxDRAuAUeffTRAgUK1K9fv2nTpj/99NOsWbMGDBgwZMiQkSNHXnfddZl4Xulqs3R1ukiqHhEQAREQARHIRwRefPFFRPUf//jH999/31e8vDrPmTMnvSAwhlepUiW9dUa8Nt+LeNq0abzCIlC7dOmSQYLq6KOPxmCF3sCFIV0i88Betd//+smxDUWKFEljd/V7Qo6HjnKBE088McrNi9k2NDX8TzjhBB53derU8cv8+9//5pbcvn27ZSbYN/waMjHdt29fRDVPoTfeeKNatWruFCZOnNiyZctmzZpNnTr1oosucvn5LSE/8Px2xXW+IiACIiACIpAGAtgoqAWfT19Uk4OocO9VvHQ+9thjuDFjzT7iiCOOO+447Nj/+te/3OFxHcTVGUOQy3GJyy+/HFW2fPlycsIOt87X9B//+AdeiIUKFSpdunRWVpZ7zXX1TJ48mRfiI488EkNTo0aNsKW7fV2ZiCfq1auHTsNSNG/evJhNxU8VI9JZZ50F4YIFC+J9DYqNGze6woyAALNdu3YuxxI//vgjipcPicBPud+kJ/z1r3/dsWPH/fffn2NtjMVg6SpTpgz9BBlz8803f/nll4G9cIjo3bt39erVqZlex5gOZ/3999+7YhS46667qlatinsqBeA2ZcoU9ysJbGuDBw+mv6H5qQR50LBhw3fffdeV+fDDD6+++mq6KxhpTO3atf3G+z0HuXXSSSexIzY62NrHvF5jTm9OoW2uVfETX3/9dfv27en/nHWNGjVoT7g8Z8onkM8p0OyASzk3CP2EwhBgZsd555339NNPux1xnUA+nXLKKdxQRYsWPfPMM+GJLdcVoEJrAHCMiTtueH41Ow4dOrRmzZpURYUkOJZfG9VSCTt+8803dGm0K61Czg0fPtwdMe8Sn3322YMPPkiHfPvttwOimoMC56GHHrrjjjusAX7fmD17Ns1u0qRJuG10Tk6BzuB+4gF15ZVXcg+Sf/LJJ+NQ/d1337lfI5XgOYyuZpSTmT6+qKaR11577d/+9jecmP7yl79wBblkOIqTz7d1A77Z3T+dCRMm4NnBbciTGUEecCOnZI63jHM15/nGEbnlOYodIv6N7DcjvWnZq9PLU7WJgAiIgAiIQL4gULJkSc4TRRfnbPGGRQidf/75OIqjZPAK5oWMl9TXX38d2cyOuNRecskliJ9ly5Yhj11VmzdvRu3w1o6IcpnhBC+1vJUihC699FI8pZns/emnn06fPt2VHDt2bPPmzXlh/fOf/8xLOWMB55xzDnrMFciUBKKaprq3xkCzX375ZfQJwxnnnnsuMmDFihXPPfcckJkGaU7Ll112Ga/s0ODdl7dPtztWpm+//fb2228HkctMYwIXWRxlGfu49dZbEWPZ1YxMuummm2gDwy6I6jVr1lj7GYJxRs7PP/+cE1y/fj29wt7d6Xuczi233IIko2Z+4t2ad3ekIL0LvY1JjQRHp3I7NOIHwyOdqnXr1qhQpPtHH33ESzmdkAIk6KjMF6UZcOO1ng6Md2tMT2yOhf4ZNGgQ3YnxGqsfWWuJwHdqbXvhhRcC9YQ3uXxcdBRg3V8/3DgA4XYIl0wk580338Szl0EWuN1www2c4JIlS7BPAtx2ZyDj0EMPZXYxfBjD4l677bbbGO5xTYUV2pu9yGeGCHvZd8yjt2rVimkjXHE8Gujbr7zySseOHbkigWgCNANZS8dm5IXp+ugxlD/NuPHGG2NWm65MuiVRAHiABDSkXz/u0P6mpXnIVK5cme7H1bHnpOXPnTuXYQskKErScrCHQ4xN5tQg1HEvx6H6rbfeQpnTD8M1H9gcA8Kz1H9WuyZxEVHdzFvBg4kbjev+6quvMm7lbgq/J3Bb8V/AjUZ4DsbUeDTRZxYvXuweRIncMnZo+gN37hVXXEHPN+me1I3s2p+eBE9qfURABERABERABEQgKQILFy7EcMHbMPYr5BkvNOHdeSHesmWLn79hwwb0rVlfLZ8Xa15okHZ+MV7lycQUZploKjZ5jXZl7JWaN3JevyyTqcgIKorxlmY5WEp5k+N1nNc1t2OvXr0ow4c6XWakEtY8v0m4VsKZj0EO08A0jd7wd2G4AeHBi6bLxHGAmpkU6nJI8FJLJq/CfmZa0lSL9KKq8ePHk27cuLGrFnM6OVwvy+HodCRkP2fhyuD6TvvRqy4H9cheWAhdDgl61+7duy2HcwERstkV2LZtG6IXX4avvvqKTHojBZDliCVXhgS2UNs0A6PfW8j3O7D1OtdzwhfC6mGIh6ail2yT79TaRiVWD1X5H1zrXc02ZNC1a1eXg8o1sccuLhPmfNymJShA/bTWNjlTtBzXAgu2X5J71m0ybuXSJLBPMkJBJYyAuPwAJZdvnc1t2o1/xhlnMF3ZMnft2sXVoTZ0tSvGJh8M8u6qMWyEkwuGX1cmjxLmd8MQTyL1B86ajkqzA7cbowZkoietQhsBRITTUd0h0K6U8S+o++mAJ/A8om3PPPNMdi1hDIICqGsK2InwHShsva5YsWIMIrifGMRhR9S1y8nxlqGkHYKbmrFatyOJHG9kv3B604ektzrVJgIiIAIiIAIikE8I8BqEryzvQ/YxR2v31pgdBEyXlHd6mPnYWFCpx703syMGIt7vnaQJCxh7i8VA7R9l2LBh1OzeZc2GhiOiX4aXeDObOHXk/xqFtME0HXX33Xdj3UJFkNmtWzdrXphGzGZjU8IX1/2EekRhYqp1OZjOqBbx4HLSmKBm09XUiXJgE89Mqx+Bx6bT1UgINjHuBY6OqObEGRwhH8M7ZTB8IeQCxWwTMUwB7JmBX7Gdkv/UU0+Rb3ME0Of4qQaK2aa9jscZZQhop+wuREBXp9w2Wh7zw/1iDcatHTdaJApDBv4ZWTuT1dVYSjkcc/j9qnJMW0xsvOVdyQAllx/Q1eYjwACQK0DCfPL9PkmTOEeunV8MFxjyrW/4+elNI905SkCzcdHt3rRvPCbsoIGzZjCCgSGmZrgm4QXAExKjtOv55ubAVBdXxhL0cyZ0BDKjsBkTiN8wG7XEu4FME718+wVIww2q+DH5+TbE4EZXE7ll2N0O4Y++WZ053sj+odObjuG9wNnqIwIiIAIiIAIiIALxCeAQiB0SFYHr5qJFi/hGxvDBhGUz39h95syZ+Mri1kiYH2SAq5DZdObiizsu9aCQbZ4hBXhTxyRFzcw5dOVjJnht9fMxX7OJ8ccyaRIJ3GP9Mszk5LU1MKfULxCRtE3rxRTDKAB2eOx1+AVk1zZeDTHxwRxfSk4f8WklsdW7XfBHhTMxmXGGN9svdid+xabtyuRRgrDJHJGXZqyanFHgKPQNcvAdDcwep8NwIjh7Y8O0Ofl4s6NVArvbplWC+mLOsF+AoRk2cefmG2MsUwZwj6cDMFoBVfyZ0WyufIsWLfCoJ5Owz0g7fI+ZaO1+TTmRctvsiFzc7A7NyAjDUpyI79tPYXzUY86yzq4eyzfI+NPGKYZjM44POCrjee7PbA9Pjo1Tif2EwwtXk6b6JdHeDKbYnevyK1WqFHCKtjud0QTGFFyxtCeMfKDH4jPiT7lnkMgGhgJHp+cwvR9Pk5UrV5566qn8SsdjZgGjY851nI7B6CEOHebT4WrgOUm/DfiQu18PYCImEL89ORZwheM/uhO5ZVxVTNJ2aUvk0Y0cOErMTenqmFiUKQIiIAIiIAIikDMB3guZzGnzOVFBOIQz9RHxhirGjMCESUyImEkJZ42jL/NgeZNG0yKi/EBZTMZDV6MEiN/DIU0SmP0nfgv8CXuUtBdWpyrNPkk8p0Al4ZxAgShsxlFT4eaxuC6hiXGwR3liJWaogjLIbJwC/MK4oXJpmG+MyoU/nLGemdHML5b2NPZqugHTIMeNG4dkDdSPfiDH3NQDP7GJbzDfKCi+ObVwAcuxSpAxfMJlrBLy8bB45JFH8EA2oxk9k4Zhp7UugZkLszmjADg+QInySHqcrum94ToTz0m5bTkeIrse7nuR5FiJK5AjZAoQWgyDLUqGsTOsr9xxZDJw5t/OrsL4CRpPDf7QD+WpkNE0hlT8fQO3uRXj293pfuE0prmhGLkIDBkwEGD3Jv41PP3iHI7HGr2Ru4wuR7HwY42OQSW+Svdro9P6c7P9nw5U2oAQJiO7BlisRIplV8DlB65p4NGd4C1jtYV7ex7dyK7xcRKxh/3i7KCfREAEAgQYvGQ4kwdoIF+bIiACIpCvCGBowiKKQYazNr8+wkHz3owTL0Zs5IotWkNEnwAWZB4mKYLc8I6OkyRTZHm3No0dKJnUptm4iJYc2CucEyiQWZuIECai4+CNA/OoUaN4icdmy8dFAHKngyWWUNiIW2zaFrEMJ/mAsHGF05vo378/IoRg3b7Pgh3CbK2oLORK+GPOw/YWHlA4fgutEgReuAZyzF+U8ow4QAYbONoAVvgy8I20dlURt4yuCx8meNOT8ZsgoBQmR1cghUTKbcvxWFZzuD8znzywL+NZSLhApglpl5kjZGYamxc0IQyIO0WsbGCGB0pchfETNB77Lfe7X4xGMmEhYJ32C+zPtMUApyekdlDGFjkROhj6H/sz/uTM9ufjaoMA0Rxj9lgybbqEKxyFhPn++PHz/VZxmuYHFI6d7hdLJJ3gLWNVBRwKLDMvbuREWi5dnQgllcnXBLhj3Ye3Rt72iNwQCFaZrwHp5EVABETAI2CembwXkkeUI3wgbVaeFWFqK+7iXvHfklinMXlhTiQiMS/WxL+JbwsK1xDOISQSmYHDYQWyyXvh8hmag0cuVHEZ8H1iMRyRHz4jpj4S4QyrNU7g/LW5QNnhkunNwVsBazmqjNnvgZpZy4ocZl8H8v1NK8NMAc7Uz3fpRCpxhUngSIyzKBUyoEMPMfuYK4BjBX/0jz/+OPPbGQhAEbmf/ASvBGzmaDVNuW12rEDb/AYQ/w8/dvqzGa7dT+FpDug35HdAxNqsdbeXtTO7k6UYtzPfuNC7XUjge+Jvkk4QC7cnV/ODDz7wd2cTnjEX3vOL7Z809hLsqPhZ2DyCZA9qM1yIOY8Q5aWRIYOADw7AGcFh7CbZmg9UeYBwcfFCitlmvDw4WYZNbSwswW4Q81ySvWViVkJmgjdydrunkC9dnQI07ZIfCViAClaYwAWI5z7z3PC7y48gdM4iIAIi8CsBrMp4OQZ0DoYyPLr53QILsXQtaya5hYgR2zg9xrT+4VaKSQ29x4fdeYH79SC5+mKJF+wevNEy69hVhJEtYKZzP2VowtYHRhw6gcfYAYI5bJ/kBBmwgAnh1pFD5py/38763nvvxSLar18/55Vth+7cuTNjKBiHA2u2IWid2MYfG6cGBKS51Lo2ozkZJmCT6ZpMM2Z2tMWucwVIsISb+RVjM8TQ6v/EDGHi2KGdzGiPZZLo4n4BMwX7c7D9XxGrjE3EcYu1wim3zXaP41AAN0YHOAXsxq5hqOXw0D+e2/QHZ7enMNMEiH3g9iKB6sO+ygrSAa1rzr0UsJ7mi3YmQuMn71dC2ryXc8Riq6njwsAUcauBBG9ZpIkmEKjzgGwyGHTPPffQD5lzTlSCQBsSeYzYc8wea3QzLpZfibn2cKu6J6T9Sre0ue5+4SikK1SowEgTozOsjxV4jOORxMpqaGkcGXiS09oEu0HM80rklom5o2UmeyPHqSrZnzS/OlliKp9PCfh/WtyxvI4wmY2wmfY3k0+h6LRFQATyMQEkCm63zG3DOZC405DAGom1GWWCoDXfWl4cCYuFYQobFxqA93jexix2VIAc9kMiRfF05e2TQNZmag6USXYTkcBLHsOgSDIc1Jn1x8sxGhtzCqrSXv6SrTOC5bkEzZo1e+mllwjHhdUa0yXjHcwcZjNsmUciIp/wG+dEbr755v15Okym5aWcJccDB8XoihhGZREEnmWTWeaaF3dUGaKaqMgWtJxd8KdlXJsa8GC3Oa4M2bDyOQXsj5hZ0xiZkWScHR7vaHgEIWv5EG+ZMEjMJMeNHDsY3hOYQ+lvRJNmNjUjQfyVm6mfyGpM7KJyKkTNEj8Pn3DcccEbaLNtEgOPA9FO9BLNRlSgN04//fRw4dTaZvUwgSJcIbPiub7ks54Tdw0vJMhp7kTWr8bpgzkUhOX39yIIP6IabwUKc+7cBdwLuLhDwBXDHY92cudyJ6IkOREQAZDQ1tzaFGPwi2nwhOkiVCF2fvizO3NZOaKrhATxuiiGXKQqEHEhGDrxC1iaIR6mfjArgevO6TBCgTbjQNyqAf0Z3ne/5TAYxGggC0fh28zgDsMTdGMUNf3E3KFtADG79rBXxYoVCUtGl+a5Ryf0SwKK+RGMLACTS8ZTlCEnYiLwdOJSsgizXzgiaV6Gkf24cuDQTjQHrh2nRl/i7wD7PIOtthYXrSWqAk8beibe/ha/gE5oDt6JnEuOt0ycSpK9keNUlfRPdBd9REAE4hCwmypQwNwa+T8g3/5veFNxZZjkxmIDPIL5l+K/mZi3/MH4K0Can1Vg9Rd2Z9ydET4+gZVIXc1KiIAIiEBECKB8nnzySV6IURTIEmQzAo/XcVa3wnDqGsnbPG9gvGDxZKMwr+kWMopXc1fGErYsFo9c4kgFfgo/Zs2jkny/JHWyO/X7mcQu5g2Pdz7e75E9uHQy9Y5ieGD6xaKTjvmn4zcvTIM3XQQn5jXmVBOIGI9rfOnNG9Pf0dImthll4IU4/Gu6cjgLt86Wq5O/NjcYHTg6HYNryt8lf5rYgXlfz8rKQgS6fUlwUshy+hunyQs6/Yqz5txdGXQg9nBkM/6fjCxwLOQKEciQK5ThiuMugWgsW7YsR6G7gojXd3wurAb0IRIaIcTudGnaQP3Yul394V6HtkSdorWQhZwyvZ3CMfthCm2znhDz2w5kDUNL8zrB+wanDBN+itkA9D8mfW4ETg0sSOuYdyLDEK1atQIRdzQ6EN0IQEcAB2D0IeMd3NFwxjkl3BspzFgAwyVApvEMTNju4Q7Jg4Il0HhZolV8qJBHiv/0YEdqYEerwX2HL4T7KS8SjN0wmgBbeh0Df/RPDKrkMPLiDpddk9DkdgXxJ3eF/QTXpWnTptyPAOcichSGI4mN75eJWhoVzSAL9xddjpuFOwUp67/lWoN512UkiwJGwB7XMXtdzF4U/5bhEHR1avbvBTtujjdy3vH8HVXb2epbBEQgJgH7swzcKehqnrOMQTIcy7Alo4w8UvGqshoYgOTDnzejwvyv8D/EJC6G6xhOtnCm1MbwJP+FOP/4o3f8wTNMy+PJlpGM2R5lioAIiIAIpEyAt3a8GZnLHY7tlHKdmbUjf1XIMBxc3Rt/ZrVfrRUBERCBaBLQ/OpoXhe1KtIEcP7BIo3eZsGJmA1lrJdJWYR2wBsNhcyIHf48jHkzr8/Ksy++kUwlcvYZy7fVRBmkj1mtMkVABERABJIigMemm73Jjoxp8hzG0o7zalL1HDSFmWSLDyc2t/3sBH7QANSJiIAIiEB2BGSvzo6M8kXgNwJmrzbHFfzWUNRMAcLigaMObycUCturY7JjqhKuaC5AK9FW8NbD34yQKlaemvGbwspt69PErESZIiACIiACiRNgTJN1gJh1jMsiT2CiAeEFjScR3kOBuY6J15mhJQlsxrxNgk4xNMx813Bc7gw9LzVbBERABCJCQHHLInIh1IyoE2BSFk1EYzNDjxlKREYhFk52jcYkQjROfO2Yv8SELkS4lbS5RpZmqiHBOYgSSbwHYuqQacZq7NhWQN8iIAIiIAK5JMCiL0x/JV4as6wx1TKaSZAqJs3mN1ENRuQ0f2TMBCbeB/HAcwlWu4uACIiACAQIyF4dAKJNEQgSMHt1YH61Xyhsr8aUTQhEolAQF5EJ1UTjoDwymzCPfj0EfiCiA7EfRo4cyWQ/ShJNlMAPvvz2D6S0CIiACIiACIiACIiACIhABAnIXh3Bi6ImZTYB5lEzrbp69eoYom3pDjsflh8InBjrcxD9kqDiiHDmYOMZThRxieoAJW2KgAiIgAiIgAiIgAiIQMQJKG5ZxC+Qmpd5BJhBzaIdTOfzRTWraLqZ1f4psZgk647gDY4TOIZx3PP8X5UWAREQAREQAREQAREQARGIPgHp6uhfI7UwwwgQHYcWEyHGTasmWA6Cmal94TNp3rw562wx1Y1wMvXr12f10XAZ5YiACIiACIiACIiACIiACESZgHR1lK+O2paRBMqUKdOsWbO5c+fWqFGDlag7dOhQrVo1jNVshs+nSJEiLHzNKtb8pFVPwnyUIwIiIAIiIAIiIAIiIALRJyBdHf1rpBZmHoF//vOfxJvdvXv3U089NXnyZKLRMtcau3TMM2nXrh35BDm75pprYhZQpgiIgAiIgAiIgAiIgAiIQJQJKB54lK+O2pYvCBAnvG3btvfcc0/fvn3zxQnrJEVABERABERABERABETg4CIgXX1wXU+dTaYRYNI1IcFXrVr1+eefs7BqpjVf7RUBERABERABERABERABEThE62ypE4jAgSFAYDNilb333nvLli3r3LmzRPWBuQw6qgiIgAiIgAiIgAiIgAjkmoDmV+caoSoQgZQIvPvuu/h+L1y4kFDhxANPqQ7tJAIiIAIiIAIikIcEWALTfQ477LBjjz324osvHj16dB4eUlWLgAhkJgH5gWfmdVOrkspeaAAACGlJREFURUAEREAEREAEREAE8pgAopoj9OnTh+89e/Z88sknkyZNYh3Nbt26Pf7443l8cFUvAiKQSQSkqzPpaqmtIiACIiACIiACIiAC+42A6epffvnFHXHatGn169dnkxU0y5cv7/KVEAERyOcE5AeezzuATl8EREAEREAEREAERCBRAvXq1atSpQpKe968eezTpk0btPe6dev8/QmeQuZ9993nMi+88EJyfvrppwceeKBy5coFCxZkR35lTRDy+X7zzTfPPffcI4888uijj77uuuvWrFnj9rXE5s2bO3XqhJI/4ogjjjvuuCZNmixYsMAvQ+WDBw8mGCo1FClShJINGzZk0plf5uOPP+a4J5xwAg0oXbp08+bNscD7BZQWARFImYDilqWMTjuKgAiIgAiIgAiIgAjkOwJmvkYPJ3vm1157LWr8iiuuaNSoUalSpdzuL7/88ttvv924cWPk9+LFiydOnDhjxoxZs2ahwK0Mi4bUrVv3yy+/ZHb3DTfcsGHDhvHjxyPFKdmgQQMrg2B+8cUXq1ev3rp168KFC1OYCKnvvPPOJZdcYgVIo8bxZr/66qsrVqy4ceNGjkslHAs17hqjhAiIQGoEpKtT46a9REAEREAEREAEREAE8h0BLMDYeBHVNWvWTPbk169fv3z5coKfBXZ8/dePU8iDBg3q2rVrx44d8Tm3krfccgs6+cEHH+zdu7fl8Ov5559/4403UmfRokW3b9/+0ksvnXnmmXPmzCG+mqv/22+/tfS2bdsQ5NixP/jgg1NPPdUyV6xYcfbZZ3fo0IEoqm4XJURABFIjID/w1LhpLxEQAREQAREQAREQgXxBAI9uPmhaPLQvv/xy7NXo3nLlyiV78n379g2LairBCu1ENZusvnnyySdPnz4dzcwmhuUpU6aceOKJd9xxhzsiTuPo5K1bt2JzJhOdT6vw7j700P95ty9ZsqTt8vzzz3/33Xf333+/E9XkV6tWjUVJFi1atHLlSlezEiIgAqkRkL06NW7aSwREQAREQAREQAREIF8QQI5ynmjXEiVKnHfeee3bt2/ZsmUKZ16rVq2Ye11wwQV+PgZnvL7Xrl2L4kW9882vHPfwww/3i6HGR40axa84fh911FF4d2P2rlGjBt7mFMYQjXXalZ89ezbpJUuWMEDgMkmsXr2a71WrVvl62y+gtAiIQIIEpKsTBKViIiACIiACIiACIiAC+ZGATajO/ZmXKVMmZiWEEAvkW0m8u8m379///veBMpaDFdryx44d+8gjj4wZM8ZWBStUqBDW9QEDBljl5hD+7LPPBiqxzV27dsXMV6YIiEDiBP7HVyTx3VRSBERABERABERABERABPI5AfO7/vnnn30OTuv6maSzC3X29ddfB0p+9dVX5BQvXtx9W45fjAjh7lcSxCrDFo39+YsvvsCOjcWbb6S17WJVYa9mjCD8YZ62X7PSIiACKRCQrk4BmnYRAREQAREQAREQAREQgUNY1AoKBOj2WcyfP9/fzDH9/vvv+2X27t1LKG9yzjjjDPdNTkC9E8ebX8OhvFlGq0WLFpMnT65UqRJ7maW6du3aFP7www/51kcERCAvCEhX5wVV1SkCIiACIiACIiACInDwE7Ap075/9bJlywjondSZE6LsjTfecLs8+eSTTK6+6KKLLDTa8ccfX79+fZbIfuKJJ1wZ4n7j8o2qZ3UuMrds2UKO+5XE999/v3PnzgIFCrDeNZtt27ZlcjgTxefOnesX27dvH6tt+zlKi4AIpEZA86tT46a9REAEREAEREAEREAE8juBhg0bYhZm4WiidhMqDB/sV199lcxx48YljoaQY8hjPiwrjav2W2+9dcwxxwwZMsTVMHTo0Dp16vTs2ZPA4GeddZatX40L+vDhw4sVK0axTZs2YZGuWrUq5mvs1Tt27ECo4zrepUsXK0Bg8AkTJnAIitWrV49I4OxOa4lnhkH7hx9+cMdSQgREIDUC0tWpcdNeIiACIiACIiACIiAC+Z0A4cFYZbpHjx5Tp06dN29e9erVMSOjipPS1U2aNMnKyurXr9+bb75J0G82H3744VNOOcXBrVChAr7lrF+N5Ma8TPRvlvti3S+3hnb58uWxRfMTzuHffPMNDahcuXL//v2bNWvmKkFOL126lEhmuIjjEI4du2zZsgQVJ364K6OECIhAygT+f7G7lHfWjiIgAiIgAiIgAiIgAiIgAqkRGDFiBB7amJ3btGmTWg3aSwREICIENL86IhdCzRABERABERABERABERABERABEchIAtLVGXnZ1GgREAEREAEREAEREAEREAEREIGIEJCujsiFUDNEQAREQAREQAREQAREQAREQAQykoDmV2fkZVOjRUAEREAEREAEREAEREAEREAEIkJA9uqIXAg1QwREQAREQAREQAREQAREQAREICMJSFdn5GVTo0VABERABERABERABERABERABCJCQLo6IhdCzRABERABERABERABERABERABEchIAtLVGXnZ1GgREAEREAEREAEREAEREAEREIGIEJCujsiFUDNEQAREQAREQAREQAREQAREQAQykoB0dUZeNjVaBERABERABERABERABERABEQgIgSkqyNyIdQMERABERABERABERABERABERCBjCQgXZ2Rl02NFgEREAEREAEREAEREAEREAERiAgB6eqIXAg1QwREQAREQAREQAREQAREQAREICMJSFdn5GVTo0VABERABERABERABERABERABCJCQLo6IhdCzRABERABERABERABERABERABEchIAtLVGXnZ1GgREAEREAEREAEREAEREAEREIGIEJCujsiFUDNEQAREQAREQAREQAREQAREQAQyksD/ARYpwkmMh+pUAAAAAElFTkSuQmCC;" vertex="1" parent="1">
          <mxGeometry x="120" y="520" width="283.33" height="100" as="geometry" />
        </mxCell>
        <mxCell id="meBygZaOMEilaG3QBi70-31" value="" style="sketch=0;points=[[0,0,0],[0.25,0,0],[0.5,0,0],[0.75,0,0],[1,0,0],[0,1,0],[0.25,1,0],[0.5,1,0],[0.75,1,0],[1,1,0],[0,0.25,0],[0,0.5,0],[0,0.75,0],[1,0.25,0],[1,0.5,0],[1,0.75,0]];outlineConnect=0;fontColor=#232F3E;fillColor=#FFFFFF;strokeColor=#333333;dashed=0;verticalLabelPosition=bottom;verticalAlign=top;align=center;html=1;fontSize=12;fontStyle=0;aspect=fixed;shape=mxgraph.aws4.resourceIcon;resIcon=mxgraph.aws4.augmented_ai;" vertex="1" parent="1">
          <mxGeometry x="320" y="460" width="40" height="40" as="geometry" />
        </mxCell>
      </root>
    </mxGraphModel>
  </diagram>
</mxfile>
